<?xml version="1.0" encoding="utf-8"?>
<!-- Generator: Adobe Illustrator 16.0.0, SVG Export Plug-In . SVG Version: 6.00 Build 0)  -->
<!DOCTYPE svg PUBLIC "-//W3C//DTD SVG 1.1//EN" "http://www.w3.org/Graphics/SVG/1.1/DTD/svg11.dtd">
<svg version="1.1" id="Camada_1" xmlns="http://www.w3.org/2000/svg" xmlns:xlink="http://www.w3.org/1999/xlink" x="0px" y="0px"
	 width="200.2px" height="46.547px" viewBox="96.25 22.562 200.2 46.547" enable-background="new 96.25 22.562 200.2 46.547"
	 xml:space="preserve">
<g>
	<g>
		<path fill="#FFFFFF" d="M296.345,69.035h-200v-46.4h200V69.035z M97.329,68.051h198.032V23.62H97.329V68.051z"/>
	</g>
	<g>
		<g>
			<g>
				<path fill="#FFFFFF" d="M99.627,54.499c0-0.38,0.162-0.6,0.543-0.652l6.752-0.654c0.379-0.054,0.651,0.11,0.651,0.546
					c0,1.36,0.056,1.795,0.166,2.178c0.271,0.708,0.816,1.143,1.686,1.143c0.872,0,1.363-0.381,1.635-1.143
					c0.107-0.382,0.163-0.871,0.163-4.519c0-3.648-0.056-4.138-0.163-4.52c-0.272-0.762-0.816-1.143-1.688-1.143
					c-0.98,0-1.525,0.49-1.798,1.36c-0.108,0.327-0.325,0.545-0.707,0.545h-6.262c-0.325,0-0.489-0.219-0.489-0.545v-20.09
					c0-0.326,0.218-0.544,0.545-0.544h18.128c0.329,0,0.546,0.218,0.546,0.544v6.153c0,0.327-0.218,0.544-0.546,0.544h-11.106
					c-0.218,0-0.328,0.109-0.328,0.327v6.261h0.109c0.762-0.654,2.125-1.307,4.192-1.307c3.702,0,6.042,1.525,7.132,4.792
					c0.49,1.36,0.654,2.884,0.654,7.622c0,4.247-0.164,5.607-0.491,6.696c-1.253,3.703-4.41,5.935-9.418,5.935
					c-5.008,0-8.275-2.178-9.418-5.935C99.735,56.95,99.627,55.696,99.627,54.499z"/>
			</g>
			<g>
				<path fill="#FFFFFF" d="M123.199,44.972c0-9.527,0.271-11.379,0.762-12.903c1.307-3.974,4.52-6.152,9.362-6.152
					c4.847,0,8.06,2.178,9.366,6.152c0.489,1.524,0.761,3.375,0.761,12.903s-0.272,11.38-0.761,12.902
					c-1.307,3.976-4.519,6.153-9.366,6.153c-4.842,0-8.056-2.178-9.362-6.153C123.47,56.352,123.199,54.499,123.199,44.972z
					 M133.323,57.058c0.872,0,1.417-0.435,1.634-1.143c0.165-0.436,0.218-1.034,0.218-10.944c0-9.908-0.053-10.508-0.218-10.943
					c-0.218-0.707-0.763-1.143-1.634-1.143c-0.87,0-1.413,0.437-1.631,1.143c-0.162,0.435-0.219,1.035-0.219,10.943
					c0,9.91,0.056,10.507,0.219,10.944C131.911,56.624,132.454,57.058,133.323,57.058z"/>
			</g>
			<g>
				<path fill="#FFFFFF" d="M148.624,41.597c-0.327-1.09-0.435-1.961-0.435-5.771c0-3.866,0.108-4.737,0.435-5.825
					c0.816-2.396,2.939-3.92,6.208-3.92c3.321,0,5.39,1.524,6.205,3.92c0.328,1.089,0.436,1.959,0.436,5.825
					c0,3.81-0.108,4.681-0.436,5.771c-0.815,2.449-2.884,3.975-6.205,3.975C151.564,45.571,149.441,44.046,148.624,41.597z
					 M155.864,40.399c0.109-0.273,0.166-0.926,0.166-4.574c0-3.647-0.056-4.301-0.166-4.574c-0.108-0.381-0.489-0.708-1.032-0.708
					c-0.546,0-0.928,0.327-1.036,0.708c-0.107,0.272-0.164,0.926-0.164,4.574s0.056,4.3,0.164,4.574
					c0.107,0.38,0.489,0.707,1.036,0.707C155.375,41.106,155.756,40.779,155.864,40.399z M169.531,26.461
					c0.109-0.326,0.381-0.544,0.763-0.544h4.41c0.328,0,0.489,0.218,0.38,0.544l-13.828,37.021
					c-0.108,0.326-0.381,0.544-0.708,0.544h-4.464c-0.328,0-0.489-0.218-0.381-0.544L169.531,26.461z M169.313,54.119
					c0-3.866,0.108-4.737,0.435-5.825c0.817-2.396,2.94-3.921,6.206-3.921c3.323,0,5.392,1.525,6.208,3.921
					c0.328,1.088,0.436,1.959,0.436,5.825c0,3.811-0.108,4.681-0.436,5.77c-0.816,2.451-2.885,3.977-6.208,3.977
					c-3.265,0-5.389-1.525-6.206-3.977C169.421,58.8,169.313,57.93,169.313,54.119z M175.953,59.399
					c0.544,0,0.926-0.327,1.036-0.708c0.108-0.272,0.164-0.925,0.164-4.573s-0.056-4.302-0.164-4.573
					c-0.109-0.382-0.491-0.708-1.036-0.708c-0.542,0-0.923,0.326-1.033,0.708c-0.109,0.271-0.164,0.925-0.164,4.573
					s0.055,4.301,0.164,4.573C175.031,59.072,175.411,59.399,175.953,59.399z"/>
			</g>
		</g>
		<g>
			<g>
				<path fill="#FFFFFF" d="M209.344,53.574c0.033-0.096,0.08-0.159,0.177-0.159h1.894c0.096,0,0.161,0.064,0.177,0.159l2.344,10.59
					c0.016,0.096-0.031,0.16-0.13,0.16h-1.779c-0.113,0-0.16-0.065-0.176-0.16l-0.355-1.974h-2.07l-0.368,1.974
					c-0.016,0.096-0.063,0.16-0.177,0.16h-1.78c-0.097,0-0.144-0.065-0.129-0.16L209.344,53.574z M211.189,60.521l-0.688-3.786
					h-0.05l-0.722,3.786H211.189z"/>
			</g>
			<g>
				<path fill="#FFFFFF" d="M214.395,58.868c0-2.823,0.064-3.32,0.21-3.785c0.384-1.171,1.266-1.812,2.71-1.812
					c1.748,0,2.776,0.93,2.873,2.759c0,0.096-0.033,0.177-0.146,0.193l-1.685,0.287c-0.098,0.017-0.177-0.031-0.177-0.145
					c-0.032-0.866-0.304-1.203-0.834-1.203c-0.383,0-0.61,0.16-0.722,0.498c-0.063,0.241-0.096,0.434-0.096,3.208
					c0,2.775,0.032,2.969,0.096,3.208c0.111,0.339,0.339,0.499,0.722,0.499c0.53,0,0.801-0.338,0.834-1.203
					c0-0.112,0.079-0.159,0.177-0.144l1.685,0.288c0.112,0.016,0.146,0.096,0.146,0.192c-0.096,1.828-1.125,2.76-2.873,2.76
					c-1.444,0-2.327-0.643-2.71-1.813C214.46,62.19,214.395,61.691,214.395,58.868z"/>
			</g>
			<g>
				<path fill="#FFFFFF" d="M221.244,62.622c-0.177-0.497-0.226-0.945-0.226-3.753c0-2.807,0.049-3.256,0.226-3.753
					c0.4-1.203,1.363-1.845,2.79-1.845c1.429,0,2.391,0.642,2.793,1.845c0.177,0.498,0.224,0.946,0.224,3.753
					c0,2.808-0.048,3.257-0.224,3.753c-0.402,1.204-1.364,1.847-2.793,1.847C222.607,64.469,221.644,63.826,221.244,62.622z
					 M224.803,62.046c0.083-0.258,0.114-0.529,0.114-3.178c0-2.646-0.031-2.918-0.114-3.175c-0.096-0.305-0.369-0.531-0.77-0.531
					s-0.673,0.227-0.77,0.531c-0.08,0.257-0.111,0.529-0.111,3.175c0,2.647,0.031,2.92,0.111,3.178
					c0.097,0.305,0.369,0.529,0.77,0.529S224.708,62.351,224.803,62.046z"/>
			</g>
			<g>
				<path fill="#FFFFFF" d="M228.362,53.574c0-0.096,0.064-0.159,0.159-0.159h1.733c0.146,0,0.224,0.048,0.258,0.159l1.669,5.729
					h0.064l1.604-5.729c0.031-0.111,0.111-0.159,0.256-0.159h1.718c0.096,0,0.158,0.064,0.158,0.159v10.59
					c0,0.096-0.062,0.16-0.158,0.16h-1.557c-0.097,0-0.161-0.065-0.161-0.16v-6.305h-0.095l-1.188,4.363
					c-0.033,0.096-0.098,0.159-0.209,0.159h-0.883c-0.112,0-0.177-0.063-0.208-0.159l-1.188-4.363h-0.097v6.305
					c0,0.096-0.062,0.16-0.159,0.16h-1.558c-0.096,0-0.159-0.065-0.159-0.16L228.362,53.574L228.362,53.574z"/>
			</g>
			<g>
				<path fill="#FFFFFF" d="M237.615,64.324c-0.096,0-0.161-0.064-0.161-0.16v-10.59c0-0.096,0.065-0.159,0.161-0.159h2.566
					c1.99,0,3.208,0.946,3.208,3.433c0,2.47-1.268,3.434-3.208,3.434h-0.528c-0.066,0-0.099,0.031-0.099,0.096v3.787
					c0,0.096-0.062,0.16-0.158,0.16H237.615L237.615,64.324z M241.289,56.848c0-1.234-0.355-1.588-1.173-1.588h-0.463
					c-0.066,0-0.098,0.031-0.098,0.096v2.983c0,0.064,0.031,0.097,0.098,0.097h0.463C240.933,58.437,241.289,58.083,241.289,56.848z
					"/>
			</g>
			<g>
				<path fill="#FFFFFF" d="M245.49,53.574c0.031-0.096,0.08-0.159,0.175-0.159h1.895c0.096,0,0.16,0.064,0.176,0.159l2.342,10.59
					c0.019,0.096-0.031,0.16-0.128,0.16h-1.78c-0.112,0-0.159-0.065-0.176-0.16l-0.354-1.974h-2.067l-0.37,1.974
					c-0.017,0.096-0.063,0.16-0.176,0.16h-1.78c-0.097,0-0.146-0.065-0.128-0.16L245.49,53.574z M247.336,60.521l-0.69-3.786h-0.049
					l-0.723,3.786H247.336z"/>
			</g>
			<g>
				<path fill="#FFFFFF" d="M250.956,53.574c0-0.096,0.062-0.159,0.16-0.159h2.006c0.128,0,0.193,0.048,0.224,0.159l1.815,6.852
					h0.077v-6.852c0-0.096,0.063-0.159,0.162-0.159h1.523c0.095,0,0.159,0.064,0.159,0.159v10.59c0,0.096-0.064,0.16-0.159,0.16
					h-1.926c-0.128,0-0.192-0.05-0.225-0.16l-1.893-6.851h-0.08v6.851c0,0.096-0.065,0.16-0.159,0.16h-1.524
					c-0.098,0-0.161-0.065-0.161-0.16V53.574L250.956,53.574z"/>
			</g>
			<g>
				<path fill="#FFFFFF" d="M258.556,53.574c0-0.096,0.064-0.159,0.159-0.159h1.782c0.095,0,0.159,0.064,0.159,0.159v4.141
					c0,0.063,0.031,0.096,0.097,0.096h1.524c0.062,0,0.097-0.032,0.097-0.096v-4.141c0-0.096,0.062-0.159,0.16-0.159h1.78
					c0.096,0,0.16,0.064,0.16,0.159v10.59c0,0.096-0.065,0.16-0.16,0.16h-1.78c-0.098,0-0.16-0.065-0.16-0.16v-4.365
					c0-0.063-0.034-0.097-0.097-0.097h-1.524c-0.065,0-0.097,0.033-0.097,0.097v4.365c0,0.096-0.064,0.16-0.159,0.16h-1.782
					c-0.096,0-0.159-0.065-0.159-0.16V53.574z"/>
			</g>
			<g>
				<path fill="#FFFFFF" d="M267.729,53.574c0.032-0.096,0.081-0.159,0.178-0.159h1.894c0.094,0,0.159,0.064,0.175,0.159
					l2.344,10.59c0.017,0.096-0.033,0.16-0.13,0.16h-1.78c-0.112,0-0.159-0.065-0.176-0.16l-0.354-1.974h-2.069l-0.37,1.974
					c-0.015,0.096-0.062,0.16-0.178,0.16h-1.779c-0.097,0-0.144-0.065-0.126-0.16L267.729,53.574z M269.575,60.521l-0.689-3.786
					h-0.049l-0.721,3.786H269.575z"/>
			</g>
			<g>
				<path fill="#FFFFFF" d="M273.197,53.574c0-0.096,0.063-0.159,0.159-0.159h2.006c0.128,0,0.193,0.048,0.225,0.159l1.813,6.852
					h0.081v-6.852c0-0.096,0.062-0.159,0.158-0.159h1.525c0.097,0,0.159,0.064,0.159,0.159v10.59c0,0.096-0.062,0.16-0.159,0.16
					h-1.927c-0.128,0-0.191-0.05-0.223-0.16l-1.893-6.851h-0.082v6.851c0,0.096-0.063,0.16-0.16,0.16h-1.524
					c-0.096,0-0.159-0.065-0.159-0.16V53.574L273.197,53.574z"/>
			</g>
			<g>
				<path fill="#FFFFFF" d="M282.419,64.324c-0.097,0-0.161-0.064-0.161-0.16v-8.76c0-0.063-0.032-0.096-0.095-0.096h-1.718
					c-0.096,0-0.161-0.064-0.161-0.161v-1.572c0-0.096,0.065-0.16,0.161-0.16h5.727c0.098,0,0.16,0.064,0.16,0.16v1.572
					c0,0.097-0.062,0.161-0.16,0.161h-1.716c-0.065,0-0.097,0.032-0.097,0.096v8.76c0,0.096-0.062,0.16-0.158,0.16H282.419
					L282.419,64.324z"/>
			</g>
			<g>
				<path fill="#FFFFFF" d="M287.29,53.574c0-0.096,0.067-0.159,0.164-0.159h4.762c0.097,0,0.161,0.064,0.161,0.159v1.573
					c0,0.097-0.064,0.16-0.161,0.16h-2.726c-0.065,0-0.097,0.032-0.097,0.096v2.374c0,0.064,0.032,0.097,0.097,0.097h2.357
					c0.094,0,0.16,0.064,0.16,0.159v1.573c0,0.096-0.066,0.16-0.16,0.16h-2.357c-0.065,0-0.097,0.032-0.097,0.096v2.472
					c0,0.063,0.032,0.097,0.097,0.097h2.726c0.097,0,0.161,0.063,0.161,0.16v1.572c0,0.096-0.064,0.16-0.161,0.16h-4.762
					c-0.097,0-0.164-0.064-0.164-0.16V53.574z"/>
			</g>
		</g>
		<g>
			<path fill="#109ED3" d="M204.523,63.57c0,1.203-0.978,2.183-2.182,2.183h-9.68c-1.204,0-2.182-0.979-2.182-2.183v-9.677
				c0-1.208,0.979-2.185,2.182-2.185h9.68c1.204,0,2.182,0.977,2.182,2.185V63.57z"/>
			<g>
				<path fill="#FCFEFE" d="M198.373,54.003v3.876h3.715v1.668h-3.715v3.912h-1.741v-3.912h-3.716v-1.668h3.716v-3.876H198.373z"/>
			</g>
		</g>
		<g>
			<path fill="#FFFFFF" d="M190.48,26.65c0-0.071,0.047-0.118,0.118-0.118h2.986c1.405,0,2.385,0.602,2.773,1.806
				c0.143,0.448,0.213,0.896,0.213,2.207c0,1.311-0.07,1.759-0.213,2.208c-0.389,1.204-1.368,1.806-2.773,1.806h-2.986
				c-0.071,0-0.118-0.047-0.118-0.118V26.65z M192.285,33.012h0.909c0.803,0,1.287-0.236,1.487-0.885
				c0.083-0.237,0.131-0.543,0.131-1.583c0-1.038-0.048-1.346-0.131-1.582c-0.2-0.649-0.684-0.885-1.487-0.885h-0.909
				c-0.047,0-0.07,0.023-0.07,0.07v4.792C192.215,32.988,192.238,33.012,192.285,33.012z"/>
			<path fill="#FFFFFF" d="M197.92,26.65c0-0.071,0.047-0.118,0.118-0.118h5.146c0.071,0,0.119,0.047,0.119,0.118v1.263
				c0,0.07-0.049,0.117-0.119,0.117h-3.458c-0.048,0-0.071,0.024-0.071,0.071v1.594c0,0.047,0.023,0.071,0.071,0.071h2.88
				c0.071,0,0.118,0.047,0.118,0.118v1.25c0,0.071-0.048,0.118-0.118,0.118h-2.88c-0.048,0-0.071,0.024-0.071,0.072v1.664
				c0,0.047,0.023,0.071,0.071,0.071h3.458c0.071,0,0.119,0.047,0.119,0.118v1.263c0,0.071-0.049,0.118-0.119,0.118h-5.146
				c-0.071,0-0.118-0.047-0.118-0.118V26.65z"/>
			<path fill="#FFFFFF" d="M204.203,33.59c-0.046-0.047-0.07-0.129-0.011-0.201l0.896-1.027c0.048-0.059,0.118-0.059,0.178-0.012
				c0.531,0.426,1.251,0.827,2.101,0.827c0.839,0,1.312-0.389,1.312-0.957c0-0.472-0.284-0.767-1.24-0.896l-0.425-0.059
				c-1.629-0.225-2.539-0.991-2.539-2.409c0-1.476,1.11-2.455,2.846-2.455c1.062,0,2.053,0.318,2.727,0.838
				c0.071,0.047,0.082,0.095,0.024,0.177l-0.721,1.074c-0.048,0.06-0.106,0.071-0.164,0.035c-0.614-0.401-1.205-0.613-1.866-0.613
				c-0.708,0-1.074,0.365-1.074,0.873c0,0.46,0.331,0.755,1.251,0.886l0.426,0.059c1.652,0.224,2.526,0.979,2.526,2.432
				s-1.074,2.526-3.152,2.526C206.045,34.688,204.83,34.192,204.203,33.59z"/>
			<path fill="#FFFFFF" d="M211.407,30.544c0-1.239,0.048-1.652,0.226-2.171c0.425-1.311,1.451-1.972,2.856-1.972
				c1.356,0,2.349,0.66,2.797,1.782c0.035,0.06,0.012,0.118-0.059,0.143l-1.287,0.578c-0.07,0.035-0.13,0.012-0.165-0.059
				c-0.224-0.519-0.602-0.909-1.274-0.909c-0.626,0-1.027,0.331-1.204,0.885c-0.094,0.295-0.13,0.579-0.13,1.723
				c0,1.146,0.036,1.429,0.13,1.723c0.177,0.556,0.578,0.886,1.204,0.886c0.673,0,1.051-0.39,1.274-0.91
				c0.035-0.071,0.096-0.094,0.165-0.06l1.287,0.579c0.071,0.024,0.094,0.083,0.059,0.142c-0.448,1.121-1.44,1.782-2.797,1.782
				c-1.405,0-2.432-0.662-2.856-1.971C211.455,32.198,211.407,31.785,211.407,30.544z"/>
			<path fill="#FFFFFF" d="M218.424,32.741c-0.178-0.556-0.224-1.003-0.224-2.197c0-1.191,0.046-1.64,0.224-2.195
				c0.413-1.298,1.522-1.947,2.927-1.947c1.405,0,2.515,0.649,2.928,1.947c0.177,0.554,0.224,1.003,0.224,2.195
				c0,1.193-0.048,1.641-0.224,2.197c-0.413,1.298-1.522,1.947-2.928,1.947C219.946,34.688,218.837,34.039,218.424,32.741z
				 M222.614,32.268c0.096-0.282,0.13-0.673,0.13-1.723s-0.034-1.44-0.13-1.723c-0.177-0.554-0.603-0.885-1.264-0.885
				c-0.66,0-1.086,0.331-1.263,0.885c-0.095,0.284-0.13,0.673-0.13,1.723s0.035,1.441,0.13,1.723
				c0.177,0.556,0.603,0.886,1.263,0.886C222.011,33.154,222.437,32.823,222.614,32.268z"/>
			<path fill="#FFFFFF" d="M225.828,26.65c0-0.071,0.047-0.118,0.118-0.118h1.416c0.083,0,0.154,0.036,0.201,0.118l2.833,5.052h0.06
				V26.65c0-0.071,0.047-0.118,0.117-0.118h1.334c0.071,0,0.118,0.047,0.118,0.118v7.79c0,0.071-0.048,0.118-0.118,0.118h-1.404
				c-0.096,0-0.154-0.036-0.201-0.118l-2.846-5.041h-0.058v5.041c0,0.071-0.048,0.118-0.118,0.118h-1.334
				c-0.071,0-0.118-0.047-0.118-0.118V26.65L225.828,26.65z"/>
			<path fill="#FFFFFF" d="M235.335,34.559c-0.07,0-0.118-0.047-0.118-0.118v-6.292c0-0.047-0.023-0.07-0.071-0.07h-2.029
				c-0.071,0-0.118-0.048-0.118-0.118v-1.31c0-0.071,0.047-0.118,0.118-0.118h5.938c0.07,0,0.117,0.047,0.117,0.118v1.31
				c0,0.07-0.047,0.118-0.117,0.118h-2.03c-0.047,0-0.071,0.023-0.071,0.07v6.292c0,0.071-0.047,0.118-0.118,0.118H235.335z"/>
			<path fill="#FFFFFF" d="M239.942,32.741c-0.178-0.556-0.225-1.003-0.225-2.197c0-1.191,0.047-1.64,0.225-2.195
				c0.413-1.298,1.522-1.947,2.927-1.947c1.405,0,2.515,0.649,2.928,1.947c0.177,0.554,0.224,1.003,0.224,2.195
				c0,1.193-0.048,1.641-0.224,2.197c-0.413,1.298-1.522,1.947-2.928,1.947C241.465,34.688,240.354,34.039,239.942,32.741z
				 M244.132,32.268c0.096-0.282,0.13-0.673,0.13-1.723s-0.034-1.44-0.13-1.723c-0.177-0.554-0.602-0.885-1.264-0.885
				c-0.66,0-1.086,0.331-1.263,0.885c-0.095,0.284-0.13,0.673-0.13,1.723s0.035,1.441,0.13,1.723
				c0.177,0.556,0.603,0.886,1.263,0.886C243.531,33.154,243.956,32.823,244.132,32.268z"/>
			<path fill="#FFFFFF" d="M249.922,30.544c0-1.239,0.047-1.652,0.225-2.171c0.426-1.311,1.451-1.972,2.856-1.972
				c1.357,0,2.35,0.66,2.798,1.782c0.034,0.06,0.012,0.118-0.06,0.143l-1.286,0.578c-0.07,0.035-0.13,0.012-0.165-0.059
				c-0.225-0.519-0.603-0.909-1.274-0.909c-0.627,0-1.028,0.331-1.204,0.885c-0.095,0.295-0.13,0.579-0.13,1.723
				c0,1.146,0.035,1.429,0.13,1.723c0.177,0.556,0.578,0.886,1.204,0.886c0.672,0,1.05-0.39,1.274-0.91
				c0.035-0.071,0.095-0.094,0.165-0.06l1.286,0.579c0.071,0.024,0.095,0.083,0.06,0.142c-0.448,1.121-1.44,1.782-2.798,1.782
				c-1.405,0-2.431-0.662-2.856-1.971C249.969,32.198,249.922,31.785,249.922,30.544z"/>
			<path fill="#FFFFFF" d="M256.925,26.65c0-0.071,0.048-0.118,0.118-0.118h1.499c0.071,0,0.118,0.047,0.118,0.118v6.291
				c0,0.048,0.023,0.072,0.071,0.072h3.541c0.07,0,0.118,0.047,0.118,0.118v1.31c0,0.071-0.049,0.118-0.118,0.118h-5.229
				c-0.071,0-0.118-0.047-0.118-0.118V26.65L256.925,26.65z"/>
			<path fill="#FFFFFF" d="M263.421,26.65c0-0.071,0.048-0.118,0.119-0.118h1.499c0.07,0,0.117,0.047,0.117,0.118v7.79
				c0,0.071-0.048,0.118-0.117,0.118h-1.499c-0.071,0-0.119-0.047-0.119-0.118V26.65z"/>
			<path fill="#FFFFFF" d="M266.692,26.65c0-0.071,0.047-0.118,0.118-0.118h5.147c0.069,0,0.117,0.047,0.117,0.118v1.263
				c0,0.07-0.049,0.117-0.117,0.117h-3.46c-0.047,0-0.07,0.024-0.07,0.071v1.594c0,0.047,0.023,0.071,0.07,0.071h2.881
				c0.071,0,0.117,0.047,0.117,0.118v1.25c0,0.071-0.047,0.118-0.117,0.118h-2.881c-0.047,0-0.07,0.024-0.07,0.072v1.664
				c0,0.047,0.023,0.071,0.07,0.071h3.46c0.069,0,0.117,0.047,0.117,0.118v1.263c0,0.071-0.049,0.118-0.117,0.118h-5.147
				c-0.071,0-0.118-0.047-0.118-0.118V26.65z"/>
			<path fill="#FFFFFF" d="M273.365,26.65c0-0.071,0.048-0.118,0.118-0.118h1.417c0.082,0,0.152,0.036,0.201,0.118l2.832,5.052h0.06
				V26.65c0-0.071,0.048-0.118,0.117-0.118h1.334c0.071,0,0.118,0.047,0.118,0.118v7.79c0,0.071-0.048,0.118-0.118,0.118h-1.404
				c-0.095,0-0.154-0.036-0.201-0.118l-2.845-5.041h-0.059v5.041c0,0.071-0.047,0.118-0.117,0.118h-1.335
				c-0.071,0-0.118-0.047-0.118-0.118V26.65L273.365,26.65z"/>
			<path fill="#FFFFFF" d="M282.872,34.559c-0.07,0-0.116-0.047-0.116-0.118v-6.292c0-0.047-0.024-0.07-0.071-0.07h-2.03
				c-0.071,0-0.117-0.048-0.117-0.118v-1.31c0-0.071,0.047-0.118,0.117-0.118h5.938c0.071,0,0.117,0.047,0.117,0.118v1.31
				c0,0.07-0.047,0.118-0.117,0.118h-2.03c-0.047,0-0.071,0.023-0.071,0.07v6.292c0,0.071-0.047,0.118-0.117,0.118H282.872z"/>
			<path fill="#FFFFFF" d="M287.68,26.65c0-0.071,0.047-0.118,0.117-0.118h5.146c0.071,0,0.119,0.047,0.119,0.118v1.263
				c0,0.07-0.049,0.117-0.119,0.117h-3.458c-0.048,0-0.07,0.024-0.07,0.071v1.594c0,0.047,0.022,0.071,0.07,0.071h2.88
				c0.072,0,0.118,0.047,0.118,0.118v1.25c0,0.071-0.047,0.118-0.118,0.118h-2.88c-0.048,0-0.07,0.024-0.07,0.072v1.664
				c0,0.047,0.022,0.071,0.07,0.071h3.458c0.071,0,0.119,0.047,0.119,0.118v1.263c0,0.071-0.049,0.118-0.119,0.118h-5.146
				c-0.07,0-0.117-0.047-0.117-0.118V26.65z"/>
		</g>
		<g>
			<path fill="#FFFFFF" d="M190.63,48.412c-0.09,0-0.15-0.06-0.15-0.15v-9.905c0-0.09,0.06-0.149,0.15-0.149h3.962
				c2.222,0,3.557,1.335,3.557,3.286c0,1.921-1.351,3.272-3.557,3.272h-1.817c-0.059,0-0.09,0.03-0.09,0.09v3.407
				c0,0.091-0.059,0.15-0.149,0.15H190.63z M195.943,41.494c0-0.825-0.556-1.381-1.485-1.381h-1.682c-0.059,0-0.09,0.03-0.09,0.09
				v2.567c0,0.06,0.031,0.089,0.09,0.089h1.682C195.387,42.859,195.943,42.319,195.943,41.494z"/>
			<path fill="#FFFFFF" d="M199.575,46.102c-0.226-0.706-0.285-1.276-0.285-2.792c0-1.516,0.06-2.086,0.285-2.792
				c0.524-1.651,1.936-2.476,3.723-2.476c1.785,0,3.195,0.824,3.722,2.476c0.224,0.706,0.284,1.276,0.284,2.792
				s-0.06,2.086-0.284,2.792c-0.526,1.65-1.937,2.476-3.722,2.476C201.51,48.577,200.099,47.752,199.575,46.102z M204.902,45.5
				c0.12-0.359,0.165-0.855,0.165-2.19s-0.045-1.831-0.165-2.191c-0.225-0.706-0.766-1.126-1.604-1.126
				c-0.841,0-1.381,0.42-1.607,1.126c-0.118,0.36-0.164,0.856-0.164,2.191c0,1.336,0.046,1.832,0.164,2.19
				c0.227,0.706,0.767,1.125,1.607,1.125C204.136,46.626,204.677,46.206,204.902,45.5z"/>
			<path fill="#FFFFFF" d="M214.628,48.412c-0.136,0-0.181-0.045-0.226-0.15l-1.756-3.736h-1.365c-0.06,0-0.09,0.03-0.09,0.089
				v3.647c0,0.091-0.06,0.15-0.149,0.15h-1.906c-0.091,0-0.151-0.06-0.151-0.15v-9.905c0-0.09,0.061-0.149,0.151-0.149h4.066
				c2.086,0,3.467,1.305,3.467,3.166c0,1.307-0.69,2.342-1.815,2.837l2.011,4.022c0.045,0.09,0,0.181-0.104,0.181L214.628,48.412
				L214.628,48.412z M214.463,41.373c0-0.765-0.541-1.26-1.382-1.26h-1.801c-0.06,0-0.09,0.03-0.09,0.09v2.356
				c0,0.06,0.03,0.09,0.09,0.09h1.801C213.923,42.649,214.463,42.154,214.463,41.373z"/>
			<path fill="#FFFFFF" d="M220.569,48.412c-0.09,0-0.149-0.06-0.149-0.15v-7.999c0-0.061-0.03-0.09-0.09-0.09h-2.581
				c-0.091,0-0.151-0.061-0.151-0.15v-1.666c0-0.09,0.061-0.149,0.151-0.149h7.548c0.091,0,0.15,0.06,0.15,0.149v1.666
				c0,0.09-0.06,0.15-0.15,0.15h-2.581c-0.061,0-0.091,0.03-0.091,0.09v7.999c0,0.091-0.06,0.15-0.149,0.15H220.569z"/>
			<path fill="#FFFFFF" d="M226.425,46.102c-0.226-0.706-0.286-1.276-0.286-2.792c0-1.516,0.06-2.086,0.286-2.792
				c0.524-1.651,1.936-2.476,3.722-2.476s3.195,0.824,3.722,2.476c0.225,0.706,0.285,1.276,0.285,2.792s-0.061,2.086-0.285,2.792
				c-0.526,1.65-1.936,2.476-3.722,2.476C228.359,48.577,226.949,47.752,226.425,46.102z M231.751,45.5
				c0.12-0.359,0.165-0.855,0.165-2.19s-0.045-1.831-0.165-2.191c-0.224-0.706-0.765-1.126-1.604-1.126
				c-0.841,0-1.381,0.42-1.606,1.126c-0.119,0.36-0.165,0.856-0.165,2.191c0,1.336,0.046,1.832,0.165,2.19
				c0.226,0.706,0.766,1.125,1.606,1.125C230.986,46.626,231.526,46.206,231.751,45.5z"/>
			<path fill="#FFFFFF" d="M238.881,47.182c-0.061-0.061-0.092-0.165-0.017-0.256l1.141-1.305c0.061-0.075,0.15-0.075,0.226-0.015
				c0.675,0.54,1.59,1.05,2.671,1.05c1.065,0,1.666-0.495,1.666-1.215c0-0.601-0.36-0.977-1.576-1.14l-0.54-0.075
				c-2.072-0.285-3.227-1.26-3.227-3.062c0-1.875,1.411-3.121,3.616-3.121c1.352,0,2.612,0.405,3.467,1.065
				c0.091,0.061,0.105,0.12,0.031,0.226l-0.917,1.365c-0.059,0.075-0.135,0.09-0.209,0.045c-0.781-0.51-1.531-0.779-2.371-0.779
				c-0.9,0-1.365,0.465-1.365,1.11c0,0.585,0.42,0.96,1.591,1.126l0.54,0.075c2.101,0.286,3.212,1.246,3.212,3.092
				s-1.366,3.211-4.007,3.211C241.22,48.577,239.675,47.946,238.881,47.182z"/>
			<path fill="#FFFFFF" d="M248.303,38.357c0-0.09,0.061-0.149,0.15-0.149h6.544c0.09,0,0.149,0.06,0.149,0.149v1.606
				c0,0.09-0.06,0.149-0.149,0.149H250.6c-0.061,0-0.091,0.03-0.091,0.09v2.026c0,0.06,0.03,0.09,0.091,0.09h3.661
				c0.091,0,0.151,0.061,0.151,0.15v1.591c0,0.09-0.061,0.149-0.151,0.149H250.6c-0.061,0-0.091,0.031-0.091,0.091v2.115
				c0,0.062,0.03,0.09,0.091,0.09h4.397c0.09,0,0.149,0.061,0.149,0.15v1.605c0,0.092-0.06,0.15-0.149,0.15h-6.544
				c-0.09,0-0.15-0.059-0.15-0.15V38.357z"/>
			<path fill="#FFFFFF" d="M256.514,43.31c0-1.516,0.06-2.086,0.285-2.792c0.525-1.651,1.936-2.476,3.752-2.476
				c1.905,0,3.151,0.945,3.632,2.176c0.045,0.09,0.029,0.18-0.061,0.225l-1.605,0.675c-0.105,0.031-0.181,0-0.21-0.075
				c-0.405-0.69-0.915-1.051-1.756-1.051c-0.87,0-1.411,0.436-1.637,1.141c-0.118,0.36-0.165,0.84-0.165,2.176
				s0.047,1.832,0.165,2.19c0.226,0.706,0.781,1.125,1.667,1.125c0.766,0,1.426-0.375,1.636-1.05
				c0.074-0.255,0.119-0.571,0.119-1.006c0-0.06-0.029-0.09-0.09-0.09h-1.381c-0.09,0-0.149-0.061-0.149-0.15v-1.44
				c0-0.09,0.06-0.15,0.149-0.15h3.512c0.091,0,0.15,0.061,0.15,0.15v0.84c0,0.9-0.074,1.741-0.255,2.296
				c-0.511,1.636-1.921,2.551-3.722,2.551c-1.816,0-3.227-0.825-3.751-2.476C256.574,45.396,256.514,44.825,256.514,43.31z"/>
			<path fill="#FFFFFF" d="M266.163,44.661v-6.304c0-0.09,0.061-0.149,0.15-0.149h1.906c0.09,0,0.149,0.06,0.149,0.149v6.364
				c0,1.215,0.675,1.905,1.711,1.905c1.021,0,1.695-0.69,1.695-1.905v-6.364c0-0.09,0.061-0.149,0.149-0.149h1.907
				c0.089,0,0.15,0.06,0.15,0.149v6.303c0,2.536-1.621,3.917-3.902,3.917C267.784,48.577,266.163,47.196,266.163,44.661z"/>
			<path fill="#FFFFFF" d="M281.53,48.412c-0.135,0-0.18-0.045-0.225-0.15l-1.755-3.736h-1.366c-0.06,0-0.09,0.03-0.09,0.089v3.647
				c0,0.091-0.061,0.15-0.149,0.15h-1.907c-0.089,0-0.15-0.06-0.15-0.15v-9.905c0-0.09,0.062-0.149,0.15-0.149h4.067
				c2.086,0,3.467,1.305,3.467,3.166c0,1.307-0.69,2.342-1.815,2.837l2.011,4.022c0.045,0.09,0,0.181-0.104,0.181L281.53,48.412
				L281.53,48.412z M281.367,41.373c0-0.765-0.541-1.26-1.382-1.26h-1.801c-0.06,0-0.09,0.03-0.09,0.09v2.356
				c0,0.06,0.03,0.09,0.09,0.09h1.801C280.826,42.649,281.367,42.154,281.367,41.373z"/>
			<path fill="#FFFFFF" d="M285.209,46.102c-0.226-0.706-0.285-1.276-0.285-2.792c0-1.516,0.06-2.086,0.285-2.792
				c0.524-1.651,1.937-2.476,3.723-2.476c1.785,0,3.195,0.824,3.722,2.476c0.224,0.706,0.285,1.276,0.285,2.792
				s-0.061,2.086-0.285,2.792c-0.526,1.65-1.937,2.476-3.722,2.476C287.145,48.577,285.733,47.752,285.209,46.102z M290.536,45.5
				c0.12-0.359,0.165-0.855,0.165-2.19s-0.045-1.831-0.165-2.191c-0.226-0.706-0.765-1.126-1.604-1.126
				c-0.841,0-1.381,0.42-1.606,1.126c-0.12,0.36-0.165,0.856-0.165,2.191c0,1.336,0.045,1.832,0.165,2.19
				c0.226,0.706,0.766,1.125,1.606,1.125C289.771,46.626,290.31,46.206,290.536,45.5z"/>
		</g>
	</g>
</g>
</svg>
