<?xml version="1.0" encoding="utf-8"?>
<!-- Generator: Adobe Illustrator 16.0.0, SVG Export Plug-In . SVG Version: 6.00 Build 0)  -->
<!DOCTYPE svg PUBLIC "-//W3C//DTD SVG 1.1//EN" "http://www.w3.org/Graphics/SVG/1.1/DTD/svg11.dtd">
<svg version="1.1" id="Layer_1" xmlns="http://www.w3.org/2000/svg" xmlns:xlink="http://www.w3.org/1999/xlink" x="0px" y="0px"
	 width="139.723px" height="108.479px" viewBox="0 0 139.723 108.479" enable-background="new 0 0 139.723 108.479"
	 xml:space="preserve">
<g>
	<path fill="#203466" d="M-0.038,28.698L0.056,93.5c0.012,8.26,6.743,14.979,15.003,14.979h0.021l109.663-0.16
		c4.007-0.005,7.772-1.569,10.602-4.406s4.384-6.606,4.379-10.615l-0.093-64.801c-0.005-4.007-1.571-7.771-4.409-10.601
		c-2.831-2.822-6.59-4.376-10.586-4.376l-5.36,0.007L119.26,2.995c-0.001-0.801-0.314-1.554-0.881-2.119
		C117.812,0.312,117.06,0,116.26,0L90.256,0.037c-0.802,0.001-1.554,0.313-2.12,0.881c-0.565,0.567-0.876,1.321-0.875,2.123
		l0.015,10.531L53.274,13.62L53.26,3.089c-0.001-0.801-0.314-1.554-0.881-2.119c-0.55-0.549-1.339-0.876-2.11-0.876L24.256,0.131
		c-0.801,0.001-1.554,0.314-2.12,0.882C21.57,1.58,21.259,2.334,21.26,3.136l0.014,10.531l-6.334,0.009
		C6.67,13.69-0.048,20.43-0.038,28.698z M47.264,6.099l0.01,7.531l-20,0.027l-0.01-7.531L47.264,6.099z M14.949,19.676l75.334-0.108
		c0.801-0.001,1.554-0.314,2.12-0.882c0.554-0.556,0.864-1.29,0.875-2.072L93.264,6.032l20-0.027l0.011,7.531l-7.376,0.009
		c-1.654,0.002-2.998,1.35-2.996,3.005c0.002,1.651,1.348,2.995,3,2.995l18.714-0.024c2.413,0,4.668,0.933,6.367,2.626
		c1.702,1.697,2.641,3.956,2.645,6.359l0.093,64.802c0.003,2.404-0.93,4.666-2.627,6.369c-1.697,1.701-3.956,2.64-6.36,2.643
		l-109.665,0.16c-4.968,0-9.007-4.032-9.015-8.989L5.962,28.688C5.956,23.728,9.987,19.685,14.949,19.676z"/>
	<path fill="#203466" d="M106.368,78.445l-0.021-14.501l14.5-0.021c0.801-0.001,1.554-0.314,2.12-0.882s0.877-1.321,0.875-2.122
		c-0.002-1.652-1.348-2.996-3-2.996l-14.505,0.021l-0.021-14.499c-0.002-1.652-1.348-2.996-3-2.996
		c-1.659,0.003-3.002,1.351-3,3.004l0.021,14.501l-14.5,0.021c-1.654,0.003-2.998,1.351-2.996,3.004
		c0.002,1.652,1.348,2.996,3,2.996l14.504-0.021l0.021,14.5c0.002,1.651,1.348,2.995,3,2.995l0.006,1l-0.002-1
		C105.027,81.446,106.371,80.099,106.368,78.445z"/>
	<path fill="#203466" d="M54.848,64.019c0.801-0.001,1.554-0.314,2.12-0.882s0.877-1.321,0.875-2.122
		c-0.002-1.652-1.348-2.996-3-2.996L19.839,58.07c-0.801,0.001-1.554,0.314-2.12,0.882s-0.877,1.321-0.875,2.122
		c0.002,1.652,1.348,2.996,3,2.996l0.006,1l-0.001-1L54.848,64.019z"/>
</g>
</svg>
