<?xml version="1.0" encoding="utf-8"?>
<!-- Generator: Adobe Illustrator 16.0.0, SVG Export Plug-In . SVG Version: 6.00 Build 0)  -->
<!DOCTYPE svg PUBLIC "-//W3C//DTD SVG 1.1//EN" "http://www.w3.org/Graphics/SVG/1.1/DTD/svg11.dtd">
<svg version="1.1" id="Layer_1" xmlns="http://www.w3.org/2000/svg" xmlns:xlink="http://www.w3.org/1999/xlink" x="0px" y="0px"
	 width="170.722px" height="69.527px" viewBox="0 0 170.722 69.527" enable-background="new 0 0 170.722 69.527"
	 xml:space="preserve">
<g>
	<g>
		<polygon fill="#203466" points="46.722,46.833 46.722,46.833 46.722,46.833 		"/>
		<path fill="#203466" d="M119.732,69.479c0.699,0,1.37-0.297,1.842-0.813l45.625-49.953c0.508-0.556,0.736-1.302,0.628-2.047
			c-0.108-0.744-0.541-1.394-1.186-1.782l-7.714-4.635c-0.813-0.488-1.889-0.463-2.679,0.065l-39.444,26.379L99.078,24.406
			c-0.42-0.292-0.913-0.445-1.424-0.445l-24.193,0.034l-0.008-5.693l13.397-0.019c0.667-0.001,1.294-0.262,1.766-0.735
			c0.473-0.473,0.731-1.101,0.73-1.768l-0.02-13.284C89.325,1.12,88.204,0,86.827,0l-31.8,0.045
			c-0.667,0.001-1.295,0.262-1.768,0.735c-0.471,0.472-0.729,1.1-0.729,1.768l0.02,13.283c0.002,1.377,1.123,2.497,2.5,2.497
			l13.402-0.019l0.008,5.693l-21.479,0.03L13.811,4.028c-0.39-0.235-0.835-0.36-1.289-0.36c-0.722,0-1.408,0.312-1.884,0.854
			C9.928,5.334,6.243,9.66,3.401,15.216c-3.542,6.924-4.322,12.745-2.32,17.302c2.781,6.333,16.743,12.486,37.348,16.458
			l1.441,0.278l-2.975,17.417c-0.124,0.728,0.078,1.47,0.556,2.035c0.476,0.562,1.172,0.886,1.909,0.886l0.006,1.5l-0.002-1.5
			L119.732,69.479z M57.547,13.324l-0.012-8.283l26.796-0.038l0.012,8.283L57.547,13.324z M5.659,30.508
			c-2.74-6.238,3.7-16.056,6.596-19.988l0.812-1.101l30.468,18.375l-1.243,7.297c-0.112,0.658,0.039,1.321,0.425,1.866
			c0.387,0.545,0.962,0.907,1.62,1.019c1.378,0.231,2.656-0.701,2.885-2.045l1.175-6.899l48.479-0.069l18.481,12.809
			c0.829,0.575,1.977,0.583,2.814,0.023l39.541-26.443l3.736,2.246L118.624,64.48l-76.3,0.108l2.897-17.025
			c0-0.051,0.003-0.104,0.008-0.156l0.012-0.133c0.005-0.051,0.013-0.103,0.013-0.153c-0.012-0.038-0.021-0.102-0.028-0.168
			l-0.012-0.106c-0.007-0.068-0.009-0.137-0.024-0.203l-0.051-0.135c-0.032-0.108-0.056-0.198-0.088-0.279
			c-0.026-0.044-0.05-0.086-0.072-0.13c-0.05-0.099-0.097-0.194-0.153-0.283l-0.08-0.101c-0.072-0.097-0.149-0.193-0.237-0.281
			l-0.027-0.023c-0.117-0.108-0.217-0.192-0.32-0.264l-0.118-0.075c-0.104-0.063-0.243-0.133-0.386-0.188
			c-0.174-0.063-0.305-0.1-0.43-0.124l-0.029-0.004C30.135,42.595,8.433,36.823,5.659,30.508z"/>
	</g>
	<path fill="#203466" d="M160.836,64.77c2.645-0.004,5.129-1.037,6.997-2.909c1.866-1.872,2.892-4.36,2.889-7.005
		c-0.005-2.973-2.904-9.814-7.755-18.301c-0.443-0.777-1.275-1.259-2.17-1.259c-0.9,0.001-1.731,0.486-2.174,1.266
		c-4.825,8.504-7.703,15.354-7.699,18.326c0.01,5.45,4.449,9.883,9.897,9.883 M159.321,59.535c-1.966-0.633-3.394-2.475-3.397-4.644
		c0.068-1.872,2.246-6.572,3.538-9.212l1.342-2.741l1.351,2.736c1.301,2.634,3.492,7.322,3.566,9.131
		c0.002,1.369-0.506,2.6-1.43,3.526c-0.56,0.561-1.231,0.97-1.967,1.205"/>
</g>
</svg>
