<?xml version="1.0" encoding="utf-8"?>
<!-- Generator: Adobe Illustrator 16.0.0, SVG Export Plug-In . SVG Version: 6.00 Build 0)  -->
<!DOCTYPE svg PUBLIC "-//W3C//DTD SVG 1.1//EN" "http://www.w3.org/Graphics/SVG/1.1/DTD/svg11.dtd">
<svg version="1.1" id="Layer_1" xmlns="http://www.w3.org/2000/svg" xmlns:xlink="http://www.w3.org/1999/xlink" x="0px" y="0px"
	 width="45.104px" height="39px" viewBox="105.008 37.249 45.104 39" enable-background="new 105.008 37.249 45.104 39"
	 xml:space="preserve">
<path fill="#FFFFFF" d="M127.56,37.249l-22.552,6.912V64.19l22.552,12.059l22.552-12.059V44.161L127.56,37.249z M127.56,52.788
	l-8.728-3.532c3.935-1.514,11.755-4.642,18.97-7.315l9.435,2.875L127.56,52.788z M134.321,40.831l-19.122,6.962l-7.315-2.977
	l19.676-6.004L134.321,40.831z M106.471,45.775l7.77,3.128v7.669l3.38,1.564v-7.821l9.232,3.734v20.13l-20.382-10.847V45.775z
	 M128.267,74.179V54.05l20.382-8.274v17.558L128.267,74.179z"/>
<polyline fill="#FFFFFF" points="130.385,55.311 130.385,62.828 136.49,59.953 136.49,52.738 "/>
</svg>
