<?xml version="1.0" encoding="utf-8"?>
<!-- Generator: Adobe Illustrator 16.0.0, SVG Export Plug-In . SVG Version: 6.00 Build 0)  -->
<!DOCTYPE svg PUBLIC "-//W3C//DTD SVG 1.1//EN" "http://www.w3.org/Graphics/SVG/1.1/DTD/svg11.dtd">
<svg version="1.1" id="Layer_1" xmlns="http://www.w3.org/2000/svg" xmlns:xlink="http://www.w3.org/1999/xlink" x="0px" y="0px"
	 width="60.024px" height="41px" viewBox="99.192 34.211 60.024 41" enable-background="new 99.192 34.211 60.024 41"
	 xml:space="preserve">
<path fill="#FFFFFF" d="M157.151,39.407c-1.532-0.267-3.132-0.533-4.663-0.799c-1.599-0.333-3.265-0.6-4.864-0.866
	c-1.598-0.333-3.264-0.6-4.862-0.866c-1.666-0.266-3.397-0.599-5.063-0.866c-1.665-0.266-3.397-0.6-5.062-0.866
	c-1.865-0.333-3.664-0.6-5.53-0.933c-0.066,0-0.2,0-0.266,0.066c-9.127,4.93-18.32,9.927-27.514,14.856
	c-0.067,0.066-0.134,0.133-0.134,0.266c0,6.063,0,14.058,0,20.121c0,0.067,0,0.133,0,0.2h0.067
	c1.132,0.133,30.844,5.197,32.51,5.463c0.2,0.066,0.333,0,0.532-0.066c8.928-4.997,17.788-9.927,26.715-14.857
	c0.134-0.066,0.2-0.133,0.2-0.266c0-5.996,0-14.058,0-20.054c0-0.066,0-0.133,0-0.2C158.617,39.607,158.017,39.54,157.151,39.407z
	 M100.808,49.759c8.72-4.737,17.516-9.473,26.237-14.209c0.151-0.075,0.301-0.075,0.376-0.075c3.458,0.601,6.916,1.203,10.375,1.805
	c3.532,0.677,7.142,1.277,10.675,1.879c2.932,0.451,5.939,0.978,8.871,1.504c0.226,0,0.452,0.075,0.677,0.15
	c-0.075,0.076-0.075,0.076-0.15,0c-8.795,4.886-17.517,9.698-26.312,14.509c-0.15,0.076-0.302,0.076-0.376,0.076
	c-2.255-0.376-4.436-0.827-6.691-1.204c-2.331-0.451-4.586-0.827-6.916-1.278c-2.331-0.376-4.737-0.827-7.067-1.278
	c-2.256-0.376-4.436-0.827-6.691-1.203c-0.978-0.15-2.03-0.376-3.007-0.527c-0.076,0-0.076,0-0.151,0
	C100.732,49.834,100.732,49.759,100.808,49.759z M100.149,53.296c0.018,0.003,0.032,0.006,0.05,0.009l0.09-1.529
	c0-0.239,0-0.479,0-0.717c0.35,0.07,0.699,0.14,1.048,0.21c2.308,0.419,4.685,0.839,6.993,1.259c2.027,0.35,3.985,0.769,6.013,1.118
	c1.888,0.35,3.706,0.699,5.594,1.049c2.098,0.35,4.125,0.77,6.223,1.119c1.818,0.35,3.566,0.629,5.384,0.979
	c0.141,0,0.28,0,0.35-0.07c5.034-2.796,22.444-12.376,26.15-14.403c0.069-0.07,0.069-0.07,0.209-0.14
	c0,0.284-0.005,0.537-0.019,0.773l0.004-0.002l0.01,1.539c0.001-0.001,0.003-0.001,0.005-0.003c0,0.42,0,0.84,0,1.259
	c0,0.07-0.069,0.141-0.14,0.141c-1.539,0.838-18.879,10.417-26.15,14.333c-0.209,0.07-0.35,0.14-0.56,0.07
	c-1.957-0.35-21.255-3.775-23.213-4.125c-1.958-0.35-3.985-0.699-5.943-1.049c-0.629-0.14-1.258-0.209-1.888-0.349
	c-0.14,0-0.209-0.07-0.209-0.209C100.149,54.135,100.149,53.715,100.149,53.296z M100.149,58.959c0-0.349,0-0.699,0-1.118
	c0.009,0.002,0.017,0.002,0.025,0.005l0.114-1.945c0-0.053,0-0.105,0-0.158c0-0.07,0-0.14,0-0.209
	c0.35,0.069,0.699,0.14,1.048,0.209c2.028,0.35,3.986,0.699,6.013,1.049c1.958,0.35,20.836,3.707,22.724,4.055
	c0.629,0.07,1.188,0.14,1.749,0.28c0.139,0,0.209,0,0.349-0.07c8.601-4.754,17.271-9.509,25.871-14.263
	c0.069-0.07,0.14-0.07,0.209-0.14c0,0.07,0,0.07,0,0.14c0,0.349,0,0.629,0,0.978c0,0.04-0.007,0.064-0.01,0.094l0.006,1.028
	c0.002-0.001,0.003-0.001,0.004-0.002c0,0.279,0,0.49,0,0.699c0.071,0.489-0.14,0.769-0.56,0.979
	c-8.529,4.685-17.13,9.438-25.73,14.333c-0.139,0.07-0.278,0.07-0.419,0.07c-1.818-0.35-29.996-5.454-31.115-5.663
	C100.079,59.239,100.149,59.309,100.149,58.959z M158.324,58.582c0,0.209-0.071,0.279-0.28,0.419
	c-8.67,4.755-17.34,9.58-25.94,14.474c-0.141,0.07-0.279,0.07-0.49,0.07c-1.748-0.35-29.576-5.104-31.184-5.384
	c-0.07,0-0.14-2-0.14-2.07c0-0.559,0-1.119,0-1.678c0.419,0.071,0.769,0.141,1.118,0.141c1.818,0.349,25.871,4.685,27.69,5.034
	c0.908,0.21,1.747,0.35,2.587,0.49c0.14,0,0.278,0,0.419-0.07c8.67-4.824,17.271-9.58,26.01-14.264c0.07-0.07,0.14-0.07,0.211-0.14
	C158.324,55.952,158.324,58.302,158.324,58.582z M158.393,51.338c0,0.28-0.141,2.93-0.141,2.93c0,0.048,0,0.102,0,0.146
	c0,0.21,0,0.28-0.069,0.28c-2.728,1.538-20.138,11.047-26.08,14.333c-0.141,0.07-0.279,0.07-0.419,0.07
	c-1.89-0.349-30.136-5.243-31.255-5.453c-0.07-0.07-0.14-0.07-0.14-0.14c0-0.168,0-0.339,0-0.512l-0.011-0.002l0.011-2.381
	c0-0.158,0-0.316,0-0.46c0,0,0-0.07,0-0.14c0.489,0.07,0.979,0.14,1.468,0.14c1.818,0.35,26.22,4.754,28.177,5.104
	c0.631,0.14,1.259,0.28,1.89,0.35c0.069,0,0.209,0,0.279-0.07c2.866-1.608,20.137-11.118,25.94-14.333
	C158.113,51.198,158.393,51.268,158.393,51.338z"/>
</svg>
