<?xml version="1.0" encoding="utf-8"?>
<!-- Generator: Adobe Illustrator 16.0.0, SVG Export Plug-In . SVG Version: 6.00 Build 0)  -->
<!DOCTYPE svg PUBLIC "-//W3C//DTD SVG 1.1//EN" "http://www.w3.org/Graphics/SVG/1.1/DTD/svg11.dtd">
<svg version="1.1" id="Layer_1" xmlns="http://www.w3.org/2000/svg" xmlns:xlink="http://www.w3.org/1999/xlink" x="0px" y="0px"
	 width="41.564px" height="39px" viewBox="106.778 37.192 41.564 39" enable-background="new 106.778 37.192 41.564 39"
	 xml:space="preserve">
<g>
	<path fill="#FFFFFF" d="M133.858,51.139c1.334,0,2.566-0.768,3.468-2.161c0.84-1.296,1.302-3.005,1.302-4.812
		c0-1.807-0.462-3.517-1.302-4.813c-0.901-1.394-2.134-2.161-3.468-2.161c-1.335,0-2.567,0.768-3.47,2.161
		c-0.84,1.296-1.302,3.006-1.302,4.813c0,1.808,0.462,3.516,1.302,4.812C131.292,50.371,132.523,51.139,133.858,51.139z
		 M133.858,38.637c1.802,0,3.324,2.532,3.324,5.529c0,2.996-1.522,5.527-3.324,5.527c-1.804,0-3.326-2.532-3.326-5.527
		C130.532,41.169,132.055,38.637,133.858,38.637z"/>
	<path fill="#FFFFFF" d="M145.967,48.923c-0.35-0.132-0.721-0.2-1.103-0.2c-1.99,0-4.079,1.842-5.078,4.48
		c-0.567,1.495-0.72,3.055-0.431,4.392c0.312,1.452,1.103,2.484,2.225,2.909c0.351,0.133,0.721,0.201,1.104,0.201
		c1.991,0,4.078-1.842,5.078-4.479C148.993,52.977,148.205,49.771,145.967,48.923z M146.411,55.713
		c-0.779,2.055-2.346,3.546-3.727,3.546c-0.206,0-0.405-0.036-0.592-0.106c-0.648-0.246-1.118-0.908-1.324-1.862
		c-0.229-1.069-0.099-2.338,0.37-3.575c0.778-2.055,2.345-3.546,3.727-3.546c0.207,0,0.405,0.035,0.591,0.106
		C146.884,50.816,147.323,53.306,146.411,55.713z"/>
	<path fill="#FFFFFF" d="M141.789,70.818c0-3.097-2.743-6.931-5.164-10.312c-0.915-1.279-1.779-2.487-2.438-3.567
		c-2.11-3.461-5.062-3.835-6.233-3.835c-0.175,0-0.309,0.008-0.393,0.016c-0.084-0.009-0.218-0.016-0.393-0.016
		c-1.171,0-4.123,0.374-6.233,3.835c-0.658,1.08-1.522,2.288-2.438,3.567c-2.421,3.382-5.165,7.215-5.165,10.312l0,0.382
		c-0.002,2.254-0.003,3.614,0.792,4.411c0.39,0.392,0.915,0.58,1.604,0.58c0.524,0,1.155-0.106,1.988-0.336
		c1.299-0.358,2.33-0.821,3.327-1.269c1.784-0.801,3.468-1.557,6.517-1.557c3.05,0,4.734,0.757,6.518,1.558
		c0.997,0.446,2.027,0.908,3.328,1.268c0.832,0.229,1.464,0.336,1.986,0.336h0.001c0.689,0,1.215-0.188,1.604-0.58
		c0.796-0.795,0.794-2.155,0.791-4.409V70.818z M139.975,74.591c-0.039,0.039-0.156,0.156-0.583,0.156l0,0
		c-0.384,0-0.909-0.094-1.604-0.285c-1.193-0.33-2.173-0.769-3.12-1.193c-1.844-0.826-3.75-1.682-7.109-1.682
		c-3.358,0-5.265,0.855-7.108,1.682c-0.948,0.425-1.927,0.864-3.12,1.193c-0.695,0.191-1.219,0.285-1.604,0.285
		c-0.426,0-0.543-0.117-0.582-0.156c-0.373-0.373-0.372-1.703-0.369-3.388v-0.384c0-2.633,2.6-6.266,4.895-9.472
		c0.932-1.301,1.811-2.53,2.497-3.656c1.729-2.836,4.072-3.142,4.999-3.142c0.185,0,0.293,0.013,0.293,0.013h0
		c0.062,0.009,0.131,0.009,0.194,0c0,0,0.11-0.013,0.298-0.013c0.927,0,3.27,0.306,5,3.142c0.686,1.126,1.565,2.354,2.496,3.656
		c2.294,3.206,4.896,6.839,4.896,9.472v0.385C140.345,72.887,140.347,74.218,139.975,74.591z"/>
	<path fill="#FFFFFF" d="M121.263,51.139c1.335,0,2.566-0.768,3.469-2.161c0.84-1.296,1.302-3.005,1.302-4.812
		c0-1.807-0.462-3.517-1.302-4.813c-0.902-1.394-2.134-2.161-3.469-2.161c-1.334,0-2.566,0.768-3.469,2.161
		c-0.839,1.296-1.301,3.006-1.301,4.813c0,1.808,0.462,3.516,1.301,4.812C118.696,50.371,119.928,51.139,121.263,51.139z
		 M121.263,38.637c1.803,0,3.325,2.532,3.325,5.529c0,2.996-1.523,5.527-3.325,5.527s-3.325-2.531-3.325-5.527
		C117.938,41.169,119.46,38.637,121.263,38.637z"/>
	<path fill="#FFFFFF" d="M115.765,57.595c0.288-1.337,0.135-2.897-0.431-4.392c-0.999-2.638-3.088-4.48-5.079-4.48
		c-0.382,0-0.754,0.067-1.104,0.2c-2.236,0.848-3.024,4.054-1.794,7.302c0.999,2.637,3.087,4.479,5.078,4.479
		c0.382,0,0.754-0.068,1.104-0.201C114.661,60.079,115.452,59.047,115.765,57.595z M112.436,59.259c-1.38,0-2.948-1.491-3.727-3.546
		c-0.911-2.407-0.474-4.896,0.955-5.438c0.185-0.071,0.384-0.106,0.591-0.106c1.38,0,2.948,1.491,3.727,3.546
		c0.468,1.237,0.6,2.506,0.369,3.575c-0.206,0.955-0.676,1.617-1.324,1.862C112.842,59.223,112.643,59.259,112.436,59.259z"/>
</g>
</svg>
