<?xml version="1.0" encoding="utf-8"?>
<!-- Generator: Adobe Illustrator 16.0.0, SVG Export Plug-In . SVG Version: 6.00 Build 0)  -->
<!DOCTYPE svg PUBLIC "-//W3C//DTD SVG 1.1//EN" "http://www.w3.org/Graphics/SVG/1.1/DTD/svg11.dtd">
<svg version="1.1" id="Camada_1" xmlns="http://www.w3.org/2000/svg" xmlns:xlink="http://www.w3.org/1999/xlink" x="0px" y="0px"
	 width="618px" height="318.621px" viewBox="0 0 618 318.621" enable-background="new 0 0 618 318.621" xml:space="preserve">
<g>
	<g>
		<g>
			<path fill="#009FE3" d="M607.453,121.38H429.97c-5.303,0-9.645,4.34-9.645,9.647v177.48c0,5.311,4.342,9.65,9.645,9.65h177.483
				c5.308,0,9.65-4.34,9.65-9.65v-177.48C617.104,125.72,612.761,121.38,607.453,121.38z"/>
			<path fill="#FFFFFF" d="M603.936,238.674c-7.117-9.027-24.537-10.929-33.97-10.929c-39.291,0-76.873,7.309-111.467,20.646
				c0.298-10.241,0.014-20.502-1.146-30.611c26.332-7.692,72.787-13.859,103.361-11.18
				C589.271,209.106,600.033,225.018,603.936,238.674z M591.146,212.615c-7.959-7.483-14.044-12.87-38.188-16.362
				c-24.145-3.487-75.23,1.778-97.84,7.479c-1.624-8.942-3.803-17.762-6.539-26.412c15.497-2.725,31.436-4.146,47.719-4.146
				c15.82,0,31.337,1.343,46.428,3.923C574.658,182.557,584.824,200.446,591.146,212.615z M431.268,138.166
				c82.233-2.125,128.433,33.875,137.643,43.792c-8.007-6.676-23.458-12.36-36.768-14.922c-16.359-3.144-33.235-4.773-50.58-4.773
				c-12.671,0-25.143,0.885-37.335,2.597C441.106,156.746,435.354,145.863,431.268,138.166z M591.146,290.788
				c13.225-27.338,10.124-32.127-15.862-28.945c-40.37,4.937-91.272,22.212-129.716,42.987c7.021-13.575,10.45-27.231,11.78-39.568
				c37.133-16.294,77.981-25.678,120.919-26.537C623.202,237.843,606.35,272.229,591.146,290.788z"/>
		</g>
		<g>
			<path fill="#FFFFFF" d="M257.25,236.908c5.545-0.812,13.803-1.413,22.97-1.413c11.307,0,19.224,1.513,24.66,5.348
				c4.521,3.236,7.007,10.06,7.007,16.322c0,8.686-5.601,14.882-12.168,17.003v0.308c3.267,4.549,22.742,29.578,22.742,29.578
				h-19.034l-20.456-26.763h-8.627v26.763H257.25V236.908z M274.344,266.189h6.775c8.604,0,13.689-3.835,13.689-9.802
				c0-6.257-4.759-9.387-12.671-9.483c-4.181,0-6.567,0.31-7.793,0.497V266.189z M4.41,288.248
				c4.645,2.118,11.776,4.235,19.134,4.235c7.926,0,12.122-2.927,12.122-7.37c0-4.255-3.622-6.677-12.799-9.603
				c-12.68-3.938-20.943-10.207-20.943-20.124c0-11.62,10.862-20.52,28.865-20.52c8.618,0,14.954,1.629,19.485,3.445l-3.845,12.434
				c-3.063-1.309-8.5-3.233-15.98-3.233c-7.463,0-11.099,3.03-11.099,6.564c0,4.347,4.304,6.265,14.162,9.605
				C46.992,268.13,53.322,274.397,53.322,284c0,11.421-9.849,21.23-30.796,21.23c-8.717,0-17.33-2.127-21.63-4.248L4.41,288.248z
				 M104.745,275.311H76.661v16.17h31.365v12.636H59.331v-68.128h47.109v12.638H76.661v14.146h28.083V275.311z M177.896,300.982
				c-5.322,1.617-15.398,3.838-25.484,3.838c-13.926,0-24.001-3.137-31.029-9.197c-7.021-5.865-10.871-14.765-10.753-24.76
				c0.118-22.646,18.566-35.591,43.6-35.591c9.854,0,17.43,1.714,21.18,3.345l-3.622,12.328c-4.19-1.61-9.404-2.929-17.79-2.929
				c-14.375,0-25.242,7.28-25.242,22.032c0,14.046,9.849,22.342,24.006,22.342c3.958,0,7.136-0.404,8.49-1.011v-14.25l0.057-12.029
				h16.587V300.982z M202.93,235.989v39.214c0,11.724,4.977,17.689,13.808,17.689c9.063,0,14.044-5.655,14.044-17.689v-39.214
				h17.216v38.21c0,21.019-11.89,31.031-31.824,31.031c-19.252,0-30.579-9.506-30.579-31.244v-37.997H202.93z M389.841,269.345
				c0,22.335-15.176,35.885-37.487,35.885c-22.647,0-35.896-15.264-35.896-34.673c0-20.417,14.607-35.69,37.142-35.69
				C377.042,234.867,389.841,250.542,389.841,269.345z M334.696,270.254c0,13.343,7.018,22.752,18.566,22.752
				c11.662,0,18.344-9.911,18.344-23.154c0-12.23-6.563-22.752-18.462-22.752C341.481,247.1,334.696,257.005,334.696,270.254z"/>
			<path fill="#FFFFFF" d="M61.22,141.421c-6.127-4.377-15.271-6.516-27.956-6.516c-10.985,0-20.271,0.547-27.662,1.636v80.427
				H24.94c0-1.411,0-29.76,0-29.76l0.833,0.119c1.866,0.231,4.309,0.357,7.065,0.357c12.78,0,23.059-2.955,29.717-8.566
				c5.336-4.515,8.277-11.313,8.277-19.12C70.833,152.499,67.343,145.721,61.22,141.421z M32.706,174.773
				c-3.31,0-5.455-0.157-7.178-0.512l-0.587-0.123v-25.657l0.554-0.144c0.947-0.225,3.684-0.75,8.874-0.75
				c10.729,0,17.136,4.82,17.136,12.912C51.504,169.296,44.297,174.773,32.706,174.773z M118.983,134.174
				c-26.18,0-44.467,17.55-44.467,42.682c0,24.802,17.269,41.467,42.957,41.467c27.264,0,44.883-16.853,44.883-42.935
				C162.355,154.869,148.946,134.174,118.983,134.174z M118.576,204.916c-14.181,0-23.348-11.158-23.348-28.425
				c0-17.29,9.328-28.904,23.22-28.904c13.656,0,23.192,11.684,23.192,28.417C141.64,193.566,132.596,204.916,118.576,204.916z
				 M221.141,182.102l-0.142-0.194v-1.146l0.511-0.171c6.601-2.128,14.314-8.65,14.314-20.017c0-8.009-3.31-15.758-8.229-19.276
				c-6.246-4.42-15.38-6.392-29.627-6.392c-9.948,0-19.821,0.606-27.236,1.636v80.427h19.333c0-1.418,0-32.598,0-32.598h11.625
				c0,0,24.495,32.027,24.925,32.598h21.317C243.523,211.305,224.636,186.962,221.141,182.102z M199.066,172.308h-9.001v-24.246
				l0.616-0.104c2.557-0.415,5.8-0.625,9.641-0.625c10.422,0.137,16.17,4.505,16.17,12.301
				C216.491,167.459,209.829,172.308,199.066,172.308z M308.464,135.524c0,1.278,0,12.993,0,14.264c-1.387,0-25.37,0-25.37,0
				s0,65.739,0,67.18c-1.316,0-18.277,0-19.607,0c0-1.441,0-67.18,0-67.18s-23.552,0-24.944,0c0-1.271,0-12.986,0-14.264
				C239.977,135.524,307.03,135.524,308.464,135.524z M350.422,134.174c-26.185,0-44.477,17.55-44.477,42.682
				c0,24.802,17.264,41.467,42.961,41.467c27.255,0,44.874-16.853,44.874-42.935C393.78,154.869,380.385,134.174,350.422,134.174z
				 M350,204.916c-14.172,0-23.339-11.158-23.339-28.425c0-17.29,9.318-28.904,23.206-28.904c13.666,0,23.202,11.684,23.202,28.417
				C373.069,193.566,364.025,204.916,350,204.916z"/>
		</g>
	</g>
	<path fill="#FFFFFF" d="M34.524,7.195H5.479V1.913h64.425v5.282H40.86v83.704h-6.335V7.195z"/>
	<path fill="#FFFFFF" d="M164.548,46.671h-35.512v38.946h39.736v5.282h-46.076V1.913h43.965v5.282h-37.625v34.194h35.512V46.671z"/>
	<path fill="#FFFFFF" d="M236.019,59.739l-10.957,31.159h-6.468l32.212-88.985h6.075l32.08,88.985h-6.468l-11.222-31.159H236.019z
		 M269.292,54.46l-10.829-29.708c-2.112-6.205-3.3-10.694-4.621-15.711h-0.261c-1.321,5.149-2.774,9.771-4.621,15.448l-10.957,29.97
		H269.292z"/>
	<path fill="#FFFFFF" d="M357.965,7.195H328.92V1.913h64.43v5.282h-29.045v83.704h-6.34V7.195z"/>
	<path fill="#FFFFFF" d="M442.973,3.102c5.545-1.188,13.068-1.849,19.276-1.849c11.614,0,19.011,2.51,24.025,7.394
		c3.83,3.696,6.207,9.638,6.207,15.844c0,12.015-7.131,19.672-17.429,23.237v0.263c7.131,2.244,11.619,8.978,13.731,18.881
		c3.035,13.862,4.754,20.462,6.601,24.028h-6.469c-1.453-2.64-3.3-10.429-5.677-21.653c-2.774-12.806-8.319-18.616-20.067-19.144
		h-13.864v40.797h-6.335V3.102z M449.308,44.955h14.13c13.727,0,22.704-7.659,22.704-19.409c0-13.599-10.033-19.144-24.025-19.144
		c-6.075,0-10.563,0.661-12.809,1.188V44.955z"/>
	<path fill="#FFFFFF" d="M577.447,92.35c-21.918,0-38.95-17.294-38.95-45.021c0-29.177,17.694-46.867,40.006-46.867
		c22.444,0,38.813,17.558,38.813,45.021c0,31.422-19.271,46.867-39.736,46.867H577.447z M577.841,87.07
		c21.127,0,32.875-19.144,32.875-41.192c0-18.749-10.299-40.137-32.61-40.137c-22.576,0-33.003,20.598-33.003,41.325
		c0,20.067,11.615,40.004,32.61,40.004H577.841z"/>
</g>
</svg>
