<?xml version="1.0" encoding="utf-8"?>
<!-- Generator: Adobe Illustrator 16.0.0, SVG Export Plug-In . SVG Version: 6.00 Build 0)  -->
<!DOCTYPE svg PUBLIC "-//W3C//DTD SVG 1.1//EN" "http://www.w3.org/Graphics/SVG/1.1/DTD/svg11.dtd">
<svg version="1.1" id="Layer_1" xmlns="http://www.w3.org/2000/svg" xmlns:xlink="http://www.w3.org/1999/xlink" x="0px" y="0px"
	 width="742.99px" height="126.745px" viewBox="0 0 742.99 126.745" enable-background="new 0 0 742.99 126.745"
	 xml:space="preserve">
<g>
	<defs>
		<rect id="SVGID_1_" x="-57.354" y="-57.845" width="858.898" height="242.387"/>
	</defs>
	<clipPath id="SVGID_2_">
		<use xlink:href="#SVGID_1_"  overflow="visible"/>
	</clipPath>
	<path clip-path="url(#SVGID_2_)" fill="#00AEEF" d="M81.076,0.573H14.518c-1.992,0-3.616,1.624-3.616,3.62v66.558
		c0,1.992,1.624,3.616,3.616,3.616h66.558c1.99,0,3.62-1.624,3.62-3.616V4.193C84.696,2.197,83.066,0.573,81.076,0.573"/>
	<path clip-path="url(#SVGID_2_)" fill="#FFFFFF" d="M79.757,44.56c-2.671-3.382-9.202-4.099-12.74-4.099
		c-14.735,0-28.83,2.749-41.804,7.745c0.112-3.843,0.006-7.688-0.427-11.479c9.873-2.884,27.293-5.198,38.761-4.194
		C74.255,33.472,78.291,39.442,79.757,44.56"/>
	<path clip-path="url(#SVGID_2_)" fill="#FFFFFF" d="M74.959,34.788c-2.987-2.803-5.265-4.827-14.32-6.133
		c-9.055-1.31-28.217,0.663-36.691,2.8c-0.609-3.354-1.431-6.657-2.452-9.905c5.811-1.023,11.786-1.549,17.892-1.549
		c5.934,0,11.756,0.502,17.413,1.471C68.775,23.519,72.587,30.223,74.959,34.788"/>
	<path clip-path="url(#SVGID_2_)" fill="#FFFFFF" d="M15.001,6.87c30.839-0.8,48.164,12.703,51.618,16.422
		c-3.003-2.504-8.795-4.638-13.789-5.599c-6.132-1.176-12.46-1.788-18.971-1.788c-4.75,0-9.422,0.331-13.995,0.978
		C18.693,13.837,16.534,9.757,15.001,6.87"/>
	<path clip-path="url(#SVGID_2_)" fill="#FFFFFF" d="M74.959,64.105c4.961-10.254,3.797-12.048-5.948-10.856
		C53.87,55.102,34.78,61.584,20.366,69.371c2.632-5.091,3.918-10.215,4.42-14.836c13.92-6.114,29.242-9.632,45.344-9.954
		C86.981,44.251,80.66,57.144,74.959,64.105"/>
	<path clip-path="url(#SVGID_2_)" fill="#FFFFFF" d="M62.483,109.062c1.351-0.2,3.357-0.345,5.591-0.345
		c2.752,0,4.677,0.368,6.004,1.301c1.099,0.789,1.702,2.451,1.702,3.976c0,2.112-1.364,3.616-2.96,4.137v0.073
		c0.794,1.107,5.532,7.199,5.532,7.199h-4.634l-4.978-6.512h-2.098v6.512h-4.159V109.062z M66.643,116.189h1.65
		c2.094,0,3.331-0.937,3.331-2.387c0-1.523-1.157-2.286-3.082-2.312c-1.015,0-1.601,0.082-1.899,0.126V116.189z M0.956,121.558
		c1.13,0.515,2.865,1.031,4.656,1.031c1.928,0,2.951-0.715,2.951-1.794c0-1.036-0.884-1.624-3.118-2.335
		c-3.085-0.966-5.094-2.487-5.094-4.901c0-2.828,2.642-4.992,7.023-4.992c2.096,0,3.638,0.392,4.741,0.833l-0.937,3.031
		c-0.742-0.322-2.064-0.792-3.886-0.792c-1.817,0-2.698,0.741-2.698,1.602c0,1.057,1.045,1.527,3.442,2.337
		c3.282,1.082,4.823,2.608,4.823,4.944c0,2.779-2.398,5.166-7.494,5.166c-2.121,0-4.219-0.512-5.266-1.032L0.956,121.558z
		 M25.371,118.408h-6.833v3.937h7.635v3.074H14.319v-16.58h11.463v3.071h-7.245v3.447h6.833V118.408z M43.174,124.655
		c-1.298,0.393-3.748,0.934-6.202,0.934c-3.39,0-5.839-0.765-7.551-2.237c-1.712-1.432-2.649-3.593-2.616-6.026
		c0.026-5.51,4.517-8.661,10.61-8.661c2.394,0,4.241,0.418,5.152,0.815l-0.881,3c-1.022-0.392-2.288-0.712-4.331-0.712
		c-3.496,0-6.141,1.766-6.141,5.36c0,3.418,2.398,5.437,5.84,5.437c0.964,0,1.735-0.102,2.068-0.244v-3.469l0.013-2.925h4.039
		V124.655z M49.264,108.839v9.545c0,2.849,1.212,4.304,3.357,4.304c2.213,0,3.422-1.379,3.422-4.304v-9.545h4.188v9.298
		c0,5.115-2.891,7.551-7.744,7.551c-4.683,0-7.441-2.313-7.441-7.602v-9.247H49.264z M94.749,116.958
		c0,5.433-3.692,8.729-9.124,8.729c-5.51,0-8.732-3.717-8.732-8.437c0-4.972,3.558-8.685,9.039-8.685
		C91.638,108.566,94.749,112.38,94.749,116.958 M81.332,117.179c0,3.249,1.704,5.534,4.516,5.534c2.838,0,4.465-2.411,4.465-5.628
		c0-2.981-1.597-5.544-4.492-5.544C82.982,111.541,81.332,113.953,81.332,117.179"/>
	<path clip-path="url(#SVGID_2_)" fill="#FFFFFF" d="M14.781,85.823c-1.496-1.066-3.716-1.584-6.808-1.584
		c-2.67,0-4.932,0.134-6.728,0.396v19.573h4.704v-7.243l0.202,0.028c0.456,0.058,1.053,0.09,1.718,0.09
		c3.11,0,5.618-0.724,7.237-2.083c1.294-1.1,2.011-2.755,2.011-4.654C17.117,88.518,16.272,86.87,14.781,85.823 M7.84,93.942
		c-0.803,0-1.327-0.036-1.746-0.128l-0.145-0.029v-6.244l0.138-0.035c0.233-0.054,0.89-0.185,2.155-0.185
		c2.613,0,4.173,1.176,4.173,3.144C12.415,92.608,10.661,93.942,7.84,93.942 M28.835,84.059c-6.372,0-10.821,4.275-10.821,10.389
		c0,6.034,4.205,10.092,10.454,10.092c6.634,0,10.923-4.104,10.923-10.448C39.391,89.096,36.129,84.059,28.835,84.059
		 M28.735,101.273c-3.449,0-5.678-2.709-5.678-6.914c0-4.204,2.265-7.038,5.649-7.038c3.324,0,5.647,2.847,5.647,6.918
		C34.353,98.513,32.146,101.273,28.735,101.273 M53.698,95.723l-0.035-0.051v-0.273l0.125-0.042
		c1.604-0.518,3.484-2.104,3.484-4.868c0-1.95-0.809-3.838-2.003-4.694c-1.52-1.078-3.744-1.555-7.21-1.555
		c-2.422,0-4.825,0.15-6.633,0.396v19.573h4.709v-7.933h2.828c0,0,5.959,7.792,6.066,7.933h5.185
		C59.143,102.828,54.546,96.907,53.698,95.723 M48.325,93.342h-2.19v-5.902l0.146-0.026c0.625-0.1,1.412-0.148,2.349-0.148
		c2.535,0.033,3.931,1.096,3.931,2.991C52.561,92.159,50.942,93.342,48.325,93.342 M74.949,84.39v3.473h-6.174v16.347h-4.771V87.862
		h-6.075V84.39H74.949z M85.157,84.059c-6.372,0-10.823,4.275-10.823,10.389c0,6.034,4.197,10.092,10.455,10.092
		c6.633,0,10.919-4.104,10.919-10.448C95.708,89.096,92.447,84.059,85.157,84.059 M85.055,101.273c-3.45,0-5.676-2.709-5.676-6.914
		c0-4.204,2.263-7.038,5.645-7.038c3.326,0,5.647,2.847,5.647,6.918C90.671,98.513,88.465,101.273,85.055,101.273"/>
	<path clip-path="url(#SVGID_2_)" fill="#A7A9AC" d="M143.278,47.692V0.598h19.504c8.089,0,13.932,7.495,13.932,14.792
		c0,7.692-5.442,14.924-13.531,14.924h-15.328v17.378H143.278z M147.855,26.2h15.058c5.573,0,9.154-5.106,9.154-10.81
		c0-5.904-4.376-10.678-9.548-10.678h-14.664V26.2z"/>
	<path clip-path="url(#SVGID_2_)" fill="#A7A9AC" d="M181.581,30.511c0-9.683,7.294-17.973,17.181-17.973
		c9.88,0,17.181,8.29,17.181,17.973c0,9.621-7.232,17.845-17.181,17.845C188.682,48.355,181.581,40.132,181.581,30.511
		 M198.693,44.376c6.9,0,12.604-6.236,12.604-13.931c0-7.696-5.704-13.929-12.535-13.929c-6.9,0-12.535,6.303-12.535,14.063
		C186.227,38.271,191.8,44.376,198.693,44.376"/>
	<path clip-path="url(#SVGID_2_)" fill="#A7A9AC" d="M241.898,17.115c-6.036,0.197-10.882,3.512-12.735,9.085v21.492h-4.515V13.133
		h4.245v8.293c2.392-4.843,6.568-8.491,11.014-8.491c0.795,0,1.528,0,1.991,0.066V17.115z"/>
	<path clip-path="url(#SVGID_2_)" fill="#A7A9AC" d="M265.993,46.033c-1.065,0.467-4.114,2.057-7.827,2.057
		c-3.913,0-7.294-2.188-7.294-6.634V16.714h-4.777v-3.582h4.777V1.458h4.508v11.674h7.958v3.582h-7.958v23.483
		c0.201,2.52,1.991,3.712,4.176,3.712c2.524,0,4.715-1.192,5.241-1.524L265.993,46.033z"/>
	<path clip-path="url(#SVGID_2_)" fill="#A7A9AC" d="M269.65,30.511c0-9.683,7.294-17.973,17.181-17.973
		c9.88,0,17.181,8.29,17.181,17.973c0,9.621-7.232,17.845-17.181,17.845C276.751,48.355,269.65,40.132,269.65,30.511
		 M286.763,44.376c6.9,0,12.604-6.236,12.604-13.931c0-7.696-5.704-13.929-12.535-13.929c-6.9,0-12.535,6.303-12.535,14.063
		C274.296,38.271,279.87,44.376,286.763,44.376"/>
	<path clip-path="url(#SVGID_2_)" fill="#A7A9AC" d="M348.946,9.42c-2.655-2.987-7.294-5.04-12.867-5.04
		c-8.359,0-12.009,3.381-12.009,8.753c0,5.572,4.051,7.031,13.136,9.022c10.018,2.123,16.248,4.775,16.248,13.199
		c0,8.691-7.094,12.735-16.912,12.735c-7.363,0-13.731-2.319-18.902-6.83l2.254-3.782c3.45,3.581,9.548,6.499,16.718,6.499
		c7.494,0,12.002-2.717,12.002-8.159c0-5.769-4.84-7.626-14.263-9.748c-9.811-2.254-14.99-4.643-14.99-12.273
		c0-8.756,6.9-13.53,16.78-13.53c6.175,0,11.083,1.991,14.997,5.438L348.946,9.42z"/>
	<path clip-path="url(#SVGID_2_)" fill="#A7A9AC" d="M359.849,30.313c0-9.686,7.294-17.776,17.312-17.776
		c10.081,0,17.05,8.224,17.111,17.71c0,0.664-0.062,1.525-0.131,1.791h-29.516c0.533,7.429,6.106,12.867,12.736,12.867
		c4.576,0,9.022-2.52,10.612-6.233l3.913,1.058c-2.123,5.043-8.027,8.625-14.657,8.625
		C367.143,48.355,359.849,40.132,359.849,30.313 M389.966,28.589c-0.602-7.363-6.036-12.535-12.805-12.535
		c-6.761,0-12.203,5.237-12.667,12.535H389.966z"/>
	<path clip-path="url(#SVGID_2_)" fill="#A7A9AC" d="M400.206,30.511c0-9.618,6.568-17.973,16.047-17.973
		c5.905,0,10.219,3.381,13.268,7.826v-7.232h4.046v34.691c0,9.621-7.688,14.661-16.981,14.661c-7.888,0-12.403-3.053-15.452-7.827
		l2.786-2.191c2.717,4.38,7.564,6.436,12.666,6.436c6.769,0,12.473-3.65,12.473-11.079v-6.831
		c-2.717,4.376-7.694,7.163-12.666,7.163C406.906,48.155,400.206,39.599,400.206,30.511 M429.057,35.817V25.138
		c-1.99-4.974-7.03-8.621-12.003-8.621c-7.694,0-12.271,7.228-12.271,14.063c0,7.429,5.635,13.796,12.867,13.796
		C423.021,44.376,428.262,40.062,429.057,35.817"/>
	<path clip-path="url(#SVGID_2_)" fill="#A7A9AC" d="M444.275,33.432V13.133h4.515v19.5c0,7.896,2.655,11.744,8.027,11.744
		s10.412-3.716,12.466-9.486V13.133h4.515v28.72c0,1.262,0.525,1.86,1.652,1.86v3.979c-0.857,0.131-1.39,0.2-1.853,0.2
		c-2.061,0-3.713-1.393-3.713-3.253v-4.774c-3.057,5.373-8.56,8.491-14.596,8.491C448.057,48.356,444.275,43.246,444.275,33.432"/>
	<path clip-path="url(#SVGID_2_)" fill="#A7A9AC" d="M502.608,17.115c-6.036,0.197-10.883,3.512-12.735,9.085v21.492h-4.515V13.133
		h4.244v8.293c2.393-4.843,6.568-8.491,11.015-8.491c0.795,0,1.527,0,1.991,0.066V17.115z"/>
	<path clip-path="url(#SVGID_2_)" fill="#A7A9AC" d="M506.133,30.511c0-9.683,7.294-17.973,17.181-17.973
		c9.881,0,17.182,8.29,17.182,17.973c0,9.621-7.232,17.845-17.182,17.845C513.235,48.355,506.133,40.132,506.133,30.511
		 M523.246,44.376c6.899,0,12.604-6.236,12.604-13.931c0-7.696-5.704-13.929-12.535-13.929c-6.899,0-12.534,6.303-12.534,14.063
		C510.78,38.271,516.352,44.376,523.246,44.376"/>
	<path clip-path="url(#SVGID_2_)" fill="#FFFFFF" d="M138.66,125.777l26.764-63.968h5.137l26.756,63.968h-6.761l-8.283-20.002
		h-28.741l-8.2,20.002H138.66z M168.037,69.197l-13.157,31.624h25.948L168.037,69.197z"/>
	<path clip-path="url(#SVGID_2_)" fill="#FFFFFF" d="M205.248,106.408V78.835h6.126v26.491c0,10.72,3.602,15.947,10.903,15.947
		c7.301,0,14.146-5.047,16.939-12.885V78.835h6.126v39.017c0,1.711,0.719,2.52,2.254,2.52v5.406c-1.176,0.18-1.895,0.27-2.524,0.27
		c-2.793,0-5.047-1.891-5.047-4.415v-6.484c-4.142,7.298-11.622,11.532-19.822,11.532
		C210.385,126.68,205.248,119.742,205.248,106.408"/>
	<path clip-path="url(#SVGID_2_)" fill="#FFFFFF" d="M283.63,123.523c-1.438,0.633-5.586,2.793-10.634,2.793
		c-5.309,0-9.907-2.973-9.907-9.009V83.702h-6.485v-4.866h6.485V62.979h6.126v15.857h10.813v4.866h-10.813v31.895
		c0.269,3.423,2.703,5.044,5.676,5.044c3.422,0,6.395-1.621,7.121-2.071L283.63,123.523z"/>
	<path clip-path="url(#SVGID_2_)" fill="#FFFFFF" d="M288.587,102.443c0-13.154,9.915-24.416,23.335-24.416
		c13.427,0,23.334,11.262,23.334,24.416c0,13.063-9.817,24.236-23.334,24.236C298.232,126.68,288.587,115.507,288.587,102.443
		 M311.833,121.273c9.375,0,17.119-8.471,17.119-18.921c0-10.449-7.744-18.92-17.029-18.92c-9.369,0-17.029,8.561-17.029,19.101
		C294.893,112.983,302.464,121.273,311.833,121.273"/>
	<path clip-path="url(#SVGID_2_)" fill="#A7A9AC" d="M352.555,125.777V61.81h27.123c11.802,0,20.361,10.81,20.361,21.26
		c0,10.903-8.021,21.264-19.912,21.264h-15.134v21.443H352.555z M364.993,93.435h14.416c4.591,0,8.014-4.056,8.014-10.364
		c0-6.575-4.142-10.36-8.561-10.36h-13.869V93.435z"/>
	<path clip-path="url(#SVGID_2_)" fill="#A7A9AC" d="M437.167,89.02c-7.301,0.09-13.517,2.883-16.04,8.196v28.562h-12.072V78.565
		h11.083v10.091c3.243-6.395,8.829-10.81,14.596-10.81c1.259,0,1.888,0.09,2.434,0.18V89.02z"/>
	<path clip-path="url(#SVGID_2_)" fill="#A7A9AC" d="M442.836,102.443c0-13.424,9.548-24.687,24.96-24.687
		c15.404,0,24.592,11.442,24.592,24.233c0,1.535-0.09,3.066-0.269,4.055h-36.492c0.636,7.389,6.216,11.806,12.528,11.806
		c4.771,0,9.638-2.523,11.173-6.398l10.356,2.883c-3.423,7.208-11.532,12.344-21.979,12.344
		C452.474,126.679,442.836,115.507,442.836,102.443 M479.958,98.208c-0.629-7.027-5.766-11.712-12.348-11.712
		c-6.485,0-11.623,4.685-12.162,11.712H479.958z"/>
	<path clip-path="url(#SVGID_2_)" fill="#A7A9AC" d="M574.92,125.777h-12.072V99.29c0-7.48-2.793-10.902-7.384-10.902
		c-4.688,0-9.375,4.055-11.174,9.911v27.479h-12.077V99.29c0-7.57-2.786-10.902-7.294-10.902c-4.688,0-9.459,3.965-11.264,9.82
		v27.569h-12.072V78.565h10.903v8.74c3.513-6.126,9.818-9.549,17.569-9.549c7.833,0,12.07,4.415,13.33,10.001
		c3.789-6.488,9.914-10.001,17.388-10.001c11.622,0,14.146,9.459,14.146,18.561V125.777z"/>
	<path clip-path="url(#SVGID_2_)" fill="#A7A9AC" d="M587.088,60.006h12.071v11.985h-12.071V60.006z M587.088,78.566h12.071v47.212
		h-12.071V78.566z"/>
	<path clip-path="url(#SVGID_2_)" fill="#A7A9AC" d="M611.232,108.119V78.566h12.072v26.939c0,7.207,2.703,10.899,7.84,10.899
		c4.771,0,9.458-2.789,12.251-8.556V78.566h12.072v33.335c0,2.522,0.809,3.516,3.242,3.604v10.271
		c-2.523,0.449-4.411,0.629-5.855,0.629c-4.321,0-6.845-2.16-7.384-5.583l-0.271-3.875c-4.328,6.485-11.083,9.731-19.103,9.731
		C616.369,126.68,611.232,120.281,611.232,108.119"/>
	<path clip-path="url(#SVGID_2_)" fill="#A7A9AC" d="M742.866,125.777h-12.072V99.29c0-7.48-2.793-10.902-7.384-10.902
		c-4.687,0-9.375,4.055-11.173,9.911v27.479h-12.071V99.29c0-7.57-2.793-10.902-7.301-10.902c-4.688,0-9.459,3.965-11.263,9.82
		v27.569H669.53V78.565h10.903v8.74c3.513-6.126,9.817-9.549,17.568-9.549c7.833,0,12.071,4.415,13.33,10.001
		c3.789-6.488,9.914-10.001,17.388-10.001c11.622,0,14.146,9.459,14.146,18.561V125.777z"/>
</g>
</svg>
