<?xml version="1.0" encoding="utf-8"?>
<!-- Generator: Adobe Illustrator 16.0.0, SVG Export Plug-In . SVG Version: 6.00 Build 0)  -->
<!DOCTYPE svg PUBLIC "-//W3C//DTD SVG 1.1//EN" "http://www.w3.org/Graphics/SVG/1.1/DTD/svg11.dtd">
<svg version="1.1" id="Isolation_Mode" xmlns="http://www.w3.org/2000/svg" xmlns:xlink="http://www.w3.org/1999/xlink" x="0px"
	 y="0px" width="62.782px" height="64.125px" viewBox="0 0 62.782 64.125" enable-background="new 0 0 62.782 64.125"
	 xml:space="preserve">
<g>
	<path fill="#FDA0A8" d="M31.391,13.92c-10.391,0-18.813,8.424-18.813,18.814S21,51.548,31.391,51.548s18.814-8.423,18.814-18.813
		S41.781,13.92,31.391,13.92z M34.684,19.355c0.322-0.855,1.276-1.285,2.127-0.963c0.855,0.323,1.285,1.277,0.963,2.133
		c-0.252,0.66-0.88,1.065-1.545,1.065c-0.194,0-0.393-0.033-0.587-0.107C34.791,21.161,34.357,20.207,34.684,19.355z M21.082,41.869
		c-0.289,0.197-0.615,0.293-0.941,0.293c-0.525,0-1.037-0.248-1.359-0.711c-0.521-0.752-0.335-1.78,0.417-2.301
		c0.752-0.521,1.78-0.331,2.302,0.421C22.021,40.319,21.83,41.348,21.082,41.869z M21.921,25.33
		c-0.326,0.417-0.813,0.632-1.306,0.632c-0.355,0-0.715-0.115-1.017-0.352c-0.718-0.562-0.843-1.599-0.28-2.317c0,0,0,0,0-0.004
		c0.562-0.719,1.599-0.843,2.317-0.281C22.354,23.57,22.483,24.611,21.921,25.33z M35.956,47.371
		c-0.165,0.05-0.331,0.075-0.492,0.075c-0.706,0-1.358-0.455-1.578-1.161c-0.272-0.872,0.215-1.797,1.087-2.07
		c0.871-0.272,1.797,0.215,2.07,1.087C37.315,46.174,36.827,47.099,35.956,47.371z M31.391,40.019c-4.022,0-7.284-3.261-7.284-7.284
		s3.262-7.284,7.284-7.284c4.023,0,7.285,3.261,7.285,7.284S35.414,40.019,31.391,40.019z M45.066,34.387
		c-0.913,0-1.653-0.74-1.653-1.653s0.74-1.652,1.653-1.652s1.652,0.739,1.652,1.652S45.979,34.387,45.066,34.387z"/>
	<path fill="#FDA0A8" d="M30.255,0c-3.168,0-6.227,0.474-9.114,1.346c-0.025-0.001-0.051-0.002-0.076-0.002
		c-7.041,0-13.09,4.318-15.643,10.445l0.18,0.078c-1.845,2.3-3.377,4.86-4.526,7.619l7.4,3.233
		c3.511-8.582,11.948-14.646,21.779-14.646c0.381,0,0.76,0.011,1.136,0.029V0.029C31.014,0.016,30.636,0,30.255,0z M7.043,19.166
		c-0.132,0.317-0.441,0.512-0.769,0.512c-0.103,0-0.206-0.021-0.31-0.062c-0.421-0.174-0.624-0.653-0.45-1.079
		c0.169-0.421,0.652-0.623,1.078-0.45C7.015,18.261,7.217,18.744,7.043,19.166z M29.135,5.057c-0.013,0-0.024,0-0.037,0
		c-0.454-0.021-0.81-0.405-0.789-0.863c0.021-0.455,0.409-0.807,0.863-0.79c0.454,0.021,0.81,0.409,0.789,0.864
		C29.94,4.713,29.572,5.057,29.135,5.057z"/>
	<path fill="#FDA0A8" d="M32.631,1.375v7.156c0.354,0.023,0.688,0.226,0.856,0.567c0.158,0.32,0.134,0.684-0.033,0.974
		c-0.099,0.172-0.244,0.316-0.438,0.411c-0.507,0.25-1.128,0.045-1.38-0.469C31.531,9.8,31.51,9.568,31.555,9.351l-0.222-0.01
		c-0.357-0.018-0.717-0.028-1.078-0.028c-7.517,0-14.356,3.732-18.447,9.795c0.054-0.006,0.107-0.01,0.162-0.006
		c0.357,0.022,0.66,0.225,0.827,0.515c0.099,0.172,0.151,0.37,0.137,0.584c-0.036,0.565-0.524,1-1.096,0.962
		c-0.417-0.027-0.758-0.299-0.897-0.663c-0.492,0.858-0.936,1.755-1.318,2.69l-0.48,1.175l-6.988-3.054
		C0.769,24.852,0,28.702,0,32.734c0,17.337,14.054,31.391,31.391,31.391s31.392-14.054,31.392-31.391
		C62.782,15.813,49.392,2.026,32.631,1.375z M2.536,32.396c-0.554,0.148-1.119-0.174-1.269-0.723
		c-0.148-0.554,0.174-1.12,0.728-1.269c0.087-0.025,0.182-0.037,0.269-0.037c0.455,0,0.872,0.302,0.996,0.76
		C3.412,31.681,3.086,32.247,2.536,32.396z M4.668,36.866c-0.496,0.281-1.128,0.107-1.408-0.389
		c-0.281-0.495-0.104-1.128,0.388-1.409c0.161-0.09,0.339-0.132,0.513-0.132c0.359,0,0.706,0.187,0.896,0.521
		C5.338,35.957,5.164,36.585,4.668,36.866z M7.746,40.754c-0.426,0.38-1.078,0.343-1.458-0.083c-0.38-0.425-0.343-1.078,0.078-1.458
		c0.198-0.178,0.446-0.265,0.69-0.265c0.284,0,0.565,0.116,0.772,0.347C8.209,39.721,8.172,40.374,7.746,40.754z M46.111,7.915
		c0.148-0.554,0.711-0.883,1.261-0.737c0.554,0.148,0.883,0.71,0.734,1.265c-0.021,0.087-0.059,0.176-0.102,0.251
		c-0.228,0.394-0.697,0.604-1.156,0.481C46.293,9.031,45.966,8.465,46.111,7.915z M42.215,6.5c0.57,0.005,1.028,0.475,1.026,1.041
		C43.239,7.726,43.187,7.9,43.1,8.051c-0.18,0.311-0.515,0.519-0.899,0.516c-0.573-0.006-1.03-0.471-1.026-1.04
		C41.179,6.956,41.646,6.495,42.215,6.5z M37.069,7.026c0.558-0.117,1.104,0.241,1.224,0.797c0.055,0.261,0.006,0.519-0.116,0.729
		C38.034,8.8,37.794,8.985,37.49,9.049c-0.559,0.116-1.105-0.242-1.222-0.801S36.511,7.143,37.069,7.026z M11.593,43.882
		c-0.318,0.475-0.959,0.603-1.43,0.289c-0.476-0.318-0.607-0.959-0.289-1.435c0.198-0.297,0.524-0.458,0.859-0.458
		c0.198,0,0.396,0.054,0.574,0.174C11.778,42.766,11.911,43.406,11.593,43.882z M16.671,57.554
		c-0.148,0.554-0.711,0.883-1.261,0.737c-0.554-0.148-0.884-0.71-0.734-1.265c0.021-0.087,0.059-0.176,0.102-0.251
		c0.228-0.394,0.697-0.604,1.156-0.481C16.489,56.438,16.816,57.004,16.671,57.554z M20.567,58.969
		c-0.57-0.005-1.029-0.475-1.026-1.041c0.002-0.185,0.055-0.359,0.142-0.51c0.18-0.311,0.515-0.519,0.899-0.516
		c0.573,0.006,1.03,0.471,1.025,1.04C21.604,58.513,21.137,58.974,20.567,58.969z M25.713,58.442
		c-0.559,0.117-1.105-0.242-1.224-0.797c-0.055-0.261-0.006-0.519,0.116-0.729c0.142-0.247,0.383-0.433,0.687-0.496
		c0.559-0.116,1.105,0.242,1.222,0.801S26.271,58.326,25.713,58.442z M30.682,56.836c-0.514,0.253-1.135,0.047-1.387-0.466
		c-0.158-0.321-0.135-0.684,0.032-0.974c0.1-0.172,0.245-0.316,0.438-0.411c0.508-0.251,1.128-0.045,1.381,0.469
		C31.397,55.967,31.188,56.586,30.682,56.836z M45.533,59.353c-0.405,0.405-1.057,0.41-1.462,0.004
		c-0.065-0.062-0.123-0.139-0.167-0.214c-0.227-0.394-0.175-0.905,0.161-1.242c0.402-0.409,1.056-0.409,1.46-0.008
		C45.931,58.298,45.935,58.949,45.533,59.353z M48.698,55.226c-0.289,0.491-0.925,0.653-1.414,0.368
		c-0.159-0.095-0.284-0.228-0.37-0.378c-0.18-0.312-0.192-0.704,0.002-1.036c0.292-0.494,0.923-0.657,1.414-0.368
		C48.822,54.1,48.987,54.734,48.698,55.226z M50.815,50.506c-0.178,0.542-0.762,0.836-1.302,0.661
		c-0.253-0.083-0.452-0.254-0.574-0.465c-0.143-0.247-0.183-0.548-0.086-0.843c0.179-0.542,0.763-0.836,1.305-0.658
		C50.7,49.38,50.994,49.964,50.815,50.506z M50.812,46.367c-0.356-0.023-0.659-0.226-0.826-0.515c-0.1-0.172-0.152-0.37-0.137-0.584
		c0.036-0.565,0.524-1,1.095-0.962s1.002,0.528,0.966,1.094C51.871,45.971,51.383,46.405,50.812,46.367z M31.391,53.384
		c-11.404,0-20.648-9.245-20.648-20.649s9.244-20.649,20.648-20.649S52.04,21.33,52.04,32.734S42.795,53.384,31.391,53.384z
		 M52.908,22.732c-0.198,0.297-0.525,0.458-0.859,0.458c-0.198,0-0.396-0.054-0.574-0.174c-0.472-0.313-0.604-0.954-0.285-1.43
		c0.317-0.475,0.959-0.603,1.43-0.289C53.094,21.616,53.227,22.257,52.908,22.732z M56.415,26.256
		c-0.197,0.178-0.445,0.265-0.689,0.265c-0.285,0-0.565-0.116-0.772-0.347c-0.381-0.426-0.343-1.079,0.082-1.459
		c0.426-0.38,1.079-0.343,1.459,0.083C56.874,25.223,56.837,25.876,56.415,26.256z M59.134,30.399
		c-0.161,0.091-0.338,0.133-0.512,0.133c-0.359,0-0.706-0.186-0.896-0.521c-0.281-0.5-0.107-1.128,0.388-1.409
		c0.496-0.281,1.129-0.107,1.409,0.389C59.804,29.486,59.626,30.119,59.134,30.399z M60.787,35.064
		c-0.087,0.025-0.182,0.037-0.269,0.037c-0.455,0-0.872-0.302-0.996-0.76c-0.152-0.554,0.174-1.12,0.723-1.269
		c0.554-0.148,1.12,0.174,1.269,0.723C61.662,34.35,61.341,34.916,60.787,35.064z"/>
</g>
</svg>
