<?xml version="1.0" encoding="utf-8"?>
<!-- Generator: Adobe Illustrator 16.0.0, SVG Export Plug-In . SVG Version: 6.00 Build 0)  -->
<!DOCTYPE svg PUBLIC "-//W3C//DTD SVG 1.1//EN" "http://www.w3.org/Graphics/SVG/1.1/DTD/svg11.dtd">
<svg version="1.1" id="Isolation_Mode" xmlns="http://www.w3.org/2000/svg" xmlns:xlink="http://www.w3.org/1999/xlink" x="0px"
	 y="0px" width="64.125px" height="36.336px" viewBox="0 0 64.125 36.336" enable-background="new 0 0 64.125 36.336"
	 xml:space="preserve">
<g>
	<path fill="#41B659" d="M61.494,24.337L25.998,12.375l-4.59-8.484c-0.387-0.716-1.033-1.258-1.805-1.516l-6.632-2.21
		c-0.732-0.244-1.528-0.216-2.241,0.08L5.384,2.461l8.49,3.168c1.234,0.461,2.053,1.64,2.053,2.957v6.149l-3.886,4.766
		c-0.833,1.021-2.211,1.417-3.459,0.994L0,17.585l2.743,5.097c0.366,0.679,0.964,1.204,1.686,1.478l6.537,2.478
		c0.761,0.289,1.604,0.276,2.356-0.033l8.918-3.675l35.07,13.16c2.022,0.759,4.273-0.287,4.998-2.322l1.592-4.472
		C64.625,27.261,63.541,25.027,61.494,24.337z M58.727,32.831c-1.477,0-2.675-1.198-2.675-2.676c0-1.477,1.198-2.675,2.675-2.675
		c1.478,0,2.675,1.198,2.675,2.675C61.402,31.633,60.205,32.831,58.727,32.831z"/>
</g>
</svg>
