<?xml version="1.0" encoding="utf-8"?>
<!-- Generator: Adobe Illustrator 16.0.0, SVG Export Plug-In . SVG Version: 6.00 Build 0)  -->
<!DOCTYPE svg PUBLIC "-//W3C//DTD SVG 1.1//EN" "http://www.w3.org/Graphics/SVG/1.1/DTD/svg11.dtd">
<svg version="1.1" id="Isolation_Mode" xmlns="http://www.w3.org/2000/svg" xmlns:xlink="http://www.w3.org/1999/xlink" x="0px"
	 y="0px" width="36.346px" height="39.883px" viewBox="0 0 36.346 39.883" enable-background="new 0 0 36.346 39.883"
	 xml:space="preserve">
<path fill="#74CCE5" d="M4.58,38.01c0.197-0.184,0.359-0.336,0.494-0.462c0.277-0.26,0.457-0.432,0.602-0.576
	c0.246-0.243,0.373-0.401,0.65-0.761c0.205-0.272,0.518-0.68,1.156-1.463c2.1-2.552,1.508-4.77,0.934-6.912
	c-0.07-0.265-0.145-0.54-0.215-0.819c-0.285-1.218-0.561-3.34,0.766-3.949l0.01-0.005c0.377-0.177,1.662,0.015,2.43,0.129
	c1.799,0.269,3.844,0.573,5.205-0.789l0.514-0.513v-0.124l0.543-0.541l2.107,2.11L35.043,8.067l-2.109-2.11l2.295-2.295l0.188,0.186
	l0.93-0.931L33.43,0l-0.932,0.932l0.248,0.249l-2.295,2.295l-2.234-2.234L12.949,16.509l2.234,2.233l-1.16,1.162
	c-0.49,0.057-1.514-0.098-2.1-0.186c-1.521-0.227-3.092-0.46-4.426,0.161c-2.629,1.209-3.615,4.107-2.709,7.953l0.004,0.023
	c0.078,0.311,0.156,0.604,0.232,0.886c0.543,2.032,0.658,2.669-0.258,3.779l-0.004,0.007c-0.672,0.824-1.018,1.277-1.225,1.547
	c-0.275,0.357-0.275,0.357-0.867,0.914c-0.152,0.143-0.34,0.318-0.574,0.537L1.43,34.856L0,36.284l3.6,3.599l1.428-1.428L4.58,38.01
	z M15.91,15.65L27.248,4.312c0.227-0.229,0.598-0.227,0.826,0.002c0.227,0.229,0.229,0.597,0,0.828L16.738,16.478
	c-0.227,0.228-0.6,0.228-0.828,0C15.684,16.25,15.684,15.878,15.91,15.65z"/>
</svg>
