<?xml version="1.0" encoding="utf-8"?>
<!-- Generator: Adobe Illustrator 16.0.0, SVG Export Plug-In . SVG Version: 6.00 Build 0)  -->
<!DOCTYPE svg PUBLIC "-//W3C//DTD SVG 1.1//EN" "http://www.w3.org/Graphics/SVG/1.1/DTD/svg11.dtd">
<svg version="1.1" id="Isolation_Mode" xmlns="http://www.w3.org/2000/svg" xmlns:xlink="http://www.w3.org/1999/xlink" x="0px"
	 y="0px" width="64.125px" height="53.161px" viewBox="0 0 64.125 53.161" enable-background="new 0 0 64.125 53.161"
	 xml:space="preserve">
<g>
	<path fill="#E23B8C" d="M60.812,10.866H3.313C1.491,10.866,0,12.356,0,14.179c0,1.823,1.491,3.314,3.313,3.314h57.498
		c1.822,0,3.313-1.491,3.313-3.314C64.125,12.356,62.634,10.866,60.812,10.866z"/>
	<path fill="#E23B8C" d="M11.694,5.359c0-1.822-1.49-3.313-3.313-3.313l0,0c-1.822,0-3.313,1.491-3.313,3.313v3.411h6.627V5.359z"/>
	<path fill="#E23B8C" d="M59.058,5.359c0-1.822-1.491-3.313-3.313-3.313s-3.313,1.491-3.313,3.313v3.411h6.627V5.359z"/>
	<path fill="#E23B8C" d="M47.947,4.093C47.947,1.842,46.105,0,43.854,0H20.271c-2.251,0-4.093,1.842-4.093,4.093v4.678h31.77V4.093z
		"/>
	<path fill="#E23B8C" d="M1.754,48.19c0,2.745,2.226,4.971,4.971,4.971H57.4c2.745,0,4.971-2.226,4.971-4.971V19.637H1.754V48.19z
		 M39.821,34.116h4.302v-4.303c0-1.256,1.027-2.283,2.283-2.283s2.283,1.027,2.283,2.283v4.303h4.302
		c1.256,0,2.283,1.027,2.283,2.282c0,1.256-1.027,2.283-2.283,2.283h-4.302v4.303c0,1.256-1.027,2.283-2.283,2.283
		s-2.283-1.027-2.283-2.283v-4.303h-4.302c-1.256,0-2.283-1.027-2.283-2.283C37.538,35.144,38.565,34.116,39.821,34.116z
		 M11.134,34.116h13.171c1.255,0,2.282,1.027,2.282,2.282c0,1.256-1.027,2.283-2.282,2.283H11.134c-1.256,0-2.283-1.027-2.283-2.283
		C8.851,35.144,9.878,34.116,11.134,34.116z"/>
</g>
</svg>
