<?xml version="1.0" encoding="utf-8"?>
<!-- Generator: Adobe Illustrator 16.0.0, SVG Export Plug-In . SVG Version: 6.00 Build 0)  -->
<!DOCTYPE svg PUBLIC "-//W3C//DTD SVG 1.1//EN" "http://www.w3.org/Graphics/SVG/1.1/DTD/svg11.dtd">
<svg version="1.1" id="Isolation_Mode" xmlns="http://www.w3.org/2000/svg" xmlns:xlink="http://www.w3.org/1999/xlink" x="0px"
	 y="0px" width="40.707px" height="64.125px" viewBox="637.333 625.624 40.707 64.125"
	 enable-background="new 637.333 625.624 40.707 64.125" xml:space="preserve">
<g>
	<path fill="#AD90C6" d="M639.12,632.472h37.133c1.068-0.646,1.787-1.813,1.787-3.154l0,0c0-2.04-1.653-3.693-3.692-3.693h-33.322
		c-2.039,0-3.692,1.653-3.692,3.693l0,0C637.332,630.657,638.051,631.825,639.12,632.472z"/>
	<path fill="#AD90C6" d="M641.472,635.596l11.485,15.444c1.171,1.575,1.804,3.486,1.804,5.449v12.423h6.013v-12.478
		c0-1.949,0.625-3.85,1.781-5.42l11.372-15.42L641.472,635.596L641.472,635.596z"/>
	<path fill="#AD90C6" d="M661.896,684.104c-1.314-4.046-2.43-4.035-4.223-9.896c-1.793,5.861-3.491,7.407-4.221,9.896
		c-0.584,1.99,0.349,4.187,2.189,5.141c0.609,0.314,1.301,0.495,2.03,0.505c0.731-0.01,1.421-0.189,2.03-0.505
		C661.547,688.289,662.537,686.076,661.896,684.104z"/>
</g>
</svg>
