<?xml version="1.0" encoding="utf-8"?>
<!-- Generator: Adobe Illustrator 16.0.0, SVG Export Plug-In . SVG Version: 6.00 Build 0)  -->
<!DOCTYPE svg PUBLIC "-//W3C//DTD SVG 1.1//EN" "http://www.w3.org/Graphics/SVG/1.1/DTD/svg11.dtd">
<svg version="1.1" id="Isolation_Mode" xmlns="http://www.w3.org/2000/svg" xmlns:xlink="http://www.w3.org/1999/xlink" x="0px"
	 y="0px" width="43.447px" height="26.708px" viewBox="0 0 43.447 26.708" enable-background="new 0 0 43.447 26.708"
	 xml:space="preserve">
<g>
	<path fill="#F16769" d="M27.612,1.111c0.013-0.091-2.221-0.596-4.465-1.044c-1.862-0.372-3.686,0.826-4.061,2.688
		c-0.42,2.082-0.819,5.273-0.819,9.888c0,5.008,0.47,8.65,0.926,11.011c0.364,1.88,2.192,3.101,4.069,2.724
		c2.205-0.442,4.363-0.932,4.35-1.021c10.257-0.599,15.835-5.794,15.835-12.123S37.869,1.71,27.612,1.111z M27.782,5.961
		c0.012-0.108,0.021-0.223,0.034-0.327c0.112-1.035,0.2-1.899,0.289-2.503c0.018-0.139,0.033-0.262,0.046-0.372
		c8.019,0.968,12.791,4.935,13.772,9.953C39.639,9.039,34.827,6.41,27.782,5.961z"/>
	<g>
		<g>
			<path fill="#F16769" d="M14.318,21.877L1.154,26.668c-0.414,0.151-0.899-0.137-1.083-0.642c-0.184-0.505,0.002-1.037,0.417-1.188
				l13.164-4.791c0.414-0.15,0.899,0.137,1.083,0.643C14.918,21.194,14.732,21.727,14.318,21.877z"/>
		</g>
		<g>
			<path fill="#F16769" d="M14.318,18.014L1.154,22.806c-0.414,0.15-0.899-0.138-1.083-0.643c-0.184-0.505,0.002-1.037,0.417-1.188
				l13.164-4.792c0.414-0.15,0.899,0.138,1.083,0.643C14.918,17.331,14.732,17.863,14.318,18.014z"/>
		</g>
		<g>
			<path fill="#F16769" d="M14.318,14.15L1.154,18.941c-0.414,0.15-0.899-0.137-1.083-0.642c-0.184-0.506,0.002-1.037,0.417-1.188
				l13.164-4.791c0.414-0.151,0.899,0.137,1.083,0.642C14.918,13.468,14.732,13.999,14.318,14.15z"/>
		</g>
		<g>
			<path fill="#F16769" d="M14.318,10.287L1.154,15.078c-0.414,0.151-0.899-0.137-1.083-0.642c-0.184-0.505,0.002-1.037,0.417-1.188
				l13.164-4.791c0.414-0.15,0.899,0.137,1.083,0.642C14.918,9.604,14.732,10.137,14.318,10.287z"/>
		</g>
		<g>
			<path fill="#F16769" d="M14.318,6.424L1.154,11.216c-0.414,0.15-0.899-0.138-1.083-0.643c-0.184-0.505,0.002-1.037,0.417-1.188
				l13.164-4.792c0.414-0.15,0.899,0.138,1.083,0.643C14.918,5.741,14.732,6.273,14.318,6.424z"/>
		</g>
	</g>
</g>
</svg>
