<?xml version="1.0" encoding="utf-8"?>
<!-- Generator: Adobe Illustrator 16.0.0, SVG Export Plug-In . SVG Version: 6.00 Build 0)  -->
<!DOCTYPE svg PUBLIC "-//W3C//DTD SVG 1.1//EN" "http://www.w3.org/Graphics/SVG/1.1/DTD/svg11.dtd">
<svg version="1.1" id="Ñëîé_5" xmlns="http://www.w3.org/2000/svg" xmlns:xlink="http://www.w3.org/1999/xlink" x="0px" y="0px"
	 width="9.188px" height="9.188px" viewBox="0 0 9.188 9.188" enable-background="new 0 0 9.188 9.188" xml:space="preserve">
<g>
	<path fill="#67597F" d="M3.792,4.594c0-0.471,0.388-0.854,0.865-0.854V0h-0.37C4.109,0,3.959,0.125,3.929,0.297l-0.197,1.15
		C3.71,1.574,3.62,1.674,3.5,1.722C3.473,1.733,3.446,1.744,3.419,1.755C3.301,1.807,3.166,1.799,3.06,1.726L2.081,1.054
		C1.937,0.956,1.742,0.973,1.618,1.095L1.105,1.601C0.98,1.724,0.964,1.918,1.066,2.06l0.686,0.952
		C1.827,3.117,1.835,3.251,1.783,3.37C1.772,3.396,1.761,3.421,1.75,3.447C1.703,3.564,1.603,3.653,1.477,3.675L0.298,3.883
		C0.125,3.914,0,4.062,0,4.235V4.95c0,0.174,0.127,0.323,0.302,0.353l1.164,0.194c0.129,0.021,0.231,0.111,0.279,0.231
		c0.012,0.03,0.024,0.059,0.037,0.089c0.05,0.116,0.043,0.248-0.03,0.352L1.068,7.135c-0.1,0.143-0.083,0.335,0.041,0.457
		l0.513,0.505c0.125,0.124,0.321,0.14,0.466,0.039l0.96-0.673C3.155,7.389,3.29,7.381,3.41,7.432
		c0.028,0.012,0.056,0.023,0.084,0.034c0.12,0.046,0.21,0.146,0.232,0.271l0.21,1.157c0.031,0.17,0.181,0.294,0.357,0.294h0.364
		V5.447C4.179,5.447,3.792,5.065,3.792,4.594z"/>
	<path fill="#67597F" d="M5.224,8.891l0.198-1.145c0.022-0.127,0.113-0.228,0.236-0.275C5.688,7.459,5.72,7.447,5.75,7.434
		c0.119-0.05,0.254-0.042,0.36,0.03l0.983,0.67C7.239,8.233,7.435,8.216,7.56,8.093l0.516-0.505c0.126-0.124,0.143-0.317,0.04-0.459
		L7.428,6.181C7.353,6.076,7.345,5.942,7.396,5.825C7.41,5.794,7.422,5.763,7.435,5.732c0.047-0.119,0.149-0.208,0.277-0.23
		l1.177-0.207c0.174-0.03,0.3-0.179,0.3-0.352V4.229c0-0.175-0.128-0.323-0.303-0.353L7.503,3.647
		c-0.028-0.085-0.059-0.17-0.095-0.254c0-0.002-0.002-0.004-0.002-0.006c-0.03-0.068-0.062-0.136-0.097-0.203l0.803-1.131
		c0.101-0.142,0.083-0.334-0.042-0.457L7.555,1.09c-0.126-0.124-0.324-0.14-0.469-0.039L6.117,1.727
		c-0.131,0.011-0.234,0.02-0.366,0.031C5.721,1.745,5.691,1.732,5.66,1.72C5.541,1.673,5.451,1.574,5.428,1.45L5.216,0.294
		C5.185,0.124,5.034,0,4.857,0H4.5v3.741c0.481,0,0.871,0.382,0.871,0.854S4.981,5.447,4.5,5.447v3.741h0.364
		C5.042,9.188,5.193,9.062,5.224,8.891z"/>
</g>
</svg>
