<?xml version="1.0" encoding="utf-8"?>
<!-- Generator: Adobe Illustrator 16.0.0, SVG Export Plug-In . SVG Version: 6.00 Build 0)  -->
<!DOCTYPE svg PUBLIC "-//W3C//DTD SVG 1.1//EN" "http://www.w3.org/Graphics/SVG/1.1/DTD/svg11.dtd">
<svg version="1.1" id="Ñëîé_5" xmlns="http://www.w3.org/2000/svg" xmlns:xlink="http://www.w3.org/1999/xlink" x="0px" y="0px"
	 width="39.39px" height="36.307px" viewBox="0 0 39.39 36.307" enable-background="new 0 0 39.39 36.307" xml:space="preserve">
<g>
	<path fill="#00BBC5" d="M14.977,10.429c-2.511,0-4.547,2.036-4.547,4.548s2.036,4.548,4.547,4.548c2.512,0,4.547-2.036,4.547-4.548
		S17.488,10.429,14.977,10.429z M14.977,18.226c-1.794,0-3.249-1.455-3.249-3.249s1.455-3.249,3.249-3.249s3.249,1.455,3.249,3.249
		S16.771,18.226,14.977,18.226z"/>
	<path fill="#00BBC5" d="M14.977,10.006c-2.745,0-4.97,2.226-4.97,4.971s2.225,4.97,4.97,4.97s4.97-2.225,4.97-4.97
		S17.722,10.006,14.977,10.006z M14.977,18.528c-1.961,0-3.551-1.59-3.551-3.551s1.59-3.551,3.551-3.551s3.551,1.59,3.551,3.551
		S16.938,18.528,14.977,18.528z"/>
	<path fill="#00BBC5" d="M14.977,9.208c-3.187,0-5.77,2.583-5.77,5.77s2.583,5.77,5.77,5.77s5.77-2.583,5.77-5.77
		S18.163,9.208,14.977,9.208z M14.977,19.099c-2.276,0-4.122-1.846-4.122-4.122s1.846-4.122,4.122-4.122s4.122,1.846,4.122,4.122
		S17.253,19.099,14.977,19.099z"/>
	<path fill="#00BBC5" d="M14.977,7.532c-4.112,0-7.445,3.334-7.445,7.445c0,4.112,3.333,7.445,7.445,7.445s7.445-3.333,7.445-7.445
		C22.422,10.866,19.088,7.532,14.977,7.532z M14.977,20.296c-2.938,0-5.319-2.382-5.319-5.319s2.381-5.319,5.319-5.319
		c2.938,0,5.319,2.382,5.319,5.319S17.914,20.296,14.977,20.296z"/>
	<path fill="#00BBC5" d="M14.977,6.721c-4.56,0-8.255,3.696-8.255,8.256s3.696,8.256,8.255,8.256s8.255-3.696,8.255-8.256
		S19.536,6.721,14.977,6.721z M14.977,20.875c-3.257,0-5.898-2.642-5.898-5.898c0-3.258,2.641-5.898,5.898-5.898
		s5.898,2.641,5.898,5.898C20.875,18.234,18.234,20.875,14.977,20.875z"/>
	<path fill="#00BBC5" d="M14.977,5.731c-5.106,0-9.246,4.14-9.246,9.246s4.14,9.246,9.246,9.246s9.246-4.14,9.246-9.246
		S20.083,5.731,14.977,5.731z M14.977,21.583c-3.648,0-6.605-2.957-6.605-6.605s2.957-6.605,6.605-6.605
		c3.648,0,6.606,2.957,6.606,6.605S18.625,21.583,14.977,21.583z"/>
	<path fill="#00BBC5" d="M14.977,4.413c-5.834,0-10.564,4.73-10.564,10.564s4.73,10.563,10.564,10.563
		c5.834,0,10.564-4.729,10.564-10.563S20.811,4.413,14.977,4.413z M14.977,22.524c-4.168,0-7.547-3.379-7.547-7.547
		s3.379-7.547,7.547-7.547c4.168,0,7.547,3.379,7.547,7.547S19.145,22.524,14.977,22.524z"/>
	<path fill="#00BBC5" d="M29.258,12.083l-2.245-0.596c-0.014-0.05-0.028-0.099-0.043-0.148c-0.062-0.203-0.137-0.399-0.208-0.597
		c-0.068-0.188-0.129-0.377-0.206-0.562c-0.077-0.184-0.167-0.361-0.251-0.541c-0.09-0.19-0.174-0.383-0.274-0.57
		C26,9.014,25.968,8.959,25.938,8.905l1.144-2.039c0.206-0.365,0.143-0.822-0.154-1.119L24.16,2.981
		c-0.3-0.301-0.764-0.361-1.131-0.148l-2.009,1.166c-0.045-0.025-0.09-0.049-0.136-0.074c-0.188-0.1-0.381-0.186-0.572-0.275
		c-0.179-0.084-0.355-0.174-0.539-0.25c-0.186-0.076-0.375-0.139-0.562-0.206c-0.198-0.071-0.394-0.147-0.597-0.209
		c-0.06-0.019-0.121-0.034-0.181-0.052l-0.632-2.25C17.688,0.279,17.319,0,16.9,0h-3.913c-0.424,0-0.795,0.286-0.904,0.696
		l-0.596,2.245c-0.049,0.015-0.099,0.028-0.148,0.043c-0.202,0.062-0.397,0.138-0.595,0.208c-0.188,0.068-0.378,0.131-0.564,0.207
		C9.997,3.475,9.822,3.563,9.644,3.647C9.451,3.739,9.257,3.824,9.068,3.924c-0.055,0.03-0.109,0.062-0.164,0.092L6.866,2.873
		C6.5,2.667,6.043,2.731,5.747,3.027L2.98,5.793c-0.3,0.3-0.36,0.764-0.147,1.131l1.166,2.009c-0.025,0.045-0.05,0.09-0.074,0.136
		C3.823,9.257,3.738,9.452,3.647,9.644C3.563,9.823,3.474,9.998,3.398,10.18c-0.077,0.186-0.139,0.375-0.207,0.564
		c-0.071,0.197-0.147,0.393-0.208,0.595C2.966,11.4,2.95,11.46,2.933,11.52l-2.25,0.633C0.279,12.266,0,12.634,0,13.053v3.913
		c0,0.424,0.285,0.795,0.695,0.904l2.245,0.596c0.014,0.05,0.029,0.099,0.043,0.148c0.062,0.202,0.137,0.398,0.209,0.597
		c0.067,0.188,0.129,0.377,0.206,0.562c0.076,0.184,0.166,0.359,0.25,0.538c0.09,0.192,0.175,0.385,0.276,0.573
		c0.03,0.055,0.061,0.109,0.091,0.164l-1.144,2.038c-0.205,0.365-0.142,0.823,0.154,1.12l2.767,2.766
		c0.3,0.301,0.765,0.361,1.131,0.148l2.009-1.167c0.045,0.025,0.09,0.051,0.136,0.075c0.187,0.1,0.379,0.185,0.57,0.274
		c0.18,0.085,0.356,0.175,0.542,0.251c0.185,0.076,0.374,0.139,0.561,0.206c0.199,0.071,0.395,0.146,0.597,0.209
		c0.061,0.018,0.121,0.033,0.181,0.051l0.632,2.25c0.113,0.404,0.481,0.683,0.901,0.683h3.913c0.424,0,0.795-0.285,0.904-0.695
		l0.596-2.245c0.05-0.015,0.099-0.028,0.148-0.043c0.204-0.062,0.4-0.139,0.599-0.21c0.187-0.067,0.375-0.129,0.559-0.205
		c0.186-0.076,0.363-0.167,0.544-0.252c0.19-0.09,0.381-0.174,0.567-0.273c0.056-0.029,0.11-0.062,0.166-0.092l2.038,1.144
		c0.366,0.205,0.823,0.143,1.12-0.154l2.766-2.767c0.3-0.3,0.361-0.765,0.147-1.131l-1.166-2.009
		c0.025-0.046,0.05-0.091,0.074-0.137c0.1-0.187,0.184-0.377,0.273-0.567c0.085-0.181,0.175-0.358,0.252-0.544
		c0.076-0.185,0.138-0.372,0.205-0.56c0.072-0.199,0.148-0.396,0.209-0.599c0.019-0.061,0.034-0.121,0.052-0.182l2.25-0.632
		c0.404-0.113,0.683-0.481,0.683-0.9v-3.913C29.954,12.564,29.668,12.193,29.258,12.083z M14.977,24.3
		c-5.148,0-9.323-4.175-9.323-9.323s4.174-9.322,9.323-9.322c5.149,0,9.323,4.174,9.323,9.322S20.125,24.3,14.977,24.3z"/>
</g>
<path fill="#00BBC5" d="M36.68,29.475L36.68,29.475c-0.012-0.024-0.023-0.047-0.037-0.069c-0.048-0.072-0.1-0.141-0.163-0.221
	l-1.618-2.176L34.859,27l-0.004,0.001l-0.956-1.285l-0.002-0.01l-0.005,0.001l-0.956-1.285l-0.001-0.009l-0.004,0.001l-0.956-1.285
	l-0.003-0.009l-0.004,0.001l-0.956-1.285l-0.002-0.01l-0.004,0.001l-0.956-1.285l-0.002-0.009h-0.004l-0.956-1.285l-0.002-0.008
	l-0.004,0.001l-0.956-1.286l-0.002-0.009l-0.004,0.001l-0.956-1.285l-0.002-0.01l-0.004,0.001l-0.956-1.285l-0.002-0.01
	l-0.004,0.001l-0.955-1.284l-0.002-0.01l-0.004,0.001l-0.956-1.284l-0.002-0.01l-0.004,0.001l-0.956-1.285l-0.002-0.009h-0.004
	l-0.956-1.284l-0.002-0.01h-0.004l-0.473-0.635c-0.018-0.023-0.037-0.045-0.059-0.062c-0.141-0.186-0.295-0.355-0.447-0.527
	l-0.014-0.054l-0.025,0.007c-0.372-0.418-0.775-0.797-1.208-1.133L20.11,7.754l-0.014,0.007c-0.909-0.702-1.936-1.218-3.039-1.525
	l-0.001-0.001c-0.782-0.218-1.596-0.344-2.435-0.344c-4.973,0-9.02,4.046-9.02,9.02c0,3.447,2.005,6.625,5.117,8.123
	c0.022,0.018,0.047,0.033,0.073,0.046L32.69,33.602c0.126,0.07,0.253,0.135,0.425,0.204c0.041,0.02,0.084,0.031,0.128,0.035
	c0.31,0.1,0.602,0.147,0.893,0.147c1.643,0,2.979-1.337,2.979-2.979C37.115,30.477,36.965,29.947,36.68,29.475z M34.136,33.194
	c-0.226,0-0.458-0.043-0.713-0.131c-0.017-0.005-0.032-0.01-0.049-0.013c-0.006-0.003-0.01-0.004-0.011-0.005
	c-0.102-0.039-0.194-0.088-0.308-0.149l-1.752-0.841l0.013-0.011l-0.811-0.965l-0.448,0.376l-0.207-0.099l0.012-0.011l-0.81-0.964
	l-0.448,0.376l-0.207-0.1l0.012-0.01l-0.81-0.965l-0.448,0.376l-0.207-0.1l0.012-0.01l-0.81-0.965L25.7,29.362l-0.207-0.1
	l0.011-0.01l-0.81-0.965l-0.448,0.376l-0.207-0.1l0.012-0.01l-0.81-0.965l-0.448,0.376l-0.208-0.1l0.012-0.01l-0.81-0.964
	l-0.447,0.375l-0.208-0.1l0.012-0.01l-0.81-0.965l-0.448,0.376l-0.207-0.1l0.012-0.01l-0.81-0.965l-0.448,0.376l-0.208-0.1
	l0.012-0.01l-0.81-0.965l-0.448,0.376l-0.208-0.1l0.012-0.01l-0.81-0.964l-0.447,0.375l-0.207-0.1l0.012-0.01l-0.81-0.964
	l-0.447,0.375l-0.207-0.1l0.012-0.01l-0.811-0.964l-0.447,0.375l-0.208-0.1l0.012-0.01l-0.81-0.964l-0.442,0.372
	c-0.012-0.008-0.023-0.017-0.036-0.023c-0.064-0.03-0.121-0.071-0.184-0.103l-0.67-0.99l-0.451,0.306
	c-0.07-0.051-0.137-0.104-0.206-0.158l-0.471-1.093L8.656,20.53c-0.053-0.056-0.112-0.108-0.164-0.166L8.23,19.176l-0.551,0.123
	c-0.043-0.068-0.074-0.144-0.115-0.212l-0.032-1.21l-0.548,0.016c-0.033-0.085-0.065-0.17-0.096-0.256l0.202-1.187l-0.548-0.094
	c-0.017-0.09-0.045-0.176-0.059-0.266l0.451-1.167L6.406,14.72c0.002-0.104,0.01-0.207,0.016-0.31l0.662-1.036l-0.472-0.302
	c0.02-0.088,0.044-0.174,0.067-0.26l0.843-0.88L7.122,11.55c0.035-0.076,0.072-0.15,0.109-0.226l0.983-0.695L7.9,10.186
	c0.049-0.07,0.101-0.137,0.152-0.204l1.08-0.49L8.911,9.004C8.975,8.942,9.043,8.883,9.11,8.823l1.135-0.275L10.12,8.036
	c0.082-0.055,0.168-0.104,0.252-0.154l1.147-0.057l-0.026-0.518c0.104-0.043,0.21-0.077,0.316-0.115l1.115,0.161l0.073-0.505
	c0.128-0.025,0.26-0.04,0.391-0.06l1.042,0.37L14.6,6.688c0.007,0,0.014-0.002,0.021-0.002c0.15,0,0.296,0.018,0.445,0.025
	l0.923,0.557l0.248-0.412c0.14,0.027,0.28,0.053,0.417,0.088L17.45,7.67l0.318-0.349c0.126,0.052,0.252,0.104,0.376,0.163
	l0.631,0.852l0.384-0.283c0.115,0.076,0.221,0.166,0.332,0.248l0.448,0.933l0.41-0.197c0.099,0.097,0.202,0.189,0.296,0.292
	l0.268,1.001l0.459-0.123l0.243,0.327l0.23,1.053l0.476-0.104l0.256,0.345l0.23,1.053l0.476-0.104l0.256,0.345l0.23,1.053
	l0.476-0.104l0.256,0.345l0.23,1.053l0.476-0.104l0.256,0.344l0.231,1.054l0.476-0.104L26.425,17l0.23,1.054l0.477-0.104
	l0.255,0.344l0.23,1.054l0.476-0.104l0.256,0.344l0.23,1.053l0.476-0.104l0.256,0.344l0.23,1.054l0.477-0.104l0.256,0.343
	l0.229,1.054l0.477-0.104l0.256,0.344l0.229,1.054l0.477-0.104l0.256,0.344l0.23,1.054l0.476-0.104l0.256,0.344l0.23,1.054
	l0.477-0.104l0.255,0.343l0.23,1.054l0.476-0.104l1.038,1.394c0.038,0.049,0.076,0.096,0.109,0.148
	c0.008,0.017,0.016,0.033,0.025,0.049c0.213,0.352,0.32,0.729,0.32,1.122C36.32,32.213,35.341,33.194,34.136,33.194z"/>
<g>
	<path fill="#00BBC5" d="M38.987,29.816h-1.13c-0.015-0.049-0.034-0.095-0.052-0.142c-0.021-0.06-0.041-0.119-0.064-0.178
		c-0.024-0.058-0.053-0.114-0.08-0.171c-0.021-0.046-0.04-0.092-0.063-0.137l0.8-0.799c0.156-0.157,0.156-0.411,0-0.568
		l-1.119-1.119c-0.157-0.157-0.411-0.157-0.568,0l-0.799,0.799c-0.045-0.022-0.092-0.042-0.137-0.062
		c-0.057-0.027-0.113-0.056-0.172-0.08c-0.058-0.024-0.117-0.043-0.176-0.064c-0.048-0.017-0.095-0.037-0.143-0.052v-1.13
		c0-0.223-0.18-0.402-0.401-0.402h-1.582c-0.223,0-0.402,0.18-0.402,0.402v1.13c-0.049,0.015-0.095,0.035-0.143,0.052
		c-0.059,0.021-0.118,0.04-0.176,0.064c-0.059,0.024-0.114,0.053-0.171,0.079c-0.046,0.021-0.093,0.041-0.138,0.063l-0.799-0.799
		c-0.157-0.157-0.411-0.157-0.568,0l-1.119,1.119c-0.157,0.157-0.157,0.411,0,0.568l0.8,0.799c-0.023,0.045-0.043,0.092-0.064,0.138
		c-0.026,0.057-0.055,0.112-0.079,0.17c-0.023,0.059-0.044,0.119-0.064,0.179c-0.018,0.047-0.037,0.093-0.052,0.141h-1.13
		c-0.222,0-0.402,0.18-0.402,0.401v1.582c0,0.223,0.18,0.402,0.402,0.402h1.13c0.016,0.048,0.035,0.094,0.052,0.142
		c0.021,0.059,0.041,0.119,0.064,0.177c0.024,0.059,0.053,0.114,0.079,0.171c0.021,0.046,0.041,0.092,0.064,0.138l-0.8,0.799
		c-0.157,0.157-0.157,0.411,0,0.568l1.119,1.119c0.157,0.156,0.411,0.156,0.568,0l0.799-0.8c0.045,0.023,0.092,0.042,0.138,0.063
		c0.057,0.027,0.112,0.056,0.171,0.08c0.058,0.023,0.117,0.043,0.176,0.064c0.048,0.017,0.094,0.036,0.143,0.052v1.13
		c0,0.223,0.18,0.402,0.402,0.402h1.582c0.222,0,0.401-0.18,0.401-0.402v-1.13c0.048-0.016,0.095-0.035,0.143-0.052
		c0.059-0.021,0.118-0.041,0.176-0.064c0.059-0.024,0.115-0.053,0.172-0.08c0.045-0.021,0.092-0.04,0.137-0.063l0.799,0.8
		c0.157,0.156,0.411,0.156,0.568,0l1.119-1.119c0.156-0.157,0.156-0.411,0-0.568l-0.8-0.799c0.023-0.045,0.042-0.091,0.063-0.137
		c0.027-0.057,0.056-0.113,0.08-0.172c0.023-0.058,0.043-0.117,0.064-0.177c0.018-0.047,0.037-0.094,0.052-0.142h1.13
		c0.223,0,0.402-0.18,0.402-0.402v-1.582C39.39,29.996,39.21,29.816,38.987,29.816z M34.091,34.341c-1.84,0-3.332-1.492-3.332-3.332
		c0-1.841,1.492-3.333,3.332-3.333c1.841,0,3.333,1.492,3.333,3.333C37.424,32.849,35.932,34.341,34.091,34.341z"/>
	<path fill="#00BBC5" d="M34.091,27.676c-1.84,0-3.332,1.492-3.332,3.333c0,1.84,1.492,3.332,3.332,3.332
		c1.841,0,3.333-1.492,3.333-3.332C37.424,29.168,35.932,27.676,34.091,27.676z M34.091,33.943c-1.62,0-2.935-1.313-2.935-2.934
		c0-1.621,1.314-2.936,2.935-2.936c1.621,0,2.936,1.314,2.936,2.936C37.026,32.629,35.712,33.943,34.091,33.943z"/>
	<path fill="#00BBC5" d="M34.091,27.943c-1.692,0-3.064,1.373-3.064,3.066c0,1.692,1.372,3.064,3.064,3.064
		c1.693,0,3.065-1.372,3.065-3.064C37.156,29.316,35.784,27.943,34.091,27.943z M34.091,33.199c-1.209,0-2.189-0.98-2.189-2.189
		c0-1.21,0.98-2.19,2.189-2.19c1.21,0,2.19,0.98,2.19,2.19C36.281,32.218,35.301,33.199,34.091,33.199z"/>
	<path opacity="0.1" fill="#FFFFFF" d="M33.301,25.71c-0.223,0-0.402,0.18-0.402,0.402v1.13c-0.049,0.015-0.095,0.035-0.143,0.052
		c-0.059,0.021-0.118,0.04-0.176,0.064c-0.059,0.024-0.114,0.053-0.171,0.079c-0.046,0.021-0.093,0.041-0.138,0.063l-0.799-0.799
		c-0.157-0.157-0.411-0.157-0.568,0l-1.119,1.119c-0.157,0.157-0.157,0.411,0,0.568l0.8,0.799c-0.023,0.045-0.043,0.092-0.064,0.138
		c-0.026,0.057-0.055,0.112-0.079,0.17c-0.023,0.059-0.044,0.119-0.064,0.179c-0.018,0.047-0.037,0.093-0.052,0.141h-1.13
		c-0.222,0-0.402,0.18-0.402,0.401v1.582c0,0.223,0.18,0.402,0.402,0.402h1.13c0.016,0.048,0.035,0.094,0.052,0.142
		c0.021,0.059,0.041,0.119,0.064,0.177c0.024,0.059,0.053,0.114,0.079,0.171c0.021,0.046,0.041,0.092,0.064,0.138l-0.8,0.799
		c-0.157,0.157-0.157,0.411,0,0.568l1.119,1.119c0.157,0.156,0.411,0.156,0.568,0l0.799-0.8c0.045,0.023,0.092,0.042,0.138,0.063
		c0.057,0.027,0.112,0.056,0.171,0.08c0.058,0.023,0.117,0.043,0.176,0.064c0.048,0.017,0.094,0.036,0.143,0.052v1.13
		c0,0.223,0.18,0.402,0.402,0.402h0.835v-1.969v-0.267v-0.131v-0.744c-0.015,0-0.029,0.002-0.045,0.002
		c-1.209,0-2.189-0.98-2.189-2.189c0-1.21,0.98-2.19,2.189-2.19c0.016,0,0.03,0.002,0.045,0.002v-0.744v-0.131v-0.268V25.71H33.301z
		"/>
</g>
</svg>
