<?xml version="1.0" encoding="utf-8"?>
<!-- Generator: Adobe Illustrator 16.0.0, SVG Export Plug-In . SVG Version: 6.00 Build 0)  -->
<!DOCTYPE svg PUBLIC "-//W3C//DTD SVG 1.1//EN" "http://www.w3.org/Graphics/SVG/1.1/DTD/svg11.dtd">
<svg version="1.1" id="_x2018_ëîé_1" xmlns="http://www.w3.org/2000/svg" xmlns:xlink="http://www.w3.org/1999/xlink" x="0px"
	 y="0px" width="282.303px" height="362.844px" viewBox="0 0 282.303 362.844" enable-background="new 0 0 282.303 362.844"
	 xml:space="preserve">
<g>
	<g>
		<path fill="#323C50" d="M199.578,22.82l-7.692-9.432l0.756-0.654l7.398,8.058c0.21,0.229,0.32,0.529,0.309,0.846
			c-0.009,0.188-0.069,0.539-0.38,0.823L199.578,22.82z"/>
	</g>
	<g>
		<path fill="#323C50" d="M126.213,89.772c-0.017,0-0.034,0-0.051-0.001c-0.319-0.013-0.611-0.147-0.823-0.378l-15.814-17.221
			c-0.285-0.31-0.315-0.662-0.308-0.847c0.007-0.184,0.065-0.535,0.378-0.823l0.368-0.339l17.414,18.961l-0.365,0.338
			C126.794,89.664,126.513,89.772,126.213,89.772z"/>
	</g>
	<g>
		<path fill="#323C50" d="M140.644,209.091c-0.131,0-0.263-0.023-0.386-0.07c-0.271-0.103-0.484-0.301-0.604-0.56l-18.709-40.981
			c-0.119-0.26-0.129-0.554-0.027-0.827c0.103-0.273,0.302-0.489,0.563-0.608l19.645-8.969c0.295-0.133,0.668-0.088,0.831-0.026
			c0.271,0.101,0.486,0.301,0.605,0.562l18.708,40.979c0.244,0.533,0,1.19-0.533,1.436l-19.647,8.97
			C140.949,209.059,140.796,209.091,140.644,209.091z M141.605,157.985l-19.709,8.969l-0.041,0.11l18.708,40.979l0.318,0.496
			l-0.208-0.455l19.646-8.969c0.035-0.016,0.057-0.074,0.04-0.11l-18.708-40.98C141.649,158.019,141.64,157.998,141.605,157.985z"/>
	</g>
	<g>
		<path fill="none" d="M110.221,71.349c-0.001,0.005-0.008,0.011-0.008,0.015c0,0.04,0.011,0.09,0.051,0.13l15.81,17.22
			c0.03,0.04,0.08,0.06,0.13,0.06c0.006,0,0.01-0.005,0.015-0.006L110.221,71.349z"/>
		<path fill="none" d="M199.293,21.724c0.03-0.03,0.051-0.08,0.061-0.13c0-0.05-0.021-0.09-0.05-0.13l-2.876-3.132l2.81,3.443
			L199.293,21.724z"/>
		<path fill="#FC6F70" d="M126.333,88.724l72.904-66.948l-2.81-3.443L183.493,4.244c-0.04-0.03-0.09-0.05-0.14-0.05
			c-0.03,0-0.08,0-0.12,0.04l-72.96,67c-0.035,0.035-0.049,0.078-0.053,0.115l15.997,17.419
			C126.262,88.765,126.307,88.751,126.333,88.724z"/>
		<path fill="#FC6F70" d="M202.383,18.634l-15.81-17.22c-0.79-0.86-1.87-1.36-3.03-1.41c-1.189-0.05-2.279,0.36-3.14,1.15l-72.96,67
			c-0.86,0.79-1.36,1.87-1.41,3.03c-0.05,1.17,0.36,2.29,1.15,3.14l15.81,17.22c0.82,0.9,2,1.42,3.22,1.42
			c1.101,0,2.15-0.41,2.95-1.15l72.96-67.01c0.86-0.78,1.36-1.86,1.41-3.03C203.583,20.614,203.174,19.494,202.383,18.634z
			 M126.203,88.774c-0.05,0-0.1-0.02-0.13-0.06l-15.81-17.22c-0.04-0.04-0.051-0.09-0.051-0.13c0-0.004,0.007-0.01,0.008-0.015
			c0.004-0.037,0.018-0.08,0.053-0.115l72.96-67c0.04-0.04,0.09-0.04,0.12-0.04c0.05,0,0.1,0.02,0.14,0.05l12.935,14.088
			l2.876,3.132c0.029,0.04,0.05,0.08,0.05,0.13c-0.01,0.05-0.03,0.1-0.061,0.13l-0.056,0.052l-72.904,66.948
			c-0.026,0.027-0.071,0.041-0.115,0.044C126.213,88.769,126.209,88.774,126.203,88.774z"/>
	</g>
	<g>
		<path fill="#FC6F70" d="M174.633,300.134c-7.42,38.56-42.01,58.05-62.069,61.27c-5.931,0.96-11.81,1.44-17.48,1.44
			c-23.06,0-39.38-7.91-49.649-13.86c-9.9-5.72-23.93-18.36-33.65-36.66c-12.7-23.93-15.15-51.08-7.27-80.7
			c13-48.87,51.359-90.94,79.09-118.34l0.35-0.35l2.95,2.98l-0.36,0.35c-27.38,27.05-65.25,68.56-77.989,116.43
			c-16.421,61.76,18.31,100.71,38.97,112.67c12.92,7.48,33.65,16.85,64.38,11.91c18.94-3.05,51.61-21.47,58.62-57.93
			c4.07-21.18,1.88-44.22-6-63.21l-0.19-0.46l3.87-1.6l0.19,0.46C176.573,254.264,178.854,278.174,174.633,300.134z"/>
	</g>
	<g>
		<path fill="#FC6F70" d="M141.333,157.534l0.21,0.45l-19.649,8.97l-0.04,0.11l18.71,40.98l0.319,0.5l-0.209-0.46l19.649-8.97
			c0.03-0.02,0.05-0.07,0.04-0.11l-18.71-40.98L141.333,157.534z"/>
		<path fill="#FC6F70" d="M164.174,197.264l-18.711-40.98c-0.479-1.03-1.319-1.82-2.399-2.22c-1.07-0.4-2.22-0.36-3.26,0.11
			l-19.65,8.97c-1.03,0.47-1.82,1.32-2.22,2.39c-0.4,1.07-0.36,2.23,0.109,3.27l18.71,40.98c0.471,1.03,1.32,1.82,2.391,2.22
			c0.489,0.18,0.989,0.27,1.5,0.27c0.609,0,1.21-0.13,1.77-0.38l19.641-8.97c1.04-0.47,1.829-1.32,2.229-2.39
			C164.684,199.464,164.644,198.304,164.174,197.264z M160.323,199.114l-19.649,8.97l0.209,0.46l-0.319-0.5l-18.71-40.98l0.04-0.11
			l19.649-8.97l-0.21-0.45l0.32,0.49l18.71,40.98C160.373,199.044,160.354,199.094,160.323,199.114z"/>
	</g>
	<path fill="#FC6F70" d="M116.868,91.499l-8.89-9.999c-1.4-1.576-3.821-1.7-5.375-0.274L81.789,100.31
		c-1.521,1.395-1.642,3.751-0.271,5.293l8.89,10c1.4,1.576,3.82,1.699,5.375,0.274l20.814-19.085
		C118.119,95.398,118.239,93.041,116.868,91.499z M93.783,114.704l-11.05-12.32l3.12-2.8l11.04,12.33L93.783,114.704z
		 M102.993,105.704l-11.189-12.2l3.09-2.83l11.189,12.2L102.993,105.704z M112.073,97.625l-11.01-12.36l3.12-2.79l11.02,12.36
		L112.073,97.625z"/>
	<path fill="#FC6F70" d="M175.899,224.517l-8.125-16.526c-0.463-0.942-1.591-1.346-2.546-0.912l-21.483,9.739
		c-0.989,0.449-1.419,1.622-0.952,2.604l7.99,16.809c0.458,0.962,1.605,1.376,2.572,0.928l21.618-10.021
		C175.963,226.678,176.381,225.496,175.899,224.517z M147.253,223.474l-1.77-3.79l21.67-10.14l1.771,3.79L147.253,223.474z
		 M152.594,234.944l-1.78-3.79l21.67-10.14l1.78,3.79L152.594,234.944z"/>
	<g>
		<path fill="#FC6F70" d="M265.689,19.351c-0.051-0.078-0.127-0.107-0.18-0.117c-0.019-0.004-0.039-0.006-0.062-0.006
			c-0.045,0-0.099,0.01-0.152,0.046l-80.331,53.516c-0.078,0.052-0.107,0.126-0.119,0.181c-0.011,0.054-0.012,0.135,0.04,0.213
			l12.584,18.889c0.052,0.078,0.126,0.107,0.181,0.118c0.052,0.011,0.133,0.012,0.213-0.04l80.332-53.517
			c0.077-0.052,0.106-0.126,0.118-0.181c0.011-0.054,0.012-0.134-0.04-0.212L265.689,19.351z"/>
		<path fill="#FC6F70" d="M281.589,36.033l-12.584-18.89c-0.631-0.946-1.595-1.591-2.714-1.815c-1.118-0.224-2.258,0-3.202,0.63
			l-80.332,53.515c-1.958,1.305-2.491,3.959-1.187,5.917l12.584,18.889c0.631,0.946,1.595,1.591,2.713,1.815
			c0.284,0.057,0.569,0.084,0.852,0.084c0.832,0,1.646-0.243,2.352-0.714l80.332-53.516
			C282.36,40.645,282.893,37.991,281.589,36.033z M278.313,38.453c-0.012,0.055-0.041,0.129-0.118,0.181L197.863,92.15
			c-0.08,0.052-0.161,0.05-0.213,0.04c-0.055-0.011-0.129-0.041-0.181-0.118l-12.584-18.889c-0.052-0.079-0.051-0.16-0.04-0.213
			c0.012-0.055,0.041-0.129,0.119-0.181l80.331-53.516c0.054-0.036,0.107-0.046,0.152-0.046c0.022,0,0.043,0.002,0.062,0.006
			c0.053,0.01,0.129,0.04,0.18,0.117l12.584,18.89C278.325,38.319,278.324,38.399,278.313,38.453z"/>
	</g>
	<g>
		<path fill="#FC6F70" d="M142.891,352.831c-31.349,0.001-50.555-12.589-62.293-22.084c-8.667-7.008-20.279-21.299-26.881-40.389
			c-8.635-24.964-6.899-51.49,5.156-78.841c19.891-45.124,63.206-79.887,94.057-102.109l2.328,3.231
			c-30.474,21.951-73.241,56.25-92.74,100.485c-25.16,57.075,2.464,99.872,20.585,114.527c11.267,9.114,29.705,21.197,59.791,21.198
			c0.164,0,0.325,0,0.49-0.001c18.732-0.082,53.021-12.921,65.28-47.028c7.121-19.809,8.49-42.354,3.76-61.854l3.87-0.939
			c4.91,20.239,3.495,43.618-3.883,64.141c-12.945,36.019-49.199,49.578-69.011,49.664
			C143.231,352.831,143.06,352.831,142.891,352.831z"/>
	</g>
	<g>
		<path fill="#FC6F70" d="M202.079,161.169c-0.031-0.017-0.062-0.026-0.093-0.026c-0.016,0-0.03,0.002-0.046,0.006l-20.188,5.654
			c-0.046,0.014-0.082,0.043-0.107,0.089s-0.033,0.092-0.02,0.138l11.823,42.218c0.025,0.092,0.133,0.151,0.229,0.127l20.185-5.653
			c0.047-0.013,0.083-0.042,0.108-0.088c0.026-0.046,0.033-0.093,0.02-0.139l-11.824-42.217
			C202.154,161.231,202.125,161.195,202.079,161.169z"/>
		<path fill="#FC6F70" d="M217.826,202.421l-11.824-42.217c-0.299-1.069-0.999-1.96-1.971-2.507
			c-0.973-0.545-2.096-0.682-3.165-0.383l-20.188,5.654c-2.212,0.62-3.508,2.924-2.888,5.136l11.824,42.217
			c0.299,1.07,0.999,1.96,1.972,2.507c0.634,0.356,1.333,0.538,2.039,0.538c0.376,0,0.755-0.051,1.126-0.155l20.186-5.653
			c1.07-0.3,1.96-1,2.506-1.972C217.99,204.614,218.125,203.49,217.826,202.421z M213.972,203.634
			c-0.025,0.046-0.062,0.075-0.108,0.088l-20.185,5.653c-0.097,0.023-0.204-0.036-0.229-0.127l-11.823-42.218
			c-0.014-0.046-0.006-0.092,0.02-0.138s0.062-0.075,0.107-0.089l20.188-5.654c0.016-0.004,0.03-0.006,0.046-0.006
			c0.031,0,0.062,0.009,0.093,0.026c0.046,0.025,0.075,0.062,0.088,0.109l11.824,42.217
			C214.005,203.542,213.998,203.588,213.972,203.634z"/>
	</g>
	<path fill="#FC6F70" d="M188.441,93.445l-7.158-11.304c-1.128-1.781-3.496-2.294-5.26-1.139l-23.624,15.473
		c-1.726,1.131-2.225,3.438-1.121,5.181l7.158,11.303c1.128,1.782,3.497,2.294,5.261,1.139l23.623-15.474
		C189.047,97.495,189.546,95.188,188.441,93.445z M162.271,111.834l-8.258-12.729l3.342-2.167l8.258,12.729L162.271,111.834z
		 M172.508,104.548l-8.405-12.632l3.315-2.206l8.404,12.633L172.508,104.548z M182.483,98.123l-8.226-12.75l3.347-2.159l8.226,12.75
		L182.483,98.123z"/>
	<path fill="#FC6F70" d="M226.214,230.881l-5.654-17.526c-0.322-0.999-1.38-1.561-2.388-1.27l-22.664,6.536
		c-1.044,0.301-1.639,1.4-1.318,2.439l5.48,17.786c0.314,1.019,1.39,1.594,2.411,1.29l22.838-6.796
		C225.964,233.029,226.549,231.918,226.214,230.881z M198.089,224.982l-1.109-3.825l21.477-6.23l1.109,3.825L198.089,224.982z
		 M201.504,236.843l-1.109-3.825l21.477-6.23l1.109,3.825L201.504,236.843z"/>
</g>
</svg>
