<?xml version="1.0" encoding="utf-8"?>
<!-- Generator: Adobe Illustrator 16.0.0, SVG Export Plug-In . SVG Version: 6.00 Build 0)  -->
<!DOCTYPE svg PUBLIC "-//W3C//DTD SVG 1.1//EN" "http://www.w3.org/Graphics/SVG/1.1/DTD/svg11.dtd">
<svg version="1.1" id="Layer_1" xmlns="http://www.w3.org/2000/svg" xmlns:xlink="http://www.w3.org/1999/xlink" x="0px" y="0px"
	 width="64.472px" height="91.312px" viewBox="518.761 270.714 64.472 91.312"
	 enable-background="new 518.761 270.714 64.472 91.312" xml:space="preserve">
<g>
	<path fill="#FDA0A8" d="M544.803,285.888c-5.791,5.083-12.356,10.845-17.375,17.732c-6.541,8.974-9.334,18.168-8.533,28.104
		c0.593,7.37,4.027,14.54,9.681,20.19c1.037,1.037,2.149,2.026,3.313,2.938c7.246,5.678,16.142,8.162,24.41,6.814
		c7.125-1.156,13.445-4.446,18.287-9.51c4.785-5.006,7.709-11.297,8.459-18.196c0.244-2.215,0.248-4.48,0.023-6.735
		c-0.664-6.606-3.445-12.398-8.263-17.217c-3.219-3.219-7.412-6.055-12.479-8.452c1.358-1.201,2.688-2.394,3.979-3.595
		c0.451,0.06,0.931-0.084,1.277-0.432l9.147-9.149c0.593-0.595,0.597-1.558,0-2.153l-15.067-15.068
		c-0.597-0.594-1.562-0.594-2.152,0l-9.149,9.149c-0.283,0.282-0.433,0.652-0.443,1.023
		C548.291,282.829,546.521,284.382,544.803,285.888z M555.004,314.023c7.242,0.785,12.478,7.296,11.689,14.537
		c-0.785,7.243-7.297,12.479-14.539,11.69c-7.24-0.787-12.476-7.296-11.689-14.54C541.252,318.47,547.762,313.236,555.004,314.023z"
		/>
	<path fill="#FDA0A8" d="M545.43,335.297c1.849,1.85,4.302,3.022,6.904,3.305c6.32,0.688,12.021-3.896,12.711-10.219
		c0.379-3.491-0.83-6.92-3.316-9.407c-1.848-1.848-4.301-3.021-6.901-3.305c-6.326-0.687-12.027,3.898-12.713,10.22
		C541.734,329.382,542.941,332.812,545.43,335.297z M543.365,326.139l3.291,0.945l-1.713,0.001v5.597
		C543.701,330.758,543.139,328.468,543.365,326.139z M546.324,334.4c-0.236-0.24-0.459-0.489-0.672-0.746l2.996-1.659l-1.216,1.213
		l3.963,3.958C549.471,336.752,547.736,335.81,546.324,334.4z M552.582,337.351l0.943-3.291v1.714h5.588
		C557.238,336.979,554.963,337.583,552.582,337.351z M559.65,333.281l3.959-3.958c-0.504,2.313-1.777,4.309-3.517,5.737l-1.655-2.99
		L559.65,333.281z M563.793,328.135l-3.289-0.944l1.711-0.001v-5.598C563.457,323.516,564.02,325.806,563.793,328.135z
		 M555.664,329.222c-1.15,1.15-3.016,1.149-4.17-0.001c-1.15-1.149-1.15-3.016,0.002-4.167c1.152-1.149,3.016-1.15,4.166,0
		C556.814,326.205,556.814,328.071,555.664,329.222z M560.832,319.875c0.24,0.239,0.463,0.489,0.676,0.747l-2.996,1.657l1.213-1.211
		l-3.961-3.958C557.688,317.523,559.424,318.465,560.832,319.875z M554.578,316.923l-0.947,3.291v-1.713l-5.586-0.001
		C549.918,317.297,552.197,316.69,554.578,316.923z M547.064,319.215l1.655,2.99l-1.213-1.211l-3.955,3.958
		C544.053,322.637,545.326,320.642,547.064,319.215z"/>
	<path fill="#FDA0A8" d="M551.895,325.455c-0.926,0.928-0.926,2.438,0,3.366c0.929,0.928,2.438,0.927,3.365,0
		c0.931-0.929,0.931-2.438,0-3.366C554.332,324.526,552.822,324.526,551.895,325.455z M554.66,328.218
		c-0.596,0.597-1.566,0.598-2.166,0.001c-0.594-0.597-0.594-1.566,0.004-2.165c0.596-0.597,1.568-0.595,2.162,0
		C555.256,326.652,555.256,327.622,554.66,328.218z"/>
</g>
</svg>
