<?xml version="1.0" encoding="utf-8"?>
<!-- Generator: Adobe Illustrator 16.0.0, SVG Export Plug-In . SVG Version: 6.00 Build 0)  -->
<!DOCTYPE svg PUBLIC "-//W3C//DTD SVG 1.1//EN" "http://www.w3.org/Graphics/SVG/1.1/DTD/svg11.dtd">
<svg version="1.1" id="_x2018_ëîé_1" xmlns="http://www.w3.org/2000/svg" xmlns:xlink="http://www.w3.org/1999/xlink" x="0px"
	 y="0px" width="394.749px" height="275.648px" viewBox="0 0 394.749 275.648" enable-background="new 0 0 394.749 275.648"
	 xml:space="preserve">
<g>
	<g>
		<path fill="#0053B1" d="M73.793,114.099c0,17.045-13.817,30.863-30.862,30.863c-17.045,0-30.863-13.818-30.863-30.863
			c0-14.719,11.492-30.862,30.863-30.862C59.976,83.236,73.793,97.054,73.793,114.099z"/>
		<path fill="#0053B1" d="M42.931,147.462c-18.396,0-33.363-14.967-33.363-33.363c0-8.164,3.211-16.41,8.81-22.624
			c6.239-6.925,14.959-10.738,24.553-10.738c18.396,0,33.363,14.966,33.363,33.362S61.327,147.462,42.931,147.462z M42.931,85.736
			c-13.641,0-28.363,10.844-28.363,28.362c0,15.64,12.724,28.363,28.363,28.363s28.363-12.724,28.363-28.363
			C71.293,98.46,58.57,85.736,42.931,85.736z"/>
	</g>
	<g>
		<circle fill="#0053B1" cx="253.168" cy="78.872" r="24.004"/>
		<path fill="#0053B1" d="M253.168,105.377c-14.615,0-26.504-11.89-26.504-26.505c0-14.614,11.89-26.504,26.504-26.504
			s26.504,11.89,26.504,26.504C279.672,93.487,267.783,105.377,253.168,105.377z M253.168,57.368
			c-11.857,0-21.504,9.646-21.504,21.504s9.647,21.505,21.504,21.505s21.504-9.647,21.504-21.505S265.025,57.368,253.168,57.368z"/>
	</g>
	<g>
		<circle fill="#0053B1" cx="181.626" cy="201.011" r="61.297"/>
	</g>
	<g>
		<circle fill="#0053B1" cx="356.268" cy="38.976" r="28.619"/>
	</g>
	<g>
		<path fill="#0053B1" d="M183.065,275.648c-25.727,0.001-45.491-15.578-51.214-20.629c-19.872-17.537-52.326-48.869-78.402-74.046
			c-9.201-8.883-17.892-17.274-24.919-23.985l0,0c-0.828-0.79-1.731-1.634-2.691-2.53C12.642,142.134-11.92,119.193,6.762,90.931
			c15.129-22.885,41.42-17.354,57.13-14.05c1.847,0.389,3.579,0.753,5.167,1.048c5.318,0.988,11.474,2.138,18.242,3.4
			c47.363,8.84,126.635,23.636,156.311,27.64c24.833,3.348,30.565-5.779,39.239-19.6c0.491-0.781,0.989-1.575,1.498-2.379
			c1.482-2.339,2.95-4.687,4.407-7.042c5.806-9.389,11.671-19.274,17.432-29.383c2.239-3.93,4.423-8.005,6.534-11.946
			c2.851-5.321,5.799-10.825,8.958-16.109c4.656-7.792,9.401-13.102,14.931-16.71c5.647-3.685,12.669-5.744,19.773-5.799
			C356.478,0,356.574,0,356.668,0c9.581,0,19.046,3.611,26.011,9.934c7.236,6.569,11.623,15.84,12.036,25.436
			c0.321,7.439-1.669,15.323-5.913,23.433c-4.366,8.342-10.284,15.792-16.007,22.995c-1.128,1.42-2.253,2.836-3.364,4.256
			c-12.938,16.536-26.271,33.129-37.606,47.179c-12.448,15.429-25.157,31.072-37.446,46.2l-5.792,7.131
			c-15.049,18.528-29.794,36.697-44.734,55.277c-16.526,20.553-35.166,31.85-55.4,33.579
			C186.631,275.574,184.832,275.648,183.065,275.648z M40.801,78.786c-10.999,0-22.137,3.207-29.868,14.902
			c-16.351,24.736,5.352,45.005,18.318,57.115c0.974,0.91,1.892,1.767,2.731,2.569l0,0c7.037,6.72,15.732,15.115,24.938,24.004
			c26.041,25.142,58.45,56.431,78.238,73.895c5.374,4.741,23.929,19.375,47.895,19.377c1.634,0,3.29-0.067,4.972-0.211
			c18.82-1.608,36.292-12.284,51.929-31.73c14.948-18.589,29.697-36.764,44.75-55.297l5.792-7.131
			c12.287-15.125,24.993-30.765,37.436-46.188c11.324-14.035,24.642-30.61,37.561-47.121c1.118-1.429,2.251-2.854,3.386-4.283
			c5.578-7.021,11.347-14.282,15.493-22.204c3.831-7.319,5.63-14.351,5.348-20.899c-0.356-8.271-4.148-16.271-10.402-21.948
			C373.264,8.14,365.022,5,356.671,5c-0.083,0-0.167,0-0.25,0.001c-6.158,0.047-12.223,1.818-17.079,4.986
			c-4.871,3.178-9.12,7.972-13.372,15.087c-3.098,5.185-6.019,10.635-8.842,15.906c-2.126,3.97-4.326,8.074-6.598,12.061
			c-5.79,10.161-11.686,20.098-17.523,29.537c-1.466,2.37-2.944,4.733-4.436,7.088c-0.505,0.798-1,1.586-1.487,2.361
			c-9.004,14.346-16.115,25.673-44.142,21.896c-29.801-4.021-109.15-18.831-156.56-27.68c-6.767-1.263-12.92-2.411-18.238-3.399
			c-1.623-0.302-3.394-0.674-5.282-1.071C56.445,80.424,48.658,78.786,40.801,78.786z"/>
	</g>
	<g>
		<polygon fill="#0053B1" points="77.891,213.908 55.571,207.399 56.411,204.519 66.09,207.342 34.988,179.408 36.993,177.176 		"/>
	</g>
	<g>
		<polygon fill="#0053B1" points="315.157,171.568 312.825,169.682 346.058,128.633 337.745,153.107 334.904,152.143 
			337.81,143.588 		"/>
	</g>
	<g>
		<path fill="#0053B1" d="M275.989,189.862l-2.997-0.141l0.363-7.732c0.075-1.572,1.133-2.943,2.635-3.412l6.615-2.062
			c0.301-0.095,0.515-0.369,0.531-0.685l0.335-6.44c0.083-1.606,1.179-2.981,2.728-3.421l6.578-1.867
			c0.312-0.088,0.534-0.365,0.55-0.689l0.324-6.194c0.09-1.72,1.333-3.154,3.021-3.49l5.307-1.055
			c0.353-0.069,0.604-0.369,0.611-0.728l0.115-5.673c0.035-1.727,1.235-3.201,2.918-3.587l5.617-1.287
			c0.329-0.075,0.571-0.364,0.588-0.701l0.328-6.51c0.085-1.688,1.297-3.119,2.946-3.481l6.026-1.326
			c0.329-0.072,0.573-0.358,0.594-0.694l0.415-6.763c0.104-1.689,1.333-3.108,2.991-3.45l5.905-1.221
			c0.347-0.071,0.601-0.38,0.605-0.733l0.079-6.215c0.022-1.745,1.227-3.233,2.93-3.618l7.95-1.795l0.661,2.926l-7.949,1.795
			c-0.344,0.078-0.587,0.379-0.591,0.73l-0.079,6.216c-0.022,1.751-1.284,3.279-2.999,3.632l-5.905,1.221
			c-0.334,0.069-0.583,0.355-0.604,0.696l-0.415,6.763c-0.103,1.667-1.313,3.082-2.944,3.44l-6.026,1.326
			c-0.333,0.073-0.578,0.362-0.595,0.702l-0.328,6.51c-0.084,1.672-1.282,3.102-2.914,3.475l-5.617,1.287
			c-0.339,0.078-0.582,0.376-0.589,0.724l-0.115,5.673c-0.035,1.752-1.308,3.27-3.026,3.61l-5.307,1.055
			c-0.341,0.067-0.592,0.356-0.61,0.704l-0.324,6.193c-0.084,1.606-1.18,2.98-2.728,3.42l-6.578,1.867
			c-0.312,0.088-0.534,0.365-0.55,0.689l-0.335,6.44c-0.081,1.563-1.14,2.927-2.635,3.393l-6.614,2.062
			c-0.303,0.095-0.517,0.372-0.532,0.69L275.989,189.862z"/>
	</g>
</g>
</svg>
