<?xml version="1.0" encoding="utf-8"?>
<!-- Generator: Adobe Illustrator 16.0.0, SVG Export Plug-In . SVG Version: 6.00 Build 0)  -->
<!DOCTYPE svg PUBLIC "-//W3C//DTD SVG 1.1//EN" "http://www.w3.org/Graphics/SVG/1.1/DTD/svg11.dtd">
<svg version="1.1" id="Isolation_Mode" xmlns="http://www.w3.org/2000/svg" xmlns:xlink="http://www.w3.org/1999/xlink" x="0px"
	 y="0px" width="17.521px" height="17.521px" viewBox="0 0 17.521 17.521" enable-background="new 0 0 17.521 17.521"
	 xml:space="preserve">
<path fill="#23BFA3" d="M6.104,13.399l8.303-8.303c0.825,0.175,1.72-0.056,2.36-0.697c0.55-0.549,0.797-1.285,0.747-2.004
	L16.24,3.669l-1.884-0.505l0,0L13.851,1.28l1.274-1.274l0,0l0,0c-0.332-0.023-0.667,0.02-0.986,0.125
	c-0.285,0.093-0.559,0.234-0.804,0.43c-0.073,0.059-0.146,0.124-0.214,0.192c-0.642,0.641-0.872,1.535-0.697,2.36L6.89,8.648
	l-2.768,2.768c-0.271-0.089-0.551-0.14-0.832-0.153c-0.845-0.04-1.702,0.262-2.348,0.907c-0.166,0.166-0.309,0.346-0.43,0.536
	c-0.05,0.079-0.093,0.16-0.135,0.241c-0.002,0.005-0.005,0.009-0.007,0.013c-0.016,0.03-0.03,0.062-0.044,0.092
	C0.119,13.467,0,13.934,0,14.429c0,1.708,1.385,3.092,3.092,3.092c0.495,0,0.962-0.119,1.376-0.326
	c0.031-0.015,0.062-0.029,0.093-0.045c0.004-0.002,0.008-0.004,0.012-0.007c0.28-0.144,0.544-0.33,0.778-0.564
	C6.211,15.718,6.461,14.48,6.104,13.399z M3.604,16.354L1.681,15.84l-0.515-1.923l1.407-1.407l1.923,0.515l0.515,1.923L3.604,16.354
	z"/>
</svg>
