<?xml version="1.0" encoding="utf-8"?>
<!-- Generator: Adobe Illustrator 16.0.0, SVG Export Plug-In . SVG Version: 6.00 Build 0)  -->
<!DOCTYPE svg PUBLIC "-//W3C//DTD SVG 1.1//EN" "http://www.w3.org/Graphics/SVG/1.1/DTD/svg11.dtd">
<svg version="1.1" id="Icons" xmlns="http://www.w3.org/2000/svg" xmlns:xlink="http://www.w3.org/1999/xlink" x="0px" y="0px"
	 width="334.921px" height="332.555px" viewBox="0 0 334.921 332.555" enable-background="new 0 0 334.921 332.555"
	 xml:space="preserve">
<g>
	<path fill="#E96A75" d="M114.439,159.297c-6.564-8.873,26.243-44.461,19.679-53.332c-6.566-8.874-52.506,8.968-59.072,0.093
		l-9.871-13.339c-2.109-2.852,3.739-11.596,1.629-14.447c-2.109-2.853-12.18,0.188-14.292-2.666L43.104,62.89
		c-2.344-3.167,3.656-11.706,1.312-14.874c-2.344-3.169-13.034-0.97-15.381-4.139L16.953,27.548L0,40.093L76.003,162.69
		l15.712,21.235l26.46-19.58L114.439,159.297z"/>
	<path fill="#E96A75" d="M160.304,112.594c-8.973-6.428-44.053,26.924-53.025,20.495c-8.971-6.428,8.16-52.637-0.812-59.066
		l-13.49-9.664c-2.884-2.065-11.536,3.918-14.42,1.852c-2.886-2.067,0-12.183-2.886-14.249l-12.858-9.213
		c-3.205-2.296-11.65,3.837-14.854,1.541c-3.204-2.295-1.167-13.019-4.374-15.316L27.071,17.144L39.355,0l123.751,74.109
		l21.472,15.385l-19.171,26.758L160.304,112.594z"/>
	<path fill="#E96A75" d="M128.122,167.58l95.801,129.469c6.805,9.195,4.848,22.285-4.348,29.088l-3.191,2.36
		c-9.194,6.804-22.284,4.849-29.088-4.348L91.497,194.682L128.122,167.58z"/>
	<path fill="#E96A75" d="M133.966,175.476l-36.627,27.101c-4.361,3.228-10.511,2.308-13.736-2.053
		c-3.228-4.361-2.309-10.511,2.052-13.738l36.627-27.101c4.36-3.226,10.511-2.308,13.735,2.054
		C139.244,166.099,138.326,172.25,133.966,175.476z"/>
	<path fill="#E96A75" d="M168.796,126.147l130.927,93.8c9.298,6.661,22.354,4.503,29.017-4.795l2.312-3.225
		c6.661-9.299,4.505-22.357-4.793-29.02L195.331,89.109L168.796,126.147z"/>
	<path fill="#E96A75" d="M176.781,131.869l26.533-37.04c3.16-4.409,2.145-10.545-2.263-13.704
		c-4.411-3.16-10.547-2.146-13.705,2.265l-26.535,37.038c-3.158,4.409-2.145,10.545,2.265,13.704
		C167.485,137.29,173.621,136.278,176.781,131.869z"/>
	<circle fill="#242424" cx="118.483" cy="116.507" r="8.105"/>
</g>
</svg>
