<?xml version="1.0" encoding="utf-8"?>
<!-- Generator: Adobe Illustrator 16.0.0, SVG Export Plug-In . SVG Version: 6.00 Build 0)  -->
<!DOCTYPE svg PUBLIC "-//W3C//DTD SVG 1.1//EN" "http://www.w3.org/Graphics/SVG/1.1/DTD/svg11.dtd">
<svg version="1.1" id="Isolation_Mode" xmlns="http://www.w3.org/2000/svg" xmlns:xlink="http://www.w3.org/1999/xlink" x="0px"
	 y="0px" width="7.397px" height="6.101px" viewBox="0 0 7.397 6.101" enable-background="new 0 0 7.397 6.101"
	 xml:space="preserve">
<g>
	<polygon fill="#CF7485" points="6.393,0.517 6.006,2.711 6.393,4.911 	"/>
	<polygon fill="#CF7485" points="5.002,3.281 4.537,0.638 4.17,2.711 4.638,5.355 	"/>
	<polygon fill="#CF7485" points="3.178,3.35 2.713,0.711 2.358,2.712 2.826,5.352 	"/>
	<polygon fill="#CF7485" points="1.009,5.375 1.369,3.35 1.005,1.29 	"/>
	<path fill="#CF7485" d="M6.479,0.459v4.854v0.08l0.014,0.076C6.498,5.501,6.5,5.531,6.5,5.563c0,0.024-0.01,0.048-0.012,0.076
		c0.018,0.233,0.21,0.422,0.449,0.422c0.253,0,0.46-0.206,0.46-0.461L7.396,0.459C7.396,0.207,7.19,0,6.936,0
		C6.845,0,6.767,0.034,6.694,0.081C6.567,0.164,6.479,0.3,6.479,0.459z"/>
	<path fill="#CF7485" d="M6.046,6.012C6.291,5.963,6.455,5.727,6.41,5.483L5.963,2.954L5.516,0.423
		C5.479,0.214,5.313,0.075,5.114,0.051C5.091,0.049,5.068,0.049,5.046,0.049c-0.021,0-0.041-0.005-0.062,0
		c-0.004,0-0.005,0.001-0.01,0.001C4.73,0.098,4.567,0.334,4.612,0.579l0.434,2.457l0.458,2.605C5.54,5.838,5.695,5.979,5.878,6.012
		c0.029,0.004,0.057,0.001,0.085,0.001c0.024-0.001,0.047,0.005,0.072,0.003C6.04,6.015,6.042,6.012,6.046,6.012z"/>
	<path fill="#CF7485" d="M4.211,6.012c0.243-0.048,0.406-0.285,0.361-0.528L4.127,2.954l-0.45-2.531
		C3.645,0.226,3.491,0.085,3.306,0.051C3.277,0.049,3.25,0.049,3.222,0.049c-0.025,0-0.048-0.008-0.073,0
		c-0.006,0-0.007,0.001-0.009,0.001c-0.246,0.05-0.406,0.286-0.366,0.528L3.22,3.106l0.449,2.535
		c0.033,0.198,0.189,0.338,0.374,0.371C4.07,6.016,4.099,6.013,4.127,6.013c0.025-0.001,0.048,0.005,0.072,0.003
		C4.204,6.015,4.207,6.012,4.211,6.012z"/>
	<path fill="#CF7485" d="M2.234,6.012C2.26,6.016,2.289,6.013,2.316,6.013C2.34,6.012,2.365,6.019,2.39,6.016
		c0.003-0.001,0.006-0.004,0.009-0.004c0.245-0.048,0.406-0.285,0.364-0.528L2.316,2.954L1.87,0.423
		C1.834,0.226,1.681,0.085,1.492,0.051C1.467,0.048,1.439,0.049,1.41,0.049c-0.022,0-0.048-0.008-0.073,0
		c-0.003,0-0.005,0.001-0.007,0.001C1.153,0.086,1.024,0.215,0.978,0.378C0.987,0.416,1.003,0.458,1.003,0.5l0.001,0.297l0.405,2.31
		l0.447,2.534C1.893,5.838,2.047,5.979,2.234,6.012z"/>
	<path fill="#CF7485" d="M0.888,5.823c0.024-0.057,0.038-0.116,0.038-0.184L0.917,0.612V0.5c0-0.255-0.207-0.459-0.458-0.459
		C0.207,0.041,0,0.246,0,0.502l0.008,5.138c0,0.256,0.207,0.46,0.46,0.46C0.657,6.101,0.815,5.985,0.888,5.823z"/>
</g>
</svg>
