<?xml version="1.0" encoding="utf-8"?>
<!-- Generator: Adobe Illustrator 16.0.0, SVG Export Plug-In . SVG Version: 6.00 Build 0)  -->
<!DOCTYPE svg PUBLIC "-//W3C//DTD SVG 1.1//EN" "http://www.w3.org/Graphics/SVG/1.1/DTD/svg11.dtd">
<svg version="1.1" id="Layer_1" xmlns="http://www.w3.org/2000/svg" xmlns:xlink="http://www.w3.org/1999/xlink" x="0px" y="0px"
	 width="146.326px" height="68.021px" viewBox="0 0 146.326 68.021" enable-background="new 0 0 146.326 68.021"
	 xml:space="preserve">
<g>
	<path fill-rule="evenodd" clip-rule="evenodd" fill="#AD90C6" d="M137.554,9.022c-7.799-3.73-16.846-0.539-20.398,7.198
		l-0.44-0.215c-1.412-4.424-4.579-2.865-15.886-1.54l-15.51,1.68l-0.602-5.149l3.437-0.4c1.85-0.215,3.016-1.693,2.801-3.541
		l-0.509-4.358c-0.199-1.719-1.674-2.889-3.525-2.67l-17.04,1.985c-1.719,0.199-2.885,1.673-2.685,3.392l0.508,4.358
		c0.215,1.852,1.69,3.018,3.407,2.818l3.436-0.4l0.731,5.137C14.924,24.18,16.693,23.411,8.069,29.599
		c7.538,0.325,14.936,4.521,20.204,11.805l21.861,23.3c1.142,1.741,3.484,3.476,4.938,3.307l63.662-7.552
		c1.422-0.432,2.721-1.924,2.949-3.422l-1.495-12.834l3.572-7.574c7.918,3.787,17.38,0.648,21.056-7.032
		C148.487,21.917,145.231,12.694,137.554,9.022z M104.372,49.815l-48.47,5.778L34.257,32.392c0,0,61.851-7.039,67.191-7.679
		c2.774-0.323,5.135,1.545,5.458,4.318l1.784,15.326C109.014,47.132,107.147,49.489,104.372,49.815z M137.019,25.865
		c-1.608,3.36-5.51,4.736-8.872,3.132c-3.359-1.606-4.854-5.569-3.25-8.927c1.607-3.36,5.629-4.679,8.989-3.072
		C137.245,18.605,138.622,22.506,137.019,25.865z"/>
	<path fill-rule="evenodd" clip-rule="evenodd" fill="#AD90C6" d="M8.121,31.385l-7.077,9.483
		c-2.801,3.872,0.402,9.803,5.243,10.253c5.027,0.467,9.271-4.772,7.231-9.094L8.121,31.385z M11.303,47.263
		c-0.715,0-1.294-1.303-1.294-2.909c0-1.607,0.579-2.91,1.294-2.91s1.294,1.303,1.294,2.91
		C12.597,45.96,12.018,47.263,11.303,47.263z"/>
</g>
</svg>
