<?xml version="1.0" encoding="utf-8"?>
<!-- Generator: Adobe Illustrator 16.0.0, SVG Export Plug-In . SVG Version: 6.00 Build 0)  -->
<!DOCTYPE svg PUBLIC "-//W3C//DTD SVG 1.1//EN" "http://www.w3.org/Graphics/SVG/1.1/DTD/svg11.dtd">
<svg version="1.1" id="_x2018_ëîé_1" xmlns="http://www.w3.org/2000/svg" xmlns:xlink="http://www.w3.org/1999/xlink" x="0px"
	 y="0px" width="420.226px" height="196.859px" viewBox="0 0 420.226 196.859" enable-background="new 0 0 420.226 196.859"
	 xml:space="preserve">
<g>
	<g>
		<path fill="#41B0B6" d="M91.226,125.856v37.46c-0.08,0.02-0.16,0.02-0.24,0.02h-17.93c-1.62,0-2.95-1.32-2.95-2.94v-31.609
			c0-1.62,1.33-2.95,2.95-2.95h17.93C91.065,125.836,91.146,125.836,91.226,125.856z"/>
	</g>
	<g>
		<path fill="#41B0B6" d="M125.965,96.65v42.737c0,1.546-0.941,2.805-2.096,2.805h-30.6c-1.155,0-2.104-1.259-2.104-2.805V96.65
			c0-1.545,0.948-2.814,2.104-2.814h30.6C125.024,93.836,125.965,95.105,125.965,96.65z"/>
	</g>
	<g>
		<path fill="#41B0B6" d="M115.896,49.036v44.8h-13.98v-44.8c0-0.391,0.04-0.771,0.11-1.12h13.76
			C115.855,48.266,115.896,48.646,115.896,49.036z"/>
	</g>
	<g>
		<rect x="0.182" y="155.567" fill="#1D4B60" width="70.188" height="2"/>
	</g>
	<g>
		<rect y="133.25" fill="#1D4B60" width="69.703" height="2"/>
	</g>
	<g>
		<path fill="#41B0B6" d="M329,163.316v-37.46c0.08-0.021,0.16-0.021,0.24-0.021h17.93c1.62,0,2.95,1.32,2.95,2.94v31.61
			c0,1.619-1.33,2.949-2.95,2.949h-17.93C329.16,163.336,329.08,163.336,329,163.316z"/>
	</g>
	<g>
		<rect x="349.855" y="131.605" fill="#1D4B60" width="70.188" height="2"/>
	</g>
	<g>
		<rect x="350.522" y="153.922" fill="#1D4B60" width="69.703" height="2"/>
	</g>
	<g>
		<path fill="#41B0B6" d="M134.735,5.826l-0.2,24.05c-0.01,1.32-0.47,2.6-1.3,3.63l-8.404,11.567
			c-1.298,1.786-3.372,2.843-5.579,2.843H98.103c-2.249,0-4.356-1.096-5.647-2.938l-7.53-10.742c-1.23-1.5-1.9-3.38-1.88-5.33
			l0.19-22.63c0.02-2,1.64-3.61,3.64-3.61h44.73C133.346,2.666,134.755,4.086,134.735,5.826z"/>
	</g>
	<g>
		<rect x="83.266" y="7.666" fill="#1D4B60" width="51" height="2"/>
	</g>
	<g>
		<rect x="83.516" y="12.916" fill="#1D4B60" width="51" height="2"/>
	</g>
	<g>
		<path fill="#41B0B6" d="M192.632,148.786v44.8c0,1.62-0.941,2.94-2.097,2.94h-30.6c-1.155,0-2.104-1.32-2.104-2.94v-44.8
			c0-1.62,0.949-2.95,2.104-2.95h30.6C191.691,145.836,192.632,147.166,192.632,148.786z"/>
	</g>
	<g>
		<path fill="#41B0B6" d="M127.172,126.51l28.958-0.062c1.017,0,1.845,0.995,1.845,2.217v32.358c0,1.222-0.829,2.225-1.845,2.225
			l-29.083,0.044c-1.017,0-0.89-1.047-0.89-2.269v-32.358C126.157,127.442,126.155,126.51,127.172,126.51z"/>
	</g>
	<g>
		<path fill="#41B0B6" d="M182.562,101.036v44.8h-13.98v-44.8c0-0.391,0.04-0.771,0.11-1.12h13.76
			C182.522,100.266,182.562,100.646,182.562,101.036z"/>
	</g>
	<g>
		<path fill="#41B0B6" d="M201.402,57.826l-0.2,24.05c-0.01,1.32-0.47,2.6-1.3,3.63l-8.405,11.567
			c-1.297,1.786-3.372,2.843-5.579,2.843H164.77c-2.249,0-4.356-1.096-5.647-2.938l-7.531-10.742c-1.23-1.5-1.9-3.38-1.88-5.33
			l0.19-22.63c0.02-2,1.64-3.61,3.64-3.61h44.73C200.012,54.666,201.422,56.086,201.402,57.826z"/>
	</g>
	<g>
		<rect x="149.932" y="59.666" fill="#1D4B60" width="51" height="2"/>
	</g>
	<g>
		<rect x="150.182" y="64.916" fill="#1D4B60" width="51" height="2"/>
	</g>
	<g>
		<path fill="#41B0B6" d="M261.965,149.119v44.801c0,1.619-0.941,2.939-2.096,2.939h-30.6c-1.155,0-2.104-1.32-2.104-2.939v-44.801
			c0-1.619,0.948-2.949,2.104-2.949h30.6C261.024,146.17,261.965,147.5,261.965,149.119z"/>
	</g>
	<g>
		<path fill="#41B0B6" d="M194.891,126.781h29.798c1.078,0,1.956,0.995,1.956,2.217v32.358c0,1.222-0.878,2.225-1.956,2.225h-29.798
			c-1.077,0-1.962-1.003-1.962-2.225v-32.358C192.929,127.776,193.814,126.781,194.891,126.781z"/>
	</g>
	<g>
		<path fill="#41B0B6" d="M251.896,101.369v44.801h-13.98v-44.801c0-0.391,0.04-0.77,0.11-1.119h13.76
			C251.855,100.6,251.896,100.979,251.896,101.369z"/>
	</g>
	<g>
		<path fill="#41B0B6" d="M270.735,58.159l-0.2,24.05c-0.01,1.32-0.47,2.6-1.3,3.63l-8.404,11.567
			c-1.298,1.786-3.372,2.844-5.579,2.844h-21.149c-2.249,0-4.356-1.097-5.647-2.938l-7.53-10.742c-1.23-1.5-1.9-3.38-1.88-5.33
			l0.19-22.63c0.02-2,1.64-3.609,3.64-3.609h44.73C269.346,55,270.755,56.42,270.735,58.159z"/>
	</g>
	<g>
		<rect x="219.266" y="59.999" fill="#1D4B60" width="51" height="2"/>
	</g>
	<g>
		<rect x="219.516" y="65.249" fill="#1D4B60" width="51" height="2"/>
	</g>
	<g>
		<path fill="#41B0B6" d="M328.299,94.119v44.801c0,1.619-0.941,2.939-2.097,2.939h-30.6c-1.155,0-2.104-1.32-2.104-2.939V94.119
			c0-1.619,0.949-2.949,2.104-2.949h30.6C327.357,91.17,328.299,92.5,328.299,94.119z"/>
	</g>
	<g>
		<path fill="#41B0B6" d="M264.321,126.78h26.83c0.97,0,1.761,0.996,1.761,2.218v32.357c0,1.223-0.791,2.226-1.761,2.226h-26.83
			c-0.97,0-1.767-1.003-1.767-2.226v-32.357C262.554,127.776,263.351,126.78,264.321,126.78z"/>
	</g>
	<g>
		<path fill="#41B0B6" d="M318.229,46.369V91.17h-13.98V46.369c0-0.391,0.04-0.77,0.11-1.119h13.76
			C318.189,45.6,318.229,45.979,318.229,46.369z"/>
	</g>
	<g>
		<path fill="#41B0B6" d="M337.069,3.159l-0.2,24.05c-0.01,1.32-0.47,2.6-1.3,3.63l-8.405,11.567
			c-1.297,1.786-3.372,2.844-5.579,2.844h-21.148c-2.249,0-4.356-1.097-5.647-2.938l-7.53-10.742c-1.23-1.5-1.9-3.38-1.88-5.33
			l0.19-22.63c0.02-2,1.64-3.609,3.64-3.609h44.73C335.679,0,337.089,1.42,337.069,3.159z"/>
	</g>
	<g>
		<rect x="285.599" y="4.999" fill="#1D4B60" width="51" height="2"/>
	</g>
	<g>
		<rect x="285.849" y="10.249" fill="#1D4B60" width="51" height="2"/>
	</g>
</g>
</svg>
