<?xml version="1.0" encoding="utf-8"?>
<!-- Generator: Adobe Illustrator 16.0.0, SVG Export Plug-In . SVG Version: 6.00 Build 0)  -->
<!DOCTYPE svg PUBLIC "-//W3C//DTD SVG 1.1//EN" "http://www.w3.org/Graphics/SVG/1.1/DTD/svg11.dtd">
<svg version="1.1" id="Isolation_Mode" xmlns="http://www.w3.org/2000/svg" xmlns:xlink="http://www.w3.org/1999/xlink" x="0px"
	 y="0px" width="64.125px" height="64.126px" viewBox="971.738 394.88 64.125 64.126"
	 enable-background="new 971.738 394.88 64.125 64.126" xml:space="preserve">
<g>
	<path fill="#2F2177" d="M1008.224,430.396l2.479-2.479l1.094,1.094l3.141-3.14l-2.188-2.188l11.555-11.555l2.656,1.72l8.902-12.403
		l-3.282-3.282l-3.281-3.282l-12.403,8.903l1.721,2.656l-11.555,11.554l-2.188-2.188l-3.14,3.141l1.094,1.094l-2.479,2.479
		c-1.448-1.376-3.759-1.356-5.18,0.064L972.82,444.93c-1.443,1.444-1.443,3.808,0,5.251l7.742,7.742c1.442,1.444,3.807,1.444,5.25,0
		l22.347-22.346C1009.581,434.155,1009.6,431.845,1008.224,430.396z M976.793,446.219l-1.459-1.459l17.941-17.94l1.459,1.458
		L976.793,446.219z M982.774,452.2l-4.231-4.231l17.941-17.94l4.23,4.23L982.774,452.2z M985.69,455.117l-1.458-1.458l17.94-17.941
		l1.459,1.458L985.69,455.117z"/>
</g>
</svg>
