<?xml version="1.0" encoding="utf-8"?>
<!-- Generator: Adobe Illustrator 16.0.0, SVG Export Plug-In . SVG Version: 6.00 Build 0)  -->
<!DOCTYPE svg PUBLIC "-//W3C//DTD SVG 1.1//EN" "http://www.w3.org/Graphics/SVG/1.1/DTD/svg11.dtd">
<svg version="1.1" id="Icons" xmlns="http://www.w3.org/2000/svg" xmlns:xlink="http://www.w3.org/1999/xlink" x="0px" y="0px"
	 width="305.113px" height="327.458px" viewBox="829.991 1474.051 305.113 327.458"
	 enable-background="new 829.991 1474.051 305.113 327.458" xml:space="preserve">
<g>
	<path fill="#FC6F70" d="M952.818,1665.197c-34.146-16.743-116.154-23.479-121.665-75.176
		c-5.223-48.995,7.372-75.506,33.354-100.781c3.045-2.962,7.594-0.438,8.692,3.665c10.975,40.958,17.076,63.724,19.903,74.282
		c1.1,4.102,5.317,6.537,9.42,5.438l129.854-34.795c4.103-1.1,8.827,1.266,9.162,5.501c2.103,26.591-19.889,57.537-16.87,84.817
		c4.208,38.023,37.85,47.537,88.546,84.056c29.011,20.897,26.763,56.532,7.372,75.922c-19.391,19.391-58.7,19.846-76.484-12.888
		C1025.344,1740.708,989.569,1683.221,952.818,1665.197z M1105.193,1769.768c9.486-9.488,9.485-24.871,0-34.356
		c-9.487-9.488-24.869-9.487-34.356,0s-9.488,24.868,0,34.356C1080.324,1779.254,1095.706,1779.254,1105.193,1769.768z"/>
	<path fill="#FC6F70" d="M927.345,1474.323c-4.09-1.144-6.562,1.437-5.464,5.54c16.369,61.086,21.895,81.71,21.895,81.71
		l63.735-17.078c-0.216-0.517-0.35-1.078-0.655-1.551C982.82,1506.062,965.531,1484.993,927.345,1474.323z"/>
	
		<rect x="940.568" y="1576.874" transform="matrix(0.9659 -0.2588 0.2588 0.9659 -380.6013 305.2596)" fill="#FC6F70" width="56.995" height="42.534"/>
</g>
</svg>
