<?xml version="1.0" encoding="utf-8"?>
<!-- Generator: Adobe Illustrator 16.0.0, SVG Export Plug-In . SVG Version: 6.00 Build 0)  -->
<!DOCTYPE svg PUBLIC "-//W3C//DTD SVG 1.1//EN" "http://www.w3.org/Graphics/SVG/1.1/DTD/svg11.dtd">
<svg version="1.1" id="Layer_1" xmlns="http://www.w3.org/2000/svg" xmlns:xlink="http://www.w3.org/1999/xlink" x="0px" y="0px"
	 width="73.502px" height="38.017px" viewBox="0 0 73.502 38.017" enable-background="new 0 0 73.502 38.017" xml:space="preserve">
<g>
	<path fill="#364A5E" d="M14.962,12.849c-0.285,0-0.537-0.203-0.59-0.492c-0.06-0.326,0.157-0.639,0.482-0.698l3.085-0.563
		c0.332-0.055,0.639,0.157,0.698,0.482c0.06,0.326-0.157,0.639-0.482,0.698l-3.085,0.563C15.034,12.846,14.998,12.849,14.962,12.849
		z"/>
	<path fill="#364A5E" d="M14.877,14.479c-0.285,0-0.537-0.203-0.59-0.492c-0.06-0.326,0.157-0.639,0.482-0.698l4.952-0.904
		c0.331-0.054,0.639,0.157,0.698,0.482c0.06,0.326-0.157,0.639-0.482,0.698l-4.952,0.904C14.949,14.476,14.913,14.479,14.877,14.479
		z"/>
	<path fill="#364A5E" d="M14.793,16.108c-0.285,0-0.537-0.203-0.59-0.492c-0.06-0.326,0.157-0.639,0.482-0.698l4.952-0.904
		c0.331-0.056,0.639,0.157,0.698,0.482c0.06,0.326-0.157,0.639-0.482,0.698l-4.952,0.904C14.865,16.105,14.829,16.108,14.793,16.108
		z"/>
	<path fill="#364A5E" d="M14.709,17.738c-0.285,0-0.537-0.203-0.59-0.492c-0.06-0.326,0.157-0.639,0.482-0.698l4.952-0.904
		c0.332-0.058,0.639,0.157,0.698,0.482c0.06,0.326-0.157,0.639-0.482,0.698l-4.952,0.904C14.781,17.735,14.745,17.738,14.709,17.738
		z"/>
	<g>
		<path fill="#065D9E" d="M9.191,11.008c-0.156-0.193-0.392-0.306-0.641-0.306l-8.072-0.004c-0.142,0-0.216,0.171-0.118,0.273
			c0.308,0.319,0.626,0.634,0.96,0.944c3.086,2.862,6.517,4.658,9.319,5.112l0.001-4.223L9.191,11.008z"/>
	</g>
	<path fill="#065D9E" d="M68.033,37.713L34.119,23.619c-8.504-3.579-15.083-2.686-19.729-0.519l0.009-20.835
		c4.744,4.651,9.749,10.343,22.236,15.066c10.006,3.785,26.775,10.171,34.217,13.007c1.779,0.678,2.926,2.508,2.593,4.383
		C72.987,37.294,70.326,38.666,68.033,37.713z M71.922,34.943c0.363-0.985,0.07-2.061-0.658-2.736
		c-0.229-0.213-0.502-0.386-0.812-0.503c-0.355-0.136-0.75-0.286-1.147-0.438l-1.789,4.693l1.06,0.444
		c0.642,0.267,1.347,0.261,1.984-0.018S71.682,35.596,71.922,34.943z M14.395,11.17l-0.003,6.501l3.89-0.007
		c0.581-0.001,1.183,0.026,1.794,0.069l0.002-6.561L14.395,11.17z"/>
	<rect x="14.943" y="11.164" transform="matrix(1 -0.0022 0.0022 1 -0.0311 0.0362)" fill="#364A5E" width="3.614" height="6.503"/>
	<path fill="#065D9E" d="M13.648,1.536c-2.933-2.807-8.5-1.644-12.338,2.494c-0.464,0.5-0.877,1.023-1.246,1.56
		c-0.168,0.244,0.018,0.578,0.313,0.578l8.551,0.004c0.264,0,0.512,0.126,0.667,0.34l0.892,1.229
		c0.102,0.141,0.157,0.31,0.157,0.484l-0.007,15.963c0,0.488,0.541,0.781,0.944,0.506c0.84-0.571,1.778-1.112,2.809-1.594
		l0.009-20.835C14.148,2.02,13.898,1.775,13.648,1.536z"/>
	<path fill="#065D9E" d="M36.133,18.657c-6.195-2.343-11.202-4.759-14.811-7.294c-0.177-0.124-0.384-0.19-0.601-0.19h-0.643
		l-0.002,6.561c2.919,0.204,6.177,0.931,9.78,2.447L67.517,35.96l1.789-4.693C61.442,28.271,45.703,22.277,36.133,18.657z"/>
</g>
</svg>
