<?xml version="1.0" encoding="utf-8"?>
<!-- Generator: Adobe Illustrator 16.0.0, SVG Export Plug-In . SVG Version: 6.00 Build 0)  -->
<!DOCTYPE svg PUBLIC "-//W3C//DTD SVG 1.1//EN" "http://www.w3.org/Graphics/SVG/1.1/DTD/svg11.dtd">
<svg version="1.1" id="Layer_1" xmlns="http://www.w3.org/2000/svg" xmlns:xlink="http://www.w3.org/1999/xlink" x="0px" y="0px"
	 width="743.666px" height="126.891px" viewBox="0 0 743.666 126.891" enable-background="new 0 0 743.666 126.891"
	 xml:space="preserve">
<g>
	<defs>
		<rect id="SVGID_1_" x="-57.167" y="-57.997" width="858.898" height="242.387"/>
	</defs>
	<clipPath id="SVGID_2_">
		<use xlink:href="#SVGID_1_"  overflow="visible"/>
	</clipPath>
	<path clip-path="url(#SVGID_2_)" fill="#00AEEF" d="M81.263,0.421H14.705c-1.992,0-3.616,1.624-3.616,3.62V70.6
		c0,1.992,1.624,3.616,3.616,3.616h66.558c1.99,0,3.62-1.624,3.62-3.616V4.042C84.883,2.045,83.253,0.421,81.263,0.421"/>
	<path clip-path="url(#SVGID_2_)" fill="#FFFFFF" d="M79.944,44.409c-2.671-3.382-9.202-4.099-12.74-4.099
		c-14.735,0-28.83,2.749-41.804,7.745c0.112-3.843,0.006-7.688-0.427-11.479c9.873-2.884,27.293-5.198,38.761-4.194
		C74.442,33.321,78.478,39.291,79.944,44.409"/>
	<path clip-path="url(#SVGID_2_)" fill="#FFFFFF" d="M75.146,34.637c-2.987-2.803-5.265-4.827-14.32-6.133
		c-9.055-1.31-28.217,0.663-36.691,2.8c-0.609-3.354-1.431-6.657-2.452-9.905c5.811-1.023,11.786-1.549,17.892-1.549
		c5.934,0,11.756,0.502,17.413,1.471C68.962,23.368,72.774,30.072,75.146,34.637"/>
	<path clip-path="url(#SVGID_2_)" fill="#FFFFFF" d="M15.188,6.719c30.839-0.8,48.164,12.703,51.618,16.422
		c-3.003-2.504-8.795-4.638-13.789-5.599c-6.132-1.176-12.46-1.788-18.971-1.788c-4.75,0-9.422,0.331-13.995,0.978
		C18.88,13.686,16.721,9.606,15.188,6.719"/>
	<path clip-path="url(#SVGID_2_)" fill="#FFFFFF" d="M75.146,63.954c4.961-10.254,3.797-12.048-5.948-10.856
		c-15.141,1.853-34.231,8.335-48.645,16.122c2.632-5.091,3.918-10.215,4.42-14.836c13.92-6.114,29.242-9.632,45.344-9.954
		C87.168,44.1,80.847,56.993,75.146,63.954"/>
	<path clip-path="url(#SVGID_2_)" fill="#FFFFFF" d="M62.67,108.91c1.351-0.2,3.357-0.345,5.591-0.345
		c2.752,0,4.677,0.368,6.004,1.301c1.099,0.789,1.702,2.451,1.702,3.976c0,2.112-1.364,3.616-2.96,4.137v0.073
		c0.794,1.107,5.532,7.199,5.532,7.199h-4.634l-4.978-6.512H66.83v6.512H62.67V108.91z M66.83,116.038h1.65
		c2.094,0,3.331-0.937,3.331-2.387c0-1.523-1.157-2.286-3.082-2.312c-1.015,0-1.601,0.082-1.899,0.126V116.038z M1.143,121.406
		c1.13,0.515,2.865,1.031,4.656,1.031c1.928,0,2.951-0.715,2.951-1.794c0-1.036-0.884-1.624-3.118-2.335
		c-3.085-0.966-5.094-2.487-5.094-4.901c0-2.828,2.642-4.992,7.023-4.992c2.096,0,3.638,0.392,4.741,0.833l-0.937,3.031
		c-0.742-0.322-2.064-0.792-3.886-0.792c-1.817,0-2.698,0.741-2.698,1.602c0,1.057,1.045,1.527,3.442,2.337
		c3.282,1.082,4.823,2.608,4.823,4.944c0,2.779-2.398,5.166-7.494,5.166c-2.121,0-4.219-0.512-5.266-1.032L1.143,121.406z
		 M25.558,118.257h-6.833v3.937h7.635v3.074H14.506v-16.58H25.97v3.071h-7.245v3.447h6.833V118.257z M43.361,124.504
		c-1.298,0.393-3.748,0.934-6.202,0.934c-3.39,0-5.839-0.765-7.551-2.237c-1.712-1.432-2.649-3.593-2.616-6.026
		c0.026-5.51,4.517-8.661,10.61-8.661c2.394,0,4.241,0.418,5.152,0.815l-0.881,3c-1.022-0.392-2.288-0.712-4.331-0.712
		c-3.496,0-6.141,1.766-6.141,5.36c0,3.418,2.398,5.437,5.84,5.437c0.964,0,1.735-0.102,2.068-0.244V118.7l0.013-2.925h4.039
		V124.504z M49.451,108.688v9.545c0,2.849,1.212,4.304,3.357,4.304c2.213,0,3.422-1.379,3.422-4.304v-9.545h4.188v9.298
		c0,5.115-2.891,7.551-7.744,7.551c-4.683,0-7.441-2.313-7.441-7.602v-9.247H49.451z M94.936,116.807
		c0,5.433-3.692,8.729-9.124,8.729c-5.51,0-8.732-3.717-8.732-8.437c0-4.972,3.558-8.685,9.039-8.685
		C91.825,108.415,94.936,112.229,94.936,116.807 M81.519,117.027c0,3.249,1.704,5.534,4.516,5.534c2.838,0,4.465-2.411,4.465-5.628
		c0-2.981-1.597-5.544-4.492-5.544C83.169,111.39,81.519,113.802,81.519,117.027"/>
	<path clip-path="url(#SVGID_2_)" fill="#FFFFFF" d="M14.968,85.672c-1.496-1.066-3.716-1.584-6.808-1.584
		c-2.67,0-4.932,0.134-6.728,0.396v19.573h4.704v-7.243l0.202,0.028c0.456,0.058,1.053,0.09,1.718,0.09
		c3.11,0,5.618-0.724,7.237-2.083c1.294-1.1,2.011-2.755,2.011-4.654C17.304,88.366,16.459,86.719,14.968,85.672 M8.027,93.791
		c-0.803,0-1.327-0.036-1.746-0.128l-0.145-0.029V87.39l0.138-0.035c0.233-0.054,0.89-0.185,2.155-0.185
		c2.613,0,4.173,1.176,4.173,3.144C12.602,92.457,10.848,93.791,8.027,93.791 M29.022,83.907c-6.372,0-10.821,4.275-10.821,10.389
		c0,6.034,4.205,10.092,10.454,10.092c6.634,0,10.923-4.104,10.923-10.448C39.578,88.944,36.316,83.907,29.022,83.907
		 M28.922,101.122c-3.449,0-5.678-2.709-5.678-6.914c0-4.204,2.265-7.038,5.649-7.038c3.324,0,5.647,2.847,5.647,6.918
		C34.54,98.361,32.333,101.122,28.922,101.122 M53.885,95.571l-0.035-0.051v-0.273l0.125-0.042c1.604-0.518,3.484-2.104,3.484-4.868
		c0-1.95-0.809-3.838-2.003-4.694c-1.52-1.078-3.744-1.555-7.21-1.555c-2.422,0-4.825,0.15-6.633,0.396v19.573h4.709v-7.933h2.828
		c0,0,5.959,7.792,6.066,7.933h5.185C59.33,102.677,54.733,96.756,53.885,95.571 M48.512,93.19h-2.19v-5.902l0.146-0.026
		c0.625-0.1,1.412-0.148,2.349-0.148c2.535,0.033,3.931,1.096,3.931,2.991C52.748,92.008,51.129,93.19,48.512,93.19 M75.136,84.238
		v3.473h-6.174v16.347h-4.771V87.711h-6.075v-3.473H75.136z M85.344,83.907c-6.372,0-10.823,4.275-10.823,10.389
		c0,6.034,4.197,10.092,10.455,10.092c6.633,0,10.919-4.104,10.919-10.448C95.895,88.944,92.634,83.907,85.344,83.907
		 M85.242,101.122c-3.45,0-5.676-2.709-5.676-6.914c0-4.204,2.263-7.038,5.645-7.038c3.326,0,5.647,2.847,5.647,6.918
		C90.858,98.361,88.652,101.122,85.242,101.122"/>
	<path clip-path="url(#SVGID_2_)" fill="#A7A9AC" d="M143.465,47.541V0.446h19.504c8.089,0,13.932,7.495,13.932,14.792
		c0,7.692-5.442,14.924-13.531,14.924h-15.328v17.378H143.465z M148.042,26.048H163.1c5.573,0,9.154-5.106,9.154-10.81
		c0-5.904-4.376-10.678-9.548-10.678h-14.664V26.048z"/>
	<path clip-path="url(#SVGID_2_)" fill="#A7A9AC" d="M181.768,30.359c0-9.683,7.294-17.973,17.181-17.973
		c9.88,0,17.181,8.29,17.181,17.973c0,9.621-7.232,17.845-17.181,17.845C188.869,48.204,181.768,39.98,181.768,30.359
		 M198.88,44.225c6.9,0,12.604-6.236,12.604-13.931c0-7.696-5.704-13.929-12.535-13.929c-6.9,0-12.535,6.303-12.535,14.063
		C186.414,38.12,191.987,44.225,198.88,44.225"/>
	<path clip-path="url(#SVGID_2_)" fill="#A7A9AC" d="M242.085,16.964c-6.036,0.197-10.882,3.512-12.735,9.085v21.492h-4.515V12.982
		h4.245v8.293c2.392-4.843,6.568-8.491,11.014-8.491c0.795,0,1.528,0,1.991,0.066V16.964z"/>
	<path clip-path="url(#SVGID_2_)" fill="#A7A9AC" d="M266.18,45.881c-1.065,0.467-4.114,2.057-7.827,2.057
		c-3.913,0-7.294-2.188-7.294-6.634V16.563h-4.777v-3.582h4.777V1.307h4.508v11.674h7.958v3.582h-7.958v23.483
		c0.201,2.52,1.991,3.712,4.176,3.712c2.524,0,4.715-1.192,5.241-1.524L266.18,45.881z"/>
	<path clip-path="url(#SVGID_2_)" fill="#A7A9AC" d="M269.837,30.359c0-9.683,7.294-17.973,17.181-17.973
		c9.88,0,17.181,8.29,17.181,17.973c0,9.621-7.232,17.845-17.181,17.845C276.938,48.204,269.837,39.98,269.837,30.359
		 M286.95,44.225c6.9,0,12.604-6.236,12.604-13.931c0-7.696-5.704-13.929-12.535-13.929c-6.9,0-12.535,6.303-12.535,14.063
		C274.483,38.12,280.057,44.225,286.95,44.225"/>
	<path clip-path="url(#SVGID_2_)" fill="#A7A9AC" d="M349.133,9.269c-2.655-2.987-7.294-5.04-12.867-5.04
		c-8.359,0-12.009,3.381-12.009,8.753c0,5.572,4.051,7.031,13.136,9.022c10.018,2.123,16.248,4.775,16.248,13.199
		c0,8.691-7.094,12.735-16.912,12.735c-7.363,0-13.731-2.319-18.902-6.83l2.254-3.782c3.45,3.581,9.548,6.499,16.718,6.499
		c7.494,0,12.002-2.717,12.002-8.159c0-5.769-4.84-7.626-14.263-9.748c-9.811-2.254-14.99-4.643-14.99-12.273
		c0-8.756,6.9-13.53,16.78-13.53c6.175,0,11.083,1.991,14.997,5.438L349.133,9.269z"/>
	<path clip-path="url(#SVGID_2_)" fill="#A7A9AC" d="M360.036,30.162c0-9.686,7.294-17.776,17.312-17.776
		c10.081,0,17.05,8.224,17.111,17.71c0,0.664-0.062,1.525-0.131,1.791h-29.516c0.533,7.429,6.106,12.867,12.736,12.867
		c4.576,0,9.022-2.52,10.612-6.233l3.913,1.058c-2.123,5.043-8.027,8.625-14.657,8.625C367.33,48.204,360.036,39.98,360.036,30.162
		 M390.153,28.438c-0.602-7.363-6.036-12.535-12.805-12.535c-6.761,0-12.203,5.237-12.667,12.535H390.153z"/>
	<path clip-path="url(#SVGID_2_)" fill="#A7A9AC" d="M400.393,30.36c0-9.618,6.568-17.973,16.047-17.973
		c5.905,0,10.219,3.381,13.268,7.826v-7.232h4.046v34.691c0,9.621-7.688,14.661-16.981,14.661c-7.888,0-12.403-3.053-15.452-7.827
		l2.786-2.191c2.717,4.38,7.564,6.436,12.666,6.436c6.769,0,12.473-3.65,12.473-11.079v-6.831
		c-2.717,4.376-7.694,7.163-12.666,7.163C407.093,48.004,400.393,39.448,400.393,30.36 M429.244,35.666V24.987
		c-1.99-4.974-7.03-8.621-12.003-8.621c-7.694,0-12.271,7.228-12.271,14.063c0,7.429,5.635,13.796,12.867,13.796
		C423.208,44.225,428.449,39.911,429.244,35.666"/>
	<path clip-path="url(#SVGID_2_)" fill="#A7A9AC" d="M444.462,33.28V12.981h4.515v19.5c0,7.896,2.655,11.744,8.027,11.744
		s10.412-3.716,12.466-9.486V12.981h4.515v28.72c0,1.262,0.525,1.86,1.652,1.86v3.979c-0.857,0.131-1.39,0.2-1.853,0.2
		c-2.061,0-3.713-1.393-3.713-3.253v-4.774c-3.057,5.373-8.56,8.491-14.596,8.491C448.244,48.205,444.462,43.095,444.462,33.28"/>
	<path clip-path="url(#SVGID_2_)" fill="#A7A9AC" d="M502.795,16.964c-6.036,0.197-10.883,3.512-12.735,9.085v21.492h-4.515V12.982
		h4.244v8.293c2.393-4.843,6.568-8.491,11.015-8.491c0.795,0,1.527,0,1.991,0.066V16.964z"/>
	<path clip-path="url(#SVGID_2_)" fill="#A7A9AC" d="M506.32,30.359c0-9.683,7.294-17.973,17.181-17.973
		c9.881,0,17.182,8.29,17.182,17.973c0,9.621-7.232,17.845-17.182,17.845C513.422,48.204,506.32,39.98,506.32,30.359
		 M523.433,44.225c6.899,0,12.604-6.236,12.604-13.931c0-7.696-5.704-13.929-12.535-13.929c-6.899,0-12.534,6.303-12.534,14.063
		C510.967,38.12,516.539,44.225,523.433,44.225"/>
	<path clip-path="url(#SVGID_2_)" fill="#FFFFFF" d="M138.847,125.626l26.764-63.968h5.137l26.756,63.968h-6.761l-8.283-20.002
		h-28.741l-8.2,20.002H138.847z M168.224,69.046l-13.157,31.624h25.948L168.224,69.046z"/>
	<path clip-path="url(#SVGID_2_)" fill="#FFFFFF" d="M205.435,106.257V78.684h6.126v26.491c0,10.72,3.602,15.947,10.903,15.947
		c7.301,0,14.146-5.047,16.939-12.885V78.684h6.126V117.7c0,1.711,0.719,2.52,2.254,2.52v5.406c-1.176,0.18-1.895,0.27-2.524,0.27
		c-2.793,0-5.047-1.891-5.047-4.415v-6.484c-4.142,7.298-11.622,11.532-19.822,11.532
		C210.572,126.528,205.435,119.591,205.435,106.257"/>
	<path clip-path="url(#SVGID_2_)" fill="#FFFFFF" d="M283.817,123.372c-1.438,0.633-5.586,2.793-10.634,2.793
		c-5.309,0-9.907-2.973-9.907-9.009V83.551h-6.485v-4.866h6.485V62.827h6.126v15.857h10.813v4.866h-10.813v31.895
		c0.269,3.423,2.703,5.044,5.676,5.044c3.422,0,6.395-1.621,7.121-2.071L283.817,123.372z"/>
	<path clip-path="url(#SVGID_2_)" fill="#FFFFFF" d="M288.774,102.292c0-13.154,9.915-24.416,23.335-24.416
		c13.427,0,23.334,11.262,23.334,24.416c0,13.063-9.817,24.236-23.334,24.236C298.419,126.528,288.774,115.355,288.774,102.292
		 M312.02,121.122c9.375,0,17.119-8.471,17.119-18.921c0-10.449-7.744-18.92-17.029-18.92c-9.369,0-17.029,8.561-17.029,19.101
		C295.08,112.832,302.651,121.122,312.02,121.122"/>
	<path clip-path="url(#SVGID_2_)" fill="#A7A9AC" d="M352.742,125.626V61.659h27.123c11.802,0,20.361,10.81,20.361,21.26
		c0,10.903-8.021,21.264-19.912,21.264H365.18v21.443H352.742z M365.18,93.283h14.416c4.591,0,8.014-4.056,8.014-10.364
		c0-6.575-4.142-10.36-8.561-10.36H365.18V93.283z"/>
	<path clip-path="url(#SVGID_2_)" fill="#A7A9AC" d="M437.354,88.868c-7.301,0.09-13.517,2.883-16.04,8.196v28.562h-12.072V78.414
		h11.083v10.091c3.243-6.395,8.829-10.81,14.596-10.81c1.259,0,1.888,0.09,2.434,0.18V88.868z"/>
	<path clip-path="url(#SVGID_2_)" fill="#A7A9AC" d="M443.023,102.292c0-13.424,9.548-24.687,24.96-24.687
		c15.404,0,24.592,11.442,24.592,24.233c0,1.535-0.09,3.066-0.269,4.055h-36.492c0.636,7.389,6.216,11.806,12.528,11.806
		c4.771,0,9.638-2.523,11.173-6.398l10.356,2.883c-3.423,7.208-11.532,12.344-21.979,12.344
		C452.661,126.527,443.023,115.355,443.023,102.292 M480.145,98.057c-0.629-7.027-5.766-11.712-12.348-11.712
		c-6.485,0-11.623,4.685-12.162,11.712H480.145z"/>
	<path clip-path="url(#SVGID_2_)" fill="#A7A9AC" d="M575.107,125.626h-12.072V99.139c0-7.48-2.793-10.902-7.384-10.902
		c-4.688,0-9.375,4.055-11.174,9.911v27.479H532.4V99.139c0-7.57-2.786-10.902-7.294-10.902c-4.688,0-9.459,3.965-11.264,9.82
		v27.569h-12.072V78.414h10.903v8.74c3.513-6.126,9.818-9.549,17.569-9.549c7.833,0,12.07,4.415,13.33,10.001
		c3.789-6.488,9.914-10.001,17.388-10.001c11.622,0,14.146,9.459,14.146,18.561V125.626z"/>
	<path clip-path="url(#SVGID_2_)" fill="#A7A9AC" d="M587.275,59.854h12.071V71.84h-12.071V59.854z M587.275,78.415h12.071v47.212
		h-12.071V78.415z"/>
	<path clip-path="url(#SVGID_2_)" fill="#A7A9AC" d="M611.419,107.968V78.415h12.072v26.939c0,7.207,2.703,10.899,7.84,10.899
		c4.771,0,9.458-2.789,12.251-8.556V78.415h12.072v33.335c0,2.522,0.809,3.516,3.242,3.604v10.271
		c-2.523,0.449-4.411,0.629-5.855,0.629c-4.321,0-6.845-2.16-7.384-5.583l-0.271-3.875c-4.328,6.485-11.083,9.731-19.103,9.731
		C616.556,126.528,611.419,120.13,611.419,107.968"/>
	<path clip-path="url(#SVGID_2_)" fill="#A7A9AC" d="M743.053,125.626H730.98V99.139c0-7.48-2.793-10.902-7.384-10.902
		c-4.687,0-9.375,4.055-11.173,9.911v27.479h-12.071V99.139c0-7.57-2.793-10.902-7.301-10.902c-4.688,0-9.459,3.965-11.263,9.82
		v27.569h-12.072V78.414h10.903v8.74c3.513-6.126,9.817-9.549,17.568-9.549c7.833,0,12.071,4.415,13.33,10.001
		c3.789-6.488,9.914-10.001,17.388-10.001c11.622,0,14.146,9.459,14.146,18.561V125.626z"/>
</g>
</svg>
