<?xml version="1.0" encoding="utf-8"?>
<!-- Generator: Adobe Illustrator 16.0.0, SVG Export Plug-In . SVG Version: 6.00 Build 0)  -->
<!DOCTYPE svg PUBLIC "-//W3C//DTD SVG 1.1//EN" "http://www.w3.org/Graphics/SVG/1.1/DTD/svg11.dtd">
<svg version="1.1" id="Layer_1" xmlns="http://www.w3.org/2000/svg" xmlns:xlink="http://www.w3.org/1999/xlink" x="0px" y="0px"
	 width="144.99px" height="144.99px" viewBox="0 0 144.99 144.99" enable-background="new 0 0 144.99 144.99" xml:space="preserve">
<g>
	<g>
		<path fill="#203466" d="M78.767,94.473c-0.896,0-1.791-0.342-2.475-1.025l-24.75-24.749c-0.656-0.656-1.025-1.546-1.025-2.475
			s0.369-1.818,1.025-2.475l38.938-38.937c2.924-2.924,6.812-4.534,10.948-4.534c0.732,0,1.461,0.051,2.18,0.152
			c0.065-5.319,2.182-10.492,6.06-14.37C113.575,2.152,118.771,0,124.299,0c5.526,0,10.723,2.152,14.631,6.061
			c3.908,3.907,6.061,9.104,6.061,14.631s-2.152,10.724-6.061,14.631c-3.84,3.842-8.927,5.986-14.351,6.057
			c0.679,4.703-0.843,9.573-4.401,13.131L81.241,93.447C80.558,94.131,79.662,94.473,78.767,94.473z M58.967,66.224l19.8,19.799
			l36.462-36.462c2.823-2.824,3.308-7.154,1.178-10.532c-0.778-1.234-0.71-2.821,0.172-3.982c0.882-1.163,2.396-1.654,3.789-1.238
			c1.275,0.38,2.599,0.573,3.935,0.573c3.657,0,7.095-1.423,9.678-4.008c2.587-2.586,4.011-6.024,4.011-9.682
			s-1.424-7.096-4.01-9.682S127.956,7,124.299,7s-7.096,1.424-9.683,4.01c-3.562,3.562-4.877,8.777-3.434,13.611
			c0.418,1.398-0.075,2.908-1.237,3.79c-1.162,0.881-2.751,0.949-3.983,0.173c-1.354-0.854-2.922-1.306-4.534-1.306
			c-2.267,0-4.397,0.882-5.999,2.483L58.967,66.224z"/>
	</g>
	<g>
		<path fill="#203466" d="M124.299,29.101c-2.245,0-4.357-0.874-5.946-2.462c-3.279-3.279-3.279-8.615,0-11.894
			c1.589-1.589,3.7-2.464,5.946-2.464s4.357,0.875,5.946,2.464c3.279,3.278,3.279,8.614,0,11.893
			C128.657,28.227,126.546,29.101,124.299,29.101z M124.299,19.281c-0.218,0-0.637,0.054-0.997,0.413
			c-0.359,0.36-0.413,0.779-0.413,0.997s0.054,0.637,0.413,0.997c0.359,0.358,0.779,0.412,0.997,0.412
			c0.219,0,0.638-0.054,0.997-0.412c0.359-0.36,0.413-0.779,0.413-0.997s-0.054-0.637-0.413-0.997
			C124.936,19.335,124.517,19.281,124.299,19.281z"/>
	</g>
	<g>
		<path fill="#203466" d="M19.168,144.99c-5.12,0-9.934-1.994-13.554-5.615C1.994,135.756,0,130.942,0,125.822
			c0-5.119,1.994-9.933,5.614-13.553c4.396-4.396,10.443-6.299,16.308-5.433c0.278-2.267,1.288-4.447,2.99-6.15l31.784-31.784
			c1.367-1.367,3.582-1.367,4.949,0c1.367,1.366,1.367,3.583,0,4.949l-31.783,31.783c-1.173,1.175-1.362,3.028-0.449,4.407
			c0.884,1.334,0.75,3.098-0.325,4.283c-1.075,1.187-2.82,1.49-4.231,0.742c-4.749-2.517-10.491-1.648-14.293,2.151
			C8.266,119.517,7,122.572,7,125.822s1.266,6.306,3.563,8.604c2.299,2.299,5.354,3.564,8.604,3.564
			c3.249,0,6.305-1.266,8.602-3.564c3.802-3.802,4.667-9.546,2.154-14.293c-0.749-1.414-0.443-3.156,0.742-4.23
			c1.185-1.076,2.949-1.211,4.283-0.325c1.378,0.912,3.232,0.723,4.405-0.449l22.2-22.201c1.365-1.367,3.582-1.367,4.949,0
			c1.367,1.366,1.367,3.582,0,4.949l-22.2,22.202c-1.702,1.702-3.884,2.712-6.15,2.99c0.866,5.864-1.037,11.91-5.434,16.307
			C29.101,142.996,24.288,144.99,19.168,144.99z"/>
	</g>
	<g>
		<path fill="#203466" d="M19.167,134.657c-2.359,0-4.578-0.919-6.246-2.588c-1.669-1.668-2.588-3.887-2.588-6.246
			c0-2.36,0.919-4.579,2.588-6.248c1.669-1.668,3.888-2.587,6.247-2.587s4.578,0.919,6.246,2.588
			c1.668,1.668,2.587,3.887,2.587,6.246s-0.919,4.578-2.588,6.247C23.745,133.738,21.526,134.657,19.167,134.657z M19.168,123.988
			c-0.49,0-0.951,0.191-1.298,0.538c-0.347,0.346-0.537,0.807-0.537,1.296c0,0.49,0.19,0.951,0.537,1.298
			c0.693,0.691,1.9,0.691,2.594,0c0.347-0.347,0.537-0.808,0.537-1.298c0-0.489-0.19-0.95-0.537-1.296
			C20.117,124.179,19.657,123.988,19.168,123.988z"/>
	</g>
	<g>
		<path fill="#203466" d="M68.61,70.106c-0.896,0-1.791-0.342-2.475-1.025c-1.367-1.366-1.367-3.583,0-4.949l30.877-30.876
			c1.367-1.367,3.582-1.367,4.949,0c1.367,1.366,1.367,3.583,0,4.949L71.085,69.081C70.401,69.765,69.506,70.106,68.61,70.106z"/>
	</g>
</g>
</svg>
