<?xml version="1.0" encoding="utf-8"?>
<!-- Generator: Adobe Illustrator 16.0.0, SVG Export Plug-In . SVG Version: 6.00 Build 0)  -->
<!DOCTYPE svg PUBLIC "-//W3C//DTD SVG 1.1//EN" "http://www.w3.org/Graphics/SVG/1.1/DTD/svg11.dtd">
<svg version="1.1" id="Layer_1" xmlns="http://www.w3.org/2000/svg" xmlns:xlink="http://www.w3.org/1999/xlink" x="0px" y="0px"
	 width="49.561px" height="171.447px" viewBox="0 0 49.561 171.447" enable-background="new 0 0 49.561 171.447"
	 xml:space="preserve">
<g>
	<defs>
		<path id="SVGID_1_" d="M41.529,9.884l-0.748,0.896c0,0-0.954,22.167-1.996,50.917c-1.043,28.75-20.802,108.218-20.802,108.218
			l0.219,1.532h26.542c3.548-30.124,5.044-58.659,4.816-84.472c-0.613-0.263-0.55-0.778-0.009-0.924
			c-0.127-12.235-0.642-23.852-1.511-34.73c-0.515-0.093-0.515-0.514-0.05-0.626c-0.006-0.084-0.014-0.166-0.02-0.249
			c-1.233-15.065-3.146-28.695-5.643-40.562H41.529z"/>
	</defs>
	<clipPath id="SVGID_2_">
		<use xlink:href="#SVGID_1_"  overflow="visible"/>
	</clipPath>
	
		<linearGradient id="SVGID_3_" gradientUnits="userSpaceOnUse" x1="-104.9731" y1="485.5063" x2="-103.9731" y2="485.5063" gradientTransform="matrix(26.5023 99.5085 99.5085 -26.5023 -45500.25 23388.1641)">
		<stop  offset="0" style="stop-color:#0064A8"/>
		<stop  offset="1" style="stop-color:#004F88"/>
	</linearGradient>
	<polygon clip-path="url(#SVGID_2_)" fill="url(#SVGID_3_)" points="47.682,1.975 89.968,160.746 20.09,179.357 -22.196,20.585 	"/>
</g>
<g>
	<defs>
		<path id="SVGID_4_" d="M39.462,10.509l-4.492,0.63c2.657,15.906,3.401,44.28-1.945,76.558
			c-5.988,36.157-12.121,66.152-18.162,83.75h3.62c20.079-70.754,27.634-123.488,23.09-161.192l-0.044-0.371L39.462,10.509z"/>
	</defs>
	<clipPath id="SVGID_5_">
		<use xlink:href="#SVGID_4_"  overflow="visible"/>
	</clipPath>
	
		<linearGradient id="SVGID_6_" gradientUnits="userSpaceOnUse" x1="-104.9746" y1="485.479" x2="-103.9746" y2="485.479" gradientTransform="matrix(-6.5 75 75 6.5 -37057.1484 4743.2222)">
		<stop  offset="0" style="stop-color:#00477B"/>
		<stop  offset="0.5891" style="stop-color:#001A41"/>
		<stop  offset="1" style="stop-color:#003461"/>
	</linearGradient>
	<polygon clip-path="url(#SVGID_5_)" fill="url(#SVGID_6_)" points="60.015,11.088 45.884,174.136 0.966,170.243 15.096,7.196 	"/>
</g>
<g>
	<defs>
		<path id="SVGID_7_" d="M29.594,9.628l0.076,1.77c2.358,54.666-3.937,105.332-19.81,159.451l-0.176,0.598h4.168
			C38.437,80.05,37.293,38.308,32.815,8.893L29.594,9.628z"/>
	</defs>
	<clipPath id="SVGID_8_">
		<use xlink:href="#SVGID_7_"  overflow="visible"/>
	</clipPath>
	
		<linearGradient id="SVGID_9_" gradientUnits="userSpaceOnUse" x1="-104.9761" y1="485.4712" x2="-103.9761" y2="485.4712" gradientTransform="matrix(-18 118.6667 118.6667 18 -59469.6016 3774.3804)">
		<stop  offset="0" style="stop-color:#2484C6"/>
		<stop  offset="1" style="stop-color:#2178B5"/>
	</linearGradient>
	<polygon clip-path="url(#SVGID_8_)" fill="url(#SVGID_9_)" points="62.539,12.549 37.79,175.71 -14.418,167.791 10.331,4.63 	"/>
</g>
<g>
	<defs>
		<path id="SVGID_10_" d="M31.793,11.307c2.232,51.723-3.101,102.89-19.893,160.14h4.375C34.735,106.53,44.358,51.136,39.462,10.509
			l-2.265-0.437L31.793,11.307z"/>
	</defs>
	<clipPath id="SVGID_11_">
		<use xlink:href="#SVGID_10_"  overflow="visible"/>
	</clipPath>
	
		<linearGradient id="SVGID_12_" gradientUnits="userSpaceOnUse" x1="-104.9766" y1="485.4849" x2="-103.9766" y2="485.4849" gradientTransform="matrix(-18.6667 122.5 122.5 18.6667 -61396.6328 3844.4868)">
		<stop  offset="0" style="stop-color:#006EB7"/>
		<stop  offset="1" style="stop-color:#0060A2"/>
	</linearGradient>
	<polygon clip-path="url(#SVGID_11_)" fill="url(#SVGID_12_)" points="68.391,13.734 43.622,176.281 -12.132,167.785 12.637,5.238 	
		"/>
</g>
<g>
	<defs>
		<path id="SVGID_13_" d="M1.15,47.197l0.688-4.5L0.517,6.447C-0.412,15.072-0.021,38.822,1.15,47.197"/>
	</defs>
	<clipPath id="SVGID_14_">
		<use xlink:href="#SVGID_13_"  overflow="visible"/>
	</clipPath>
	
		<linearGradient id="SVGID_15_" gradientUnits="userSpaceOnUse" x1="-104.9678" y1="485.4595" x2="-103.9674" y2="485.4595" gradientTransform="matrix(0.207 31.2516 31.2516 -0.207 -15149.0537 3396.5637)">
		<stop  offset="0" style="stop-color:#C7C8CA"/>
		<stop  offset="1" style="stop-color:#939598"/>
	</linearGradient>
	<polygon clip-path="url(#SVGID_14_)" fill="url(#SVGID_15_)" points="1.838,6.432 2.108,47.195 -0.412,47.212 -0.682,6.449 	"/>
</g>
<g>
	<defs>
		<path id="SVGID_16_" d="M0.463,3.415c0.078,8.314-0.063,15.157,0,21.448c0.062,6.292,0.52,20.709,0.77,22.959
			s1.565,2.625,3.095,2.708c1.53,0.084,30.322,1.042,31.78,0.875c1.459-0.166,1.805-1.034,1.977-2.601l-6.06-3.295l-16.5-18.546
			L2.572,3.415L1.837,2.791L0.463,3.415z"/>
	</defs>
	<clipPath id="SVGID_17_">
		<use xlink:href="#SVGID_16_"  overflow="visible"/>
	</clipPath>
	
		<linearGradient id="SVGID_18_" gradientUnits="userSpaceOnUse" x1="-104.9746" y1="485.4829" x2="-103.9746" y2="485.4829" gradientTransform="matrix(0.2481 37.4645 37.4645 -0.2481 -18143.1152 4066.9951)">
		<stop  offset="0" style="stop-color:#E6E7E8"/>
		<stop  offset="1" style="stop-color:#939598"/>
	</linearGradient>
	<polygon clip-path="url(#SVGID_17_)" fill="url(#SVGID_18_)" points="38.083,2.542 38.408,51.57 0.402,51.822 0.077,2.793 	"/>
</g>
<g>
	<defs>
		<path id="SVGID_19_" d="M13.587,46.197c0,0-12.604-0.625-12.354,1.625s1.565,2.625,3.095,2.708
			c1.53,0.084,30.322,1.042,31.78,0.875c1.459-0.166,1.805-1.034,1.977-2.601l-6.06-3.295L13.587,46.197z"/>
	</defs>
	<clipPath id="SVGID_20_">
		<use xlink:href="#SVGID_19_"  overflow="visible"/>
	</clipPath>
	<defs>
		<filter id="Adobe_OpacityMaskFilter" filterUnits="userSpaceOnUse" x="0.943" y="45.263" width="37.182" height="6.555">
			<feColorMatrix  type="matrix" values="1 0 0 0 0  0 1 0 0 0  0 0 1 0 0  0 0 0 1 0"/>
		</filter>
	</defs>
	<mask maskUnits="userSpaceOnUse" x="0.943" y="45.263" width="37.182" height="6.555" id="SVGID_21_">
		<g filter="url(#Adobe_OpacityMaskFilter)">
			
				<linearGradient id="SVGID_22_" gradientUnits="userSpaceOnUse" x1="-104.8359" y1="485.4243" x2="-103.8356" y2="485.4243" gradientTransform="matrix(0.0302 4.5531 4.5531 -0.0302 -2187.4956 538.9265)">
				<stop  offset="0" style="stop-color:#000000"/>
				<stop  offset="0.0444" style="stop-color:#191919"/>
				<stop  offset="0.1499" style="stop-color:#4E4E4E"/>
				<stop  offset="0.2595" style="stop-color:#7D7D7D"/>
				<stop  offset="0.3711" style="stop-color:#A5A5A5"/>
				<stop  offset="0.485" style="stop-color:#C6C6C6"/>
				<stop  offset="0.6021" style="stop-color:#DFDFDF"/>
				<stop  offset="0.7235" style="stop-color:#F1F1F1"/>
				<stop  offset="0.8521" style="stop-color:#FCFCFC"/>
				<stop  offset="1" style="stop-color:#FFFFFF"/>
			</linearGradient>
			<polygon clip-path="url(#SVGID_20_)" fill="url(#SVGID_22_)" points="38.083,45.263 38.125,51.572 0.985,51.818 0.943,45.509 			
				"/>
		</g>
	</mask>
	
		<linearGradient id="SVGID_23_" gradientUnits="userSpaceOnUse" x1="-104.835" y1="485.4263" x2="-103.835" y2="485.4263" gradientTransform="matrix(0.0302 4.5531 4.5531 -0.0302 -2187.5034 538.9265)">
		<stop  offset="0" style="stop-color:#BCBEC0"/>
		<stop  offset="0.007" style="stop-color:#BABCBE"/>
		<stop  offset="0.1331" style="stop-color:#959799"/>
		<stop  offset="0.2637" style="stop-color:#77797B"/>
		<stop  offset="0.397" style="stop-color:#5D5E61"/>
		<stop  offset="0.534" style="stop-color:#474749"/>
		<stop  offset="0.6762" style="stop-color:#2B2B2C"/>
		<stop  offset="0.8267" style="stop-color:#0E0E0F"/>
		<stop  offset="1" style="stop-color:#000000"/>
	</linearGradient>
	<polygon clip-path="url(#SVGID_20_)" mask="url(#SVGID_21_)" fill="url(#SVGID_23_)" points="38.084,45.263 38.125,51.572 
		0.985,51.818 0.943,45.509 	"/>
</g>
<g>
	<defs>
		<path id="SVGID_24_" d="M0.517,3.18h0.056l1.125-0.53l0.141-0.141c0,0,1.608-2.271,2.281-2.502
			C3.322,0.025,0.632,0.896,0.517,3.18"/>
	</defs>
	<clipPath id="SVGID_25_">
		<use xlink:href="#SVGID_24_"  overflow="visible"/>
	</clipPath>
	
		<linearGradient id="SVGID_26_" gradientUnits="userSpaceOnUse" x1="-105.0396" y1="485.4058" x2="-104.0396" y2="485.4058" gradientTransform="matrix(3.6028 0 0 -3.6028 378.9525 1750.4131)">
		<stop  offset="0" style="stop-color:#F1F2F2"/>
		<stop  offset="1" style="stop-color:#DCDDDE"/>
	</linearGradient>
	<rect x="0.517" y="0.007" clip-path="url(#SVGID_25_)" fill="url(#SVGID_26_)" width="3.603" height="3.173"/>
</g>
<g>
	<defs>
		<path id="SVGID_27_" d="M1.838,2.509h2.187l31.906,5.72c0,0,1.339-0.921,1.263-1.727c-0.075-0.805-0.856-1.962-2.45-2.18
			C33.15,4.103,6.338,0.152,4.525,0.01C4.447,0.004,4.37,0.001,4.294,0.001C2.636,0,1.809,1.463,1.838,2.509"/>
	</defs>
	<clipPath id="SVGID_28_">
		<use xlink:href="#SVGID_27_"  overflow="visible"/>
	</clipPath>
	
		<linearGradient id="SVGID_29_" gradientUnits="userSpaceOnUse" x1="-104.9673" y1="485.4888" x2="-103.9673" y2="485.4888" gradientTransform="matrix(35.3606 0 0 -35.3606 3713.5217 17171.2363)">
		<stop  offset="0" style="stop-color:#D1D3D4"/>
		<stop  offset="1" style="stop-color:#BCBEC0"/>
	</linearGradient>
	<rect x="1.809" clip-path="url(#SVGID_28_)" fill="url(#SVGID_29_)" width="35.462" height="8.229"/>
</g>
<g>
	<defs>
		<rect id="SVGID_30_" x="1.838" y="2.509" width="2.188" height="0.282"/>
	</defs>
	<clipPath id="SVGID_31_">
		<use xlink:href="#SVGID_30_"  overflow="visible"/>
	</clipPath>
	
		<linearGradient id="SVGID_32_" gradientUnits="userSpaceOnUse" x1="-105.0396" y1="485.4048" x2="-104.0396" y2="485.4048" gradientTransform="matrix(2.1883 0 0 -2.1883 231.6964 1064.8621)">
		<stop  offset="0" style="stop-color:#939598"/>
		<stop  offset="1" style="stop-color:#808285"/>
	</linearGradient>
	<rect x="1.837" y="2.509" clip-path="url(#SVGID_31_)" fill="url(#SVGID_32_)" width="2.188" height="0.282"/>
</g>
<g>
	<defs>
		<polygon id="SVGID_33_" points="0.517,3.18 0.463,3.415 1.837,2.791 1.838,2.509 		"/>
	</defs>
	<clipPath id="SVGID_34_">
		<use xlink:href="#SVGID_33_"  overflow="visible"/>
	</clipPath>
	
		<linearGradient id="SVGID_35_" gradientUnits="userSpaceOnUse" x1="-104.9751" y1="485.4771" x2="-103.9751" y2="485.4771" gradientTransform="matrix(1.375 0 0 -1.375 144.804 670.4934)">
		<stop  offset="0" style="stop-color:#BCBEC0"/>
		<stop  offset="1" style="stop-color:#A7A9AC"/>
	</linearGradient>
	<rect x="0.463" y="2.509" clip-path="url(#SVGID_34_)" fill="url(#SVGID_35_)" width="1.375" height="0.906"/>
</g>
<g>
	<defs>
		<path id="SVGID_36_" d="M1.837,2.791C1.916,10.9,2.4,24.259,2.463,30.697c0.062,6.438,0.274,14.488,0.369,16.707
			c0.093,2.218,1.068,2.918,3.037,2.918c1.813,0,27.937,0.782,29.749,0.812c1.813,0.032,2.449-0.561,2.607-3.42L16.368,32.478
			L4.329,4.115L4.025,2.791H1.837z"/>
	</defs>
	<clipPath id="SVGID_37_">
		<use xlink:href="#SVGID_36_"  overflow="visible"/>
	</clipPath>
	
		<linearGradient id="SVGID_38_" gradientUnits="userSpaceOnUse" x1="-104.9746" y1="485.5249" x2="-103.9746" y2="485.5249" gradientTransform="matrix(4.75 40.0625 40.0625 -4.75 -18934.9258 6519.7886)">
		<stop  offset="0" style="stop-color:#BCBEC0"/>
		<stop  offset="1" style="stop-color:#6D6E71"/>
	</linearGradient>
	<polygon clip-path="url(#SVGID_37_)" fill="url(#SVGID_38_)" points="37.721,-1.463 43.881,50.496 2.342,55.42 -3.819,3.462 	"/>
</g>
<g>
	<defs>
		<path id="SVGID_39_" d="M3.4,3.041C3.37,4.353,3.483,20.03,3.4,27.864c-0.083,7.833,0.5,18.083,0.593,19.552
			c0.095,1.468,0.626,2,2.125,2c1.501,0,28.719,0.906,29.657,0.906s2.246-0.561,2.361-1.771l-5.08-4.479L6.338,2.447
			c0,0-1.148-1.138-1.652-1.147C4.68,1.299,4.675,1.299,4.67,1.299C4.167,1.299,3.431,1.741,3.4,3.041"/>
	</defs>
	<clipPath id="SVGID_40_">
		<use xlink:href="#SVGID_39_"  overflow="visible"/>
	</clipPath>
	
		<linearGradient id="SVGID_41_" gradientUnits="userSpaceOnUse" x1="-104.9746" y1="485.481" x2="-103.9746" y2="485.481" gradientTransform="matrix(0.25 37.75 37.75 -0.25 -18280.0195 4096.5127)">
		<stop  offset="0" style="stop-color:#C7C8CA"/>
		<stop  offset="1" style="stop-color:#939598"/>
	</linearGradient>
	<polygon clip-path="url(#SVGID_40_)" fill="url(#SVGID_41_)" points="38.135,1.068 38.461,50.32 3.319,50.553 2.993,1.301 	"/>
</g>
<g>
	<defs>
		<path id="SVGID_42_" d="M22.838,47.572c0,0-13.563-4.156-18.845-0.156c0.095,1.468,0.626,2,2.125,2
			c1.501,0,28.719,0.906,29.657,0.906s2.246-0.561,2.361-1.771l-5.08-4.479L22.838,47.572z"/>
	</defs>
	<clipPath id="SVGID_43_">
		<use xlink:href="#SVGID_42_"  overflow="visible"/>
	</clipPath>
	<defs>
		<filter id="Adobe_OpacityMaskFilter_1_" filterUnits="userSpaceOnUse" x="2.848" y="37.752" width="36.435" height="18.234">
			<feColorMatrix  type="matrix" values="1 0 0 0 0  0 1 0 0 0  0 0 1 0 0  0 0 0 1 0"/>
		</filter>
	</defs>
	<mask maskUnits="userSpaceOnUse" x="2.848" y="37.752" width="36.435" height="18.234" id="SVGID_44_">
		<g filter="url(#Adobe_OpacityMaskFilter_1_)">
			
				<linearGradient id="SVGID_45_" gradientUnits="userSpaceOnUse" x1="-104.9746" y1="485.5552" x2="-103.9746" y2="485.5552" gradientTransform="matrix(0.4375 2.5625 2.5625 -0.4375 -1177.6144 526.1207)">
				<stop  offset="0" style="stop-color:#000000"/>
				<stop  offset="0.0444" style="stop-color:#191919"/>
				<stop  offset="0.1499" style="stop-color:#4E4E4E"/>
				<stop  offset="0.2595" style="stop-color:#7D7D7D"/>
				<stop  offset="0.3711" style="stop-color:#A5A5A5"/>
				<stop  offset="0.485" style="stop-color:#C6C6C6"/>
				<stop  offset="0.6021" style="stop-color:#DFDFDF"/>
				<stop  offset="0.7235" style="stop-color:#F1F1F1"/>
				<stop  offset="0.8521" style="stop-color:#FCFCFC"/>
				<stop  offset="1" style="stop-color:#FFFFFF"/>
			</linearGradient>
			<polygon clip-path="url(#SVGID_43_)" fill="url(#SVGID_45_)" points="37.169,37.752 39.282,50.126 4.96,55.986 2.848,43.612 			
				"/>
		</g>
	</mask>
	
		<linearGradient id="SVGID_46_" gradientUnits="userSpaceOnUse" x1="-104.9746" y1="485.5552" x2="-103.9746" y2="485.5552" gradientTransform="matrix(0.4375 2.5625 2.5625 -0.4375 -1177.6144 526.1207)">
		<stop  offset="0" style="stop-color:#BCBEC0"/>
		<stop  offset="0.0738" style="stop-color:#A8AAAD"/>
		<stop  offset="0.2117" style="stop-color:#8A8C8F"/>
		<stop  offset="0.3544" style="stop-color:#727376"/>
		<stop  offset="0.501" style="stop-color:#5E5F61"/>
		<stop  offset="0.6532" style="stop-color:#4E4E50"/>
		<stop  offset="0.8144" style="stop-color:#444446"/>
		<stop  offset="1" style="stop-color:#414042"/>
	</linearGradient>
	<polygon clip-path="url(#SVGID_43_)" mask="url(#SVGID_44_)" fill="url(#SVGID_46_)" points="37.169,37.752 39.282,50.126 
		4.96,55.986 2.848,43.612 	"/>
</g>
<g>
	<defs>
		<path id="SVGID_47_" d="M4.337,2.478c0.063,1,0.751,11.094,1.063,19.469s0,24.437,0,25.5s0.875,1.312,1.938,1.312
			c1.062,0,28.25,0.876,29.375,0.876s1.374-0.188,1.499-1.751c0.125-1.562,0.626-11.25,0.501-20.625
			c-0.125-9.374-1.188-18.875-1.313-20s-0.75-1.562-1.812-1.687C34.525,5.447,6.834,1.479,5.088,1.26
			C5.035,1.253,4.985,1.25,4.938,1.25C4.482,1.25,4.281,1.573,4.337,2.478"/>
	</defs>
	<clipPath id="SVGID_48_">
		<use xlink:href="#SVGID_47_"  overflow="visible"/>
	</clipPath>
	
		<linearGradient id="SVGID_49_" gradientUnits="userSpaceOnUse" x1="-104.9819" y1="485.479" x2="-103.9819" y2="485.479" gradientTransform="matrix(-39.6667 15.25 15.25 39.6667 -11532.5586 -17636.1504)">
		<stop  offset="0" style="stop-color:#F1F2F2"/>
		<stop  offset="1" style="stop-color:#DCDDDE"/>
	</linearGradient>
	<polygon clip-path="url(#SVGID_48_)" fill="url(#SVGID_49_)" points="55.045,43.404 8.731,61.21 -11.925,7.48 34.389,-10.325 	"/>
</g>
<g>
	<defs>
		<rect id="SVGID_50_" x="-104.975" y="-109.803" width="841.89" height="595.28"/>
	</defs>
	<clipPath id="SVGID_51_">
		<use xlink:href="#SVGID_50_"  overflow="visible"/>
	</clipPath>
	<path clip-path="url(#SVGID_51_)" fill-rule="evenodd" clip-rule="evenodd" fill="#00AEEF" d="M30.247,8.349L13.125,6.177
		c-0.514-0.063-0.917,0.375-0.896,0.976l0.677,20.076c0.019,0.601,0.453,1.127,0.963,1.169L30.9,29.844
		c0.508,0.045,0.911-0.392,0.894-0.972L31.208,9.521C31.19,8.942,30.757,8.416,30.247,8.349"/>
	<path clip-path="url(#SVGID_51_)" fill-rule="evenodd" clip-rule="evenodd" fill="#FFFFFF" d="M30.305,21.119
		c-0.713-1.059-2.392-1.446-3.297-1.542c-3.777-0.398-7.367,0.043-10.65,1.205c-0.009-1.148-0.074-2.304-0.223-3.452
		c2.51-0.594,6.961-0.798,9.911-0.178C28.799,17.729,29.885,19.585,30.305,21.119"/>
	<path clip-path="url(#SVGID_51_)" fill-rule="evenodd" clip-rule="evenodd" fill="#FFFFFF" d="M28.991,18.134
		c-0.79-0.905-1.392-1.562-3.726-2.207c-2.335-0.646-7.238-0.603-9.397-0.199c-0.19-1.022-0.434-2.037-0.73-3.039
		c1.486-0.138,3.018-0.122,4.589,0.058c1.525,0.175,3.025,0.498,4.487,0.951C27.304,14.657,28.343,16.732,28.991,18.134"/>
	<path clip-path="url(#SVGID_51_)" fill-rule="evenodd" clip-rule="evenodd" fill="#FFFFFF" d="M13.315,8.086
		c7.936,0.726,12.514,5.246,13.435,6.441c-0.793-0.824-2.3-1.626-3.591-2.06c-1.587-0.534-3.22-0.906-4.893-1.102
		c-1.223-0.142-2.424-0.183-3.596-0.125C14.338,10.291,13.74,9,13.315,8.086"/>
	<path clip-path="url(#SVGID_51_)" fill-rule="evenodd" clip-rule="evenodd" fill="#FFFFFF" d="M29.25,26.705
		c1.179-2.873,0.866-3.427-1.616-3.326c-3.86,0.167-8.691,1.633-12.313,3.639c0.625-1.47,0.905-2.976,0.989-4.352
		c3.515-1.481,7.411-2.13,11.533-1.799C32.15,21.222,30.646,24.811,29.25,26.705"/>
	<path clip-path="url(#SVGID_51_)" fill-rule="evenodd" clip-rule="evenodd" d="M26.449,39.654c0.343-0.035,0.854-0.044,1.423-0.006
		c0.701,0.046,1.195,0.188,1.54,0.483c0.287,0.25,0.455,0.746,0.467,1.193c0.018,0.619-0.318,1.039-0.72,1.166l0.001,0.022
		c0.211,0.337,1.467,2.192,1.467,2.192l-1.18-0.067l-1.321-1.987l-0.535-0.033l0.054,1.917l-1.059-0.06L26.449,39.654z
		 M27.569,41.822l0.42,0.027c0.534,0.033,0.841-0.222,0.83-0.648c-0.013-0.447-0.314-0.691-0.805-0.729
		c-0.259-0.017-0.407-0.005-0.483,0.004L27.569,41.822z M10.861,42.434c0.294,0.174,0.742,0.354,1.199,0.38
		c0.492,0.028,0.746-0.173,0.735-0.5c-0.01-0.314-0.24-0.505-0.817-0.754c-0.798-0.337-1.327-0.83-1.351-1.563
		c-0.028-0.859,0.627-1.474,1.747-1.403c0.536,0.034,0.934,0.178,1.22,0.33l-0.21,0.9c-0.194-0.109-0.536-0.272-1.001-0.301
		c-0.464-0.028-0.683,0.182-0.675,0.443c0.01,0.321,0.283,0.478,0.903,0.761c0.849,0.378,1.257,0.861,1.279,1.567
		c0.026,0.839-0.563,1.527-1.863,1.456c-0.542-0.029-1.082-0.215-1.354-0.387L10.861,42.434z M17.064,41.842l-1.745-0.102
		l0.037,1.185l1.948,0.111l0.028,0.923l-3.023-0.166l-0.157-5.004l2.929,0.187l0.028,0.923l-1.85-0.115l0.032,1.037l1.745,0.105
		L17.064,41.842z M21.66,43.974c-0.327,0.099-0.947,0.225-1.573,0.19c-0.864-0.048-1.496-0.311-1.945-0.777
		c-0.449-0.454-0.708-1.117-0.722-1.846c-0.044-1.654,1.073-2.525,2.629-2.424c0.612,0.04,1.086,0.195,1.323,0.329l-0.198,0.879
		c-0.264-0.134-0.591-0.25-1.112-0.283c-0.892-0.057-1.552,0.432-1.519,1.507c0.031,1.023,0.66,1.663,1.539,1.713
		c0.246,0.014,0.442-0.004,0.525-0.042l-0.031-1.036l-0.023-0.872l1.03,0.063L21.66,43.974z M23.075,39.367l0.083,2.833
		c0.024,0.847,0.346,1.296,0.893,1.328c0.563,0.032,0.86-0.357,0.835-1.224l-0.081-2.823l1.068,0.071l0.079,2.744
		c0.043,1.511-0.674,2.189-1.91,2.119c-1.194-0.067-1.916-0.794-1.962-2.368l-0.081-2.75L23.075,39.367z M34.733,42.496
		c0.043,1.577-0.871,2.479-2.253,2.399c-1.402-0.08-2.253-1.215-2.291-2.598c-0.041-1.455,0.835-2.482,2.232-2.387
		C33.875,40.007,34.697,41.167,34.733,42.496 M31.319,42.345c0.026,0.949,0.479,1.643,1.194,1.685
		c0.723,0.043,1.118-0.633,1.092-1.57c-0.023-0.866-0.451-1.638-1.188-1.686C31.694,40.727,31.293,41.403,31.319,42.345"/>
	<path clip-path="url(#SVGID_51_)" fill-rule="evenodd" clip-rule="evenodd" d="M14.048,31.856
		c-0.392-0.351-0.967-0.551-1.759-0.612c-0.684-0.053-1.262-0.057-1.721-0.012l0.196,5.939l1.204,0.079
		c-0.004-0.103-0.071-2.193-0.071-2.193l0.052,0.013c0.116,0.025,0.269,0.045,0.44,0.057c0.796,0.055,1.43-0.117,1.831-0.499
		c0.322-0.308,0.489-0.793,0.471-1.365C14.673,32.713,14.44,32.2,14.048,31.856 M12.35,34.176c-0.206-0.015-0.34-0.036-0.448-0.07
		l-0.037-0.012l-0.062-1.89l0.035-0.009c0.058-0.012,0.227-0.038,0.551-0.013c0.669,0.05,1.079,0.435,1.099,1.029
		C13.508,33.857,13.073,34.227,12.35,34.176 M17.63,31.603c-1.631-0.127-2.729,1.071-2.671,2.912
		c0.058,1.817,1.171,3.111,2.768,3.217c1.695,0.114,2.753-1.035,2.696-2.928C20.377,33.316,19.496,31.75,17.63,31.603
		 M17.766,36.759c-0.883-0.061-1.478-0.915-1.518-2.178c-0.039-1.263,0.514-2.069,1.38-2.003c0.85,0.065,1.47,0.96,1.507,2.177
		C19.175,36.032,18.637,36.819,17.766,36.759 M24.092,35.558l-0.009-0.015l-0.003-0.082l0.031-0.01
		c0.407-0.123,0.872-0.557,0.848-1.374c-0.017-0.576-0.24-1.149-0.553-1.426c-0.398-0.349-0.97-0.536-1.857-0.607
		c-0.618-0.049-1.232-0.054-1.691-0.015l0.176,5.827l1.202,0.082c-0.003-0.102-0.071-2.357-0.071-2.357l0.723,0.052
		c0,0,1.59,2.417,1.618,2.46l1.323,0.091C25.544,37.758,24.319,35.924,24.092,35.558 M22.699,34.75l-0.56-0.041l-0.053-1.753
		l0.038-0.005c0.159-0.017,0.36-0.017,0.599,0.002c0.648,0.06,1.015,0.403,1.031,0.964C23.771,34.481,23.368,34.8,22.699,34.75
		 M29.42,32.64c0.003,0.091,0.027,0.926,0.03,1.017c-0.086-0.007-1.576-0.125-1.576-0.125s0.136,4.699,0.138,4.802
		c-0.082-0.005-1.134-0.078-1.217-0.084c-0.003-0.103-0.14-4.814-0.14-4.814s-1.464-0.114-1.55-0.121
		c-0.003-0.092-0.028-0.934-0.031-1.025C25.164,32.297,29.332,32.633,29.42,32.64 M32.023,32.756
		c-1.626-0.133-2.726,1.026-2.674,2.817c0.05,1.768,1.154,3.031,2.749,3.143c1.69,0.118,2.749-0.994,2.698-2.833
		C34.756,34.436,33.883,32.909,32.023,32.756 M32.139,37.769c-0.879-0.063-1.47-0.897-1.505-2.125
		c-0.035-1.229,0.52-2.009,1.382-1.94c0.849,0.068,1.464,0.941,1.497,2.124C33.548,37.07,33.009,37.833,32.139,37.769"/>
	<g clip-path="url(#SVGID_51_)">
		<g>
			<defs>
				<rect id="SVGID_52_" x="5.4" y="17.86" width="33.332" height="31.775"/>
			</defs>
			<clipPath id="SVGID_53_">
				<use xlink:href="#SVGID_52_"  overflow="visible"/>
			</clipPath>
			<g clip-path="url(#SVGID_53_)">
				<defs>
					<path id="SVGID_54_" d="M7.338,48.76c1.062,0,28.249,0.875,29.374,0.875s1.375-0.188,1.5-1.75
						c0.125-1.563,0.625-11.25,0.5-20.625c-0.043-3.238-0.198-6.482-0.388-9.4C35.012,32.022,16.068,35.352,5.532,34.929
						C5.504,41.194,5.4,46.832,5.4,47.447C5.4,48.51,6.275,48.76,7.338,48.76"/>
				</defs>
				<clipPath id="SVGID_55_">
					<use xlink:href="#SVGID_54_"  overflow="visible"/>
				</clipPath>
				<defs>
					<filter id="Adobe_OpacityMaskFilter_2_" filterUnits="userSpaceOnUse" x="-4.316" y="7.635" width="52.871" height="52.226">
						<feColorMatrix  type="matrix" values="1 0 0 0 0  0 1 0 0 0  0 0 1 0 0  0 0 0 1 0"/>
					</filter>
				</defs>
				<mask maskUnits="userSpaceOnUse" x="-4.316" y="7.635" width="52.871" height="52.226" id="SVGID_56_">
					<g filter="url(#Adobe_OpacityMaskFilter_2_)">
						
							<linearGradient id="SVGID_57_" gradientUnits="userSpaceOnUse" x1="-104.9746" y1="485.4224" x2="-103.9746" y2="485.4224" gradientTransform="matrix(-14 41 41 14 -21344.3652 -2474.3364)">
							<stop  offset="0" style="stop-color:#000000"/>
							<stop  offset="1" style="stop-color:#FFFFFF"/>
						</linearGradient>
						<polygon clip-path="url(#SVGID_55_)" fill="url(#SVGID_57_)" points="48.554,21.178 35.346,59.86 -4.316,46.317 8.892,7.635 
													"/>
					</g>
				</mask>
				
					<linearGradient id="SVGID_58_" gradientUnits="userSpaceOnUse" x1="-104.9746" y1="485.4224" x2="-103.9746" y2="485.4224" gradientTransform="matrix(-14 41 41 14 -21344.3652 -2474.3364)">
					<stop  offset="0" style="stop-color:#F1F2F2"/>
					<stop  offset="1" style="stop-color:#A7A9AC"/>
				</linearGradient>
				<polygon clip-path="url(#SVGID_55_)" mask="url(#SVGID_56_)" fill="url(#SVGID_58_)" points="48.554,21.178 35.346,59.86 
					-4.316,46.317 8.892,7.635 				"/>
			</g>
		</g>
	</g>
</g>
<g>
	<defs>
		<path id="SVGID_59_" d="M42.199,51.243l5.826,0.079c-0.329-0.172-0.379-0.502-0.035-0.627l-5.743-0.164
			C41.811,50.593,41.793,51.057,42.199,51.243"/>
	</defs>
	<clipPath id="SVGID_60_">
		<use xlink:href="#SVGID_59_"  overflow="visible"/>
	</clipPath>
	
		<linearGradient id="SVGID_61_" gradientUnits="userSpaceOnUse" x1="-104.7871" y1="484.6665" x2="-103.7871" y2="484.6665" gradientTransform="matrix(-0.014 0.4066 0.4066 0.014 -153.6176 86.6008)">
		<stop  offset="0" style="stop-color:#001137"/>
		<stop  offset="0.4577" style="stop-color:#003461"/>
		<stop  offset="1" style="stop-color:#001A41"/>
	</linearGradient>
	<polygon clip-path="url(#SVGID_60_)" fill="url(#SVGID_61_)" points="48.053,50.532 48.018,51.537 41.766,51.321 41.801,50.316 	
		"/>
</g>
<g>
	<defs>
		<path id="SVGID_62_" d="M38.031,86.537c-0.49,0.113-0.423,0.926-0.168,1.035l11.697-0.596c-0.363-0.264-0.342-0.8-0.029-0.924
			L38.031,86.537z"/>
	</defs>
	<clipPath id="SVGID_63_">
		<use xlink:href="#SVGID_62_"  overflow="visible"/>
	</clipPath>
	
		<linearGradient id="SVGID_64_" gradientUnits="userSpaceOnUse" x1="-105.9731" y1="485.5747" x2="-104.9729" y2="485.5747" gradientTransform="matrix(-0.0208 -0.5417 -0.5417 0.0208 304.3986 19.7229)">
		<stop  offset="0" style="stop-color:#001137"/>
		<stop  offset="0.4577" style="stop-color:#003461"/>
		<stop  offset="1" style="stop-color:#001A41"/>
	</linearGradient>
	<polygon clip-path="url(#SVGID_63_)" fill="url(#SVGID_64_)" points="37.559,88.034 37.483,86.054 49.542,85.59 49.619,87.57 	"/>
</g>
</svg>
