<svg version="1.1" id="logo-porto-teatro" xmlns="http://www.w3.org/2000/svg" xmlns:xlink="http://www.w3.org/1999/xlink" x="0px" y="0px" width="841.89px" height="595.28px" viewBox="0 0 841.89 595.28" enable-background="new 0 0 841.89 595.28" xml:space="preserve" src="assets/logo-porto-seguro.svg" data-gwd-node="true" is="gwd-image" source="assets/logo-porto-seguro.svg" class="gwd-img-gy2v gwd-svg-2gs9 gwd-svg-irrr gwd-svg-llg9 gwd-svg-sxfj gwd-svg-4011 gwd-svg-azs8 gwd-svg-cwmk gwd-svg-vtzv gwd-svg-5dgb gwd-svg-6210 gwd-svg-ws8m gwd-svg-h3qr gwd-svg-d2fy gwd-svg-alo2 gwd-svg-m51u gwd-svg-0vlb gwd-svg-eteg gwd-svg-69ly gwd-svg-78bs gwd-svg-zdkh gwd-svg-5h17 gwd-svg-s9a0 gwd-svg-sljq gwd-svg-t9bt gwd-svg-wn48" gwd-svg-index="0">
<g data-gwd-node="true">
	<g data-gwd-node="true">
		<g data-gwd-node="true">
			<path fill="#009FE3" d="M719.292,253.784H541.809c-5.303,0-9.645,4.34-9.645,9.647v177.48c0,5.311,4.342,9.65,9.645,9.65h177.483
				c5.308,0,9.65-4.34,9.65-9.65v-177.48C728.942,258.124,724.6,253.784,719.292,253.784z" data-gwd-node="true"></path>
			<path fill="#FFFFFF" d="M715.774,371.078c-7.117-9.027-24.537-10.929-33.97-10.929c-39.291,0-76.873,7.309-111.467,20.646
				c0.298-10.241,0.014-20.502-1.146-30.611c26.332-7.692,72.787-13.859,103.361-11.18
				C701.109,341.51,711.872,357.422,715.774,371.078z M702.984,345.019c-7.959-7.483-14.044-12.87-38.188-16.362
				c-24.145-3.487-75.23,1.778-97.84,7.479c-1.624-8.942-3.803-17.762-6.539-26.412c15.497-2.725,31.436-4.146,47.719-4.146
				c15.82,0,31.337,1.343,46.428,3.923C686.497,314.961,696.663,332.85,702.984,345.019z M543.106,270.569
				c82.233-2.125,128.433,33.875,137.643,43.792c-8.007-6.676-23.458-12.36-36.768-14.922c-16.359-3.144-33.235-4.773-50.58-4.773
				c-12.671,0-25.143,0.885-37.335,2.597C552.945,289.15,547.192,278.267,543.106,270.569z M702.984,423.191
				c13.225-27.338,10.124-32.127-15.862-28.945c-40.37,4.937-91.272,22.212-129.716,42.987c7.021-13.575,10.45-27.231,11.78-39.568
				c37.133-16.294,77.981-25.678,120.919-26.537C735.041,370.247,718.188,404.633,702.984,423.191z" data-gwd-node="true"></path>
		</g>
		<g data-gwd-node="true">
			<path fill="#FFFFFF" d="M369.089,369.312c5.545-0.812,13.803-1.413,22.97-1.413c11.307,0,19.224,1.513,24.66,5.348
				c4.521,3.236,7.007,10.06,7.007,16.322c0,8.686-5.601,14.882-12.168,17.003v0.308c3.267,4.549,22.742,29.578,22.742,29.578
				h-19.034l-20.456-26.763h-8.627v26.763h-17.094V369.312z M386.183,398.593h6.775c8.604,0,13.689-3.835,13.689-9.802
				c0-6.257-4.759-9.387-12.671-9.483c-4.181,0-6.567,0.31-7.793,0.497V398.593z M116.249,420.651
				c4.645,2.118,11.776,4.235,19.134,4.235c7.926,0,12.122-2.927,12.122-7.37c0-4.255-3.622-6.677-12.799-9.603
				c-12.68-3.938-20.943-10.207-20.943-20.124c0-11.62,10.862-20.52,28.865-20.52c8.618,0,14.954,1.629,19.485,3.445l-3.845,12.434
				c-3.063-1.309-8.5-3.233-15.98-3.233c-7.463,0-11.099,3.03-11.099,6.564c0,4.347,4.304,6.265,14.162,9.605
				c13.481,4.448,19.812,10.715,19.812,20.317c0,11.421-9.849,21.23-30.796,21.23c-8.717,0-17.33-2.127-21.63-4.248L116.249,420.651
				z M216.583,407.715H188.5v16.17h31.365v12.636H171.17v-68.128h47.109v12.638H188.5v14.146h28.083V407.715z M289.735,433.386
				c-5.322,1.617-15.398,3.838-25.484,3.838c-13.926,0-24.001-3.137-31.029-9.197c-7.021-5.865-10.871-14.765-10.753-24.76
				c0.118-22.646,18.566-35.591,43.6-35.591c9.854,0,17.43,1.714,21.18,3.345l-3.622,12.328c-4.19-1.61-9.404-2.929-17.79-2.929
				c-14.375,0-25.242,7.28-25.242,22.032c0,14.046,9.849,22.342,24.006,22.342c3.958,0,7.136-0.404,8.49-1.011v-14.25l0.057-12.029
				h16.587V433.386z M314.769,368.393v39.214c0,11.724,4.977,17.689,13.808,17.689c9.063,0,14.044-5.655,14.044-17.689v-39.214
				h17.216v38.21c0,21.019-11.89,31.031-31.824,31.031c-19.252,0-30.579-9.506-30.579-31.244v-37.997H314.769z M501.68,401.749
				c0,22.335-15.176,35.885-37.487,35.885c-22.647,0-35.896-15.264-35.896-34.673c0-20.417,14.607-35.69,37.142-35.69
				C488.881,367.271,501.68,382.946,501.68,401.749z M446.535,402.658c0,13.343,7.018,22.752,18.566,22.752
				c11.662,0,18.344-9.911,18.344-23.154c0-12.23-6.563-22.752-18.462-22.752C453.32,379.504,446.535,389.409,446.535,402.658z" data-gwd-node="true"></path>
			<path fill="#FFFFFF" d="M173.059,273.825c-6.127-4.377-15.271-6.516-27.956-6.516c-10.985,0-20.271,0.547-27.662,1.636v80.427
				h19.338c0-1.411,0-29.76,0-29.76l0.833,0.119c1.866,0.231,4.309,0.357,7.065,0.357c12.78,0,23.059-2.955,29.717-8.566
				c5.336-4.515,8.277-11.313,8.277-19.12C182.671,284.903,179.182,278.125,173.059,273.825z M144.545,307.177
				c-3.31,0-5.455-0.157-7.178-0.512l-0.587-0.123v-25.657l0.554-0.144c0.947-0.225,3.684-0.75,8.874-0.75
				c10.729,0,17.136,4.82,17.136,12.912C163.343,301.7,156.136,307.177,144.545,307.177z M230.822,266.578
				c-26.18,0-44.467,17.55-44.467,42.682c0,24.802,17.269,41.467,42.957,41.467c27.264,0,44.883-16.853,44.883-42.935
				C274.194,287.272,260.785,266.578,230.822,266.578z M230.415,337.319c-14.181,0-23.348-11.158-23.348-28.425
				c0-17.29,9.328-28.904,23.22-28.904c13.656,0,23.192,11.684,23.192,28.417C253.479,325.97,244.435,337.319,230.415,337.319z
				 M332.98,314.506l-0.142-0.194v-1.146l0.511-0.171c6.601-2.128,14.314-8.65,14.314-20.017c0-8.009-3.31-15.758-8.229-19.276
				c-6.246-4.42-15.38-6.392-29.627-6.392c-9.948,0-19.821,0.606-27.236,1.636v80.427h19.333c0-1.418,0-32.598,0-32.598h11.625
				c0,0,24.495,32.027,24.925,32.598h21.317C355.362,343.709,336.475,319.366,332.98,314.506z M310.905,304.712h-9.001v-24.246
				l0.616-0.104c2.557-0.415,5.8-0.625,9.641-0.625c10.422,0.137,16.17,4.505,16.17,12.301
				C328.33,299.863,321.668,304.712,310.905,304.712z M420.303,267.928c0,1.278,0,12.993,0,14.264c-1.387,0-25.37,0-25.37,0
				s0,65.739,0,67.18c-1.316,0-18.277,0-19.607,0c0-1.441,0-67.18,0-67.18s-23.552,0-24.944,0c0-1.271,0-12.986,0-14.264
				C351.816,267.928,418.869,267.928,420.303,267.928z M462.261,266.578c-26.185,0-44.477,17.55-44.477,42.682
				c0,24.802,17.264,41.467,42.961,41.467c27.255,0,44.874-16.853,44.874-42.935C505.619,287.272,492.224,266.578,462.261,266.578z
				 M461.839,337.319c-14.172,0-23.339-11.158-23.339-28.425c0-17.29,9.318-28.904,23.206-28.904
				c13.666,0,23.202,11.684,23.202,28.417C484.908,325.97,475.864,337.319,461.839,337.319z" data-gwd-node="true"></path>
		</g>
	</g>
	<path fill="#FFFFFF" d="M146.363,139.599h-29.045v-5.282h64.425v5.282h-29.044v83.704h-6.335V139.599z" data-gwd-node="true"></path>
	<path fill="#FFFFFF" d="M276.387,179.075h-35.512v38.946h39.736v5.282h-46.076v-88.985h43.965v5.282h-37.625v34.194h35.512V179.075
		z" data-gwd-node="true"></path>
	<path fill="#FFFFFF" d="M347.857,192.143l-10.957,31.159h-6.468l32.212-88.985h6.075l32.08,88.985h-6.468l-11.222-31.159H347.857z
		 M381.13,186.864l-10.829-29.708c-2.112-6.205-3.3-10.694-4.621-15.711h-0.261c-1.321,5.149-2.774,9.771-4.621,15.448
		l-10.957,29.97H381.13z" data-gwd-node="true"></path>
	<path fill="#FFFFFF" d="M469.804,139.599h-29.045v-5.282h64.43v5.282h-29.045v83.704h-6.34V139.599z" data-gwd-node="true"></path>
	<path fill="#FFFFFF" d="M554.812,135.505c5.545-1.188,13.068-1.849,19.276-1.849c11.614,0,19.011,2.51,24.025,7.394
		c3.83,3.696,6.207,9.638,6.207,15.844c0,12.015-7.131,19.672-17.429,23.237v0.263c7.131,2.244,11.619,8.978,13.731,18.881
		c3.035,13.862,4.754,20.462,6.601,24.028h-6.469c-1.453-2.64-3.3-10.429-5.677-21.653c-2.774-12.806-8.319-18.616-20.067-19.144
		h-13.864v40.797h-6.335V135.505z M561.146,177.358h14.13c13.727,0,22.704-7.659,22.704-19.409
		c0-13.599-10.033-19.144-24.025-19.144c-6.075,0-10.563,0.661-12.809,1.188V177.358z" data-gwd-node="true"></path>
	<path fill="#FFFFFF" d="M689.286,224.753c-21.918,0-38.95-17.294-38.95-45.021c0-29.177,17.694-46.867,40.006-46.867
		c22.444,0,38.813,17.558,38.813,45.021c0,31.422-19.271,46.867-39.736,46.867H689.286z M689.68,219.474
		c21.127,0,32.875-19.144,32.875-41.192c0-18.749-10.299-40.137-32.61-40.137c-22.576,0-33.003,20.598-33.003,41.325
		c0,20.067,11.615,40.004,32.61,40.004H689.68z" data-gwd-node="true"></path>
</g>
</svg>